<mxfile host="Electron" modified="2024-03-05T18:59:09.299Z" agent="Mozilla/5.0 (Windows NT 10.0; Win64; x64) AppleWebKit/537.36 (KHTML, like Gecko) draw.io/23.0.2 Chrome/120.0.6099.109 Electron/28.1.0 Safari/537.36" etag="Ryie7lsqqS6xqKfqcfvp" version="23.0.2" type="device" pages="2">
  <diagram name="Overview" id="vFTdt6Hzzp9JbNcoWc1Z">
    <mxGraphModel dx="2037" dy="825" grid="1" gridSize="10" guides="1" tooltips="1" connect="1" arrows="1" fold="1" page="1" pageScale="1" pageWidth="850" pageHeight="1100" math="0" shadow="0">
      <root>
        <mxCell id="0" />
        <mxCell id="1" parent="0" />
        <mxCell id="744MUO6gbjXucY98MRgu-7" style="edgeStyle=orthogonalEdgeStyle;rounded=0;orthogonalLoop=1;jettySize=auto;html=1;" edge="1" parent="1" source="57Ebrk_t1ONilXVa34fl-1" target="744MUO6gbjXucY98MRgu-1">
          <mxGeometry relative="1" as="geometry" />
        </mxCell>
        <mxCell id="57Ebrk_t1ONilXVa34fl-1" value="FastAPI" style="rounded=0;whiteSpace=wrap;html=1;" parent="1" vertex="1">
          <mxGeometry x="420" y="180" width="115" height="20" as="geometry" />
        </mxCell>
        <mxCell id="57Ebrk_t1ONilXVa34fl-3" value="&lt;font style=&quot;font-size: 24px;&quot;&gt;Overview of Hestia&lt;/font&gt;" style="text;html=1;strokeColor=none;fillColor=none;align=center;verticalAlign=middle;whiteSpace=wrap;rounded=0;fontStyle=1" parent="1" vertex="1">
          <mxGeometry x="307.5" width="280" height="80" as="geometry" />
        </mxCell>
        <mxCell id="57Ebrk_t1ONilXVa34fl-6" value="Substrait" style="rounded=0;whiteSpace=wrap;html=1;" parent="1" vertex="1">
          <mxGeometry x="137.5" y="160" width="140" height="20" as="geometry" />
        </mxCell>
        <mxCell id="57Ebrk_t1ONilXVa34fl-7" value="Sqlglot" style="rounded=0;whiteSpace=wrap;html=1;" parent="1" vertex="1">
          <mxGeometry x="137.5" y="140" width="140" height="20" as="geometry" />
        </mxCell>
        <mxCell id="tCLmfLOytremMCfvckN1-10" value="" style="shape=image;verticalLabelPosition=bottom;labelBackgroundColor=default;verticalAlign=top;aspect=fixed;imageAspect=0;image=data:image/png,iVBORw0KGgoAAAANSUhEUgAAAu0AAAINCAYAAACK+kHlAAAgAElEQVR4XuydB5gUVbr+P736Fy9JRhDBQRAQIy7mNe1iBkysuypBlJyRJBmGnBGVnCUoghEEFRXDrpGkKLIoAoIgLCpDXnHxyp/3eL++NTXVXaGre7p73nqefnqm+9Spc36neuY9X7/nOyccO34IDxIgARIgARIgARIgARIggZQlcAJFe8qODRtGAiRAAiRAAiRAAiRAAoYARTtvBBIgARIgARIgARIgARJIcQIU7Sk+QGweCZAACZAACZAACZAACVC08x4gARIgARIgARIgARIggRQnQNGe4gPE5pEACZAACZAACZAACZAARTvvARIgARIgARIgARIgARJIcQIU7Sk+QGweCZAACZAACZAACZAACVC08x4gARIgARIgARIgARIggRQnQNGe4gPE5pEACZAACZAACZAACZAARTvvARIgARIgARIgARIgARJIcQIU7Sk+QGweCZAACZAACZAACZAACVC08x4gARIgARIgARIgARIggRQnQNGe4gPE5pEACZAACZAACZAACZAARTvvARIgARIgARIgARIgARJIcQIU7Sk+QGweCZAACZAACZAACZAACVC08x4gARIgARIgARIgARIggRQnQNGe4gPE5pEACZAACZAACZAACZAARTvvARIgARIgARIgARIgARJIcQIU7Sk+QGweCZAACZAACZAACZAACVC08x4gARIgARIgARIgARIggRQnQNGe4gPE5pEACZAACZAACZAACZAARTvvARIgARIgARIgARIgARJIcQIU7Sk+QGweCZAACZAACZAACZAACaS1aB89eYHMXrhMGj9QS7q1qVfgo3lRzcamDevfm822+CCQStx8NJtFSYAESIAESIAESCBpBFJWtL/591XSuf/EfCBqXFxVnpnQ17weRLQnUiAmsm6/d0QqtcWt7enUVre+8H0SIAESIAESIAESSAQBivYQqaaS+Eyltrgh9tvWIJM1tzbwfRIgARIgARIgARJIZQIpK9oVmkbcrRF2fS/VxJtf8ZnIGyOV2uLWT79tTbVxd+sf3ycBEiABEiABEiCBeAlQtMdL0HK+X/EZ4qXzVZVKbXHrp9+2UrS7EeX7JEACJEACJEACmUYgY0R72dKl5MVX/yGbtn5vxuj6q6qbBarXXH5RnjGLJhDnPv+GvHHcR7/2y02mfLGip0qNi6rKdVdeLA/dd7uncde6n5s2QJ5a8Lq8v+ILOXT4ZznzjCypdeNV+RbLrt+4VYaNe1r+9UOueeiBbxXurf0n+esdf3K8Ltpq7WvVSmcJzrn/7hvlomqVzDnR+vnxmvXSKWeCKfPEoPZ5+DjVe/3V1fO12yqa/3BhFdOWD1auM3WiHe2b/CUfd7yHa2PhsJYFF4zTC0v/bs71soC3YfshkTGyw3l8YDvDceTEZ6X2TVfLmJw2+fiB+f0tBwiYLZ491LyvdQ7q1lS2fLdTlr270tSDe+CGqy+RR1s/YMbQfuBbIGvfUebSi891LB/G/eXpJmQhEiABEiABEiCBjCSQEaId4gri2H7gdbswdRKz/cc8FRGOTqPsRUxahXK09tiFZLTFttqGHu3q55swxBKt1iw6Tv2EYG3aeaSjYH900GR5/Z0Vjje5vd0q2mNxn/V4j8gEApW69TUs0X7JBVXkniZ9TD8WPzU0n9jWsbayVabR+mMV+AoIIhyTA6cD5aeO6hq5dlj3V0b+BWKnSIAESIAESIAEPBHIGNH+tzv/LHVu/qMRihCnvYdNN1F3RHIhoPRwErP6GiKtGt1GHWs+/9pEUjUi60ZU67FHyifNXiQTjz9wzHism2MUWutGhPel1/5hyiNy+/ZzYyOXtYrldo3rRgQ9ItiIXhc9tYi0Pf66dQKhEw7U26r7Y/KvH3PzTWS0XojNnh0aRNqHekeMn284Iop925+vNHVrefwMQd+kXu183K0TCFwbQhoTK2t5vP7hqi8lZ/QsU6/XyZGbPUYnIGCkPBTi1Xf8Hn1f8erkCFcV7eD98PFvVdBP/IyJRr9Rs0y7rXXpBAQiv3vb+nnuGXzDgsmP0wQq3vvL7f7j+yRAAiRAAiRAAplLICNEu1OedrVB2MVgLNEOgexkg/A6/LG82SokveaUv6dxHyOWrUIWghMC0iqgo7XN2pZYgh3n33x/F1OvU2RaBaq13bFEs9PCYY1KOy0mdppguPF2E+069vZJj7bDPgYq2p24OrVdxzLaOIC9ta86FvHeX25c+D4JkAAJkAAJkEDmEshY0a5iFILVGt12EtYqkNVjDYvF+eeencfe4eUWiCXaVfzZI/8aWf/8n5vl0L9/lk3ffp/H6qOiXYUoorvWKLGbaIdQjBZhNxOa//V4u/XPa358J9EeK/KdCNGOOp2EuI4z1hyo9z9aWeXhxB2THOsahGjsdOzCur/cxojvkwAJkAAJkAAJZC6BjBbtTsLNSVhDgMF3rAskdbgh4ts+XDfqglD7bRFLtEeLQMMG4+THj4jG/91dNVbqS6fbU9sCywsi9naftZ7jxWuOsvGI9liR7ESJdp0kqR8fVp/mXUc7LlD12z5l6/ZnwWpNCuP+crse3ycBEiABEiABEshcAhkt2tVOYo2suqUXhIhFtPvD1V9GspTYI7PRbodYdauv3bqoU9uH6Dt81MWLnRrxjauQjDfSDrF+buVs47N2Eu5O2VTcbne/9hhE+jEhclpYmyjRjno1Io5vG8ZMWWgYOFlaYol2FftWq421Xr92qnjuL7dx4fskQAIkQAIkQAKZSyBjRbtGkO2+ZjfRbh1qtTV48ZC7iU8VhipctX1OmUlQl12047Ugnnb1UatFxel6fupFO/yKdi0fLQ2jnzFxu751/KztRKpJN9ZO4+zUdp2EeF2fEO3Ph9/7K3P/DLFnJEACJEACJEACbgQyQrTbc7Ij48uoSc8a24ldWNkFIsTznOPp+24/Hum+/A/nRbzOiLD2HTnTeJf9inZkCUF+d0wYEMnWjCLwo+tiT6uX3Fo/ros84Xig/daFqNbsMdasJV6yx1gnArFSOCJLimZPwTnggwwvyIOvmVj8inZrX61ZWDBOL73+j8g3Gl6zx6j1BXzHDXkk6toDu18/WqRfJ0i4VzQDkTWLDzhYx8hqKbKeg3IYi8/WfXM83/sukyc+zPvL7cPM90mABEiABEiABDKXQMqK9mheaydvdbThcYqsOon2zv0nRh3haBlPnE5w8zpbU/7hfI3Y2uuCuMdhF+2aBUY3kLKf55an3Xq+XbjHyv+O68STPQbnR8tVbs2N7lW0W1NIWhk4Ta70GwbrhMnOza3vSCc68NEmeU6zpr10uhf0vnFbM+Dn/srcP0PsGQmQAAmQAAmQgBuBjBDtEJTwoVt32nTagRQwnKwYiNwimrx2/abIolAI/ttrXpkvz3csoKgb52EXUd1VE+Wj7c4K8Tl57uJIVF131ETec+yUit1Z7UIW58x78U35YMW6yO6vek2NEkfrJ16PJdztu3aiPETldVdcLPfW+VMkHabfSLsyw3n23UbRV+xQisOraEdZaw55/G7PMa/X1Ki8k/DWMiraMZH5ZsuOPFyxG260nWl1R1T7fWPfnTas+8vtw8z3SYAESIAESIAEMpdAyor2zEXOniWTgAryWIuJ3bLHJLO9vBYJkAAJkAAJkAAJOBGgaOd9kbEENPOLPTe+vcMU7Rl7C7BjJEACJEACJJAxBCjaM2Yo2RE7AbedS7U8RTvvHRIgARIgARIggVQnQNGe6iPE9gUioJlj7Ck/nSqjaA+EmCeRAAmQAAmQAAkkkQBFexJh81IkQAIkQAIkQAIkQAIkEIQARXsQajyHBEiABEiABEiABEiABJJIgKI9ibB5KRIgARIgARIgARIgARIIQoCiPQg1nkMCJEACJEACJEACJEACSSRA0Z5E2LwUCZAACZAACZAACZAACQQhQNEehBrPIQESIAESIAESIAESIIEkEqBoTyJsXooESIAESIAESIAESIAEghCgaA9CjeeQAAmQAAmQAAmQAAmQQBIJULQnETYvRQIkQAIkQAIkQAIkQAJBCFC0B6HGc0iABEiABEiABEiABEggiQQo2pMIm5ciARIgARIgARIgARIggSAEKNqDUOM5JEACJEACJEACJEACJJBEAhTtSYTNS5EACZAACZAACZAACZBAEAIU7UGo8RwSIAESIAESIAESIAESSCIBivYkwualSIAESIAESIAESIAESCAIAYr2INR4DgmQAAmQAAmQAAmQAAkkkQBFexJh81IkQAIkQAIkQAIkQAIkEIQARXsQajyHBEiABEiABEiABEiABJJIgKI9ibB5KRIgARIgARIgARIgARIIQoCiPQg1nkMCJEACJEACJEACJEACSSRA0Z5E2LwUCZAACZAACZAACZAACQQhQNEehBrPIQESIAESIAESIAESIIEkEqBoTyJsXooESIAESIAESIAESIAEghCgaA9CjeeQAAmQAAmQAAmQAAmQQBIJULQnETYvRQIkQAIkQAIkQAIkQAJBCFC0B6HGc0iABEiABEiABEiABEggiQQo2pMIm5ciARIgARIgARIgARIggSAEKNqDUOM5JEACJEACJEACJEACJJBEAhTtSYTNS5EACZAACZAACZAACZBAEAIU7UGo8RwSIAESIAESIAESIAESSCIBivYkwualSIAESIAESIAESIAESCAIAYr2INR4DgmQAAmQAAmQAAmQAAkkkQBFexJh81IkQAIkQAIkQAIkQAIkEIQARXsQajyHBEiABEiABEiABEiABJJIgKI9ibB5KRIgARIgARIgARJIFoFew6bJK29+lO9yd992rQzv3dK8vmjZB9JnxAwZ2rO51K11va+m3VC3g+TuOxg5J+u04vL+ovG+6mBh7wQo2r2zYkkSIAESIAESIAESSBsCEO0frFyXR0iv27BF6rUZJK0b3S0dmt0bqC9aR9VKZ8ni2UMjddzTuI9s2vq9LJicI9UvqByo7rBP2rdvn6xduzbUamvUqCGnnXZaqHV6qYyi3QslliEBEiABEiABEiCBNCPgJNrRBUTIr7+quom2qwC3Cm2nCL1VoEOc47AKdkVjfw+/X1itYiSyj3JNu4yUPbkH8pyP11Z8uiFCeP7EvnLBuWeb3//WYoCcnlXC/Lzys6/M83VXXiQfrlovnywZL7/88oscO3ZMTjnlFLnm7kek9o1XSqdm90hubq6sXLlShq94WopWPiOU0dv/5Q6Z02KY1KxZM5T6/FRC0e6HFsuSAAmQAAmQAAmQQJoQcBLt42e+JFPmvRKJhttFuwr29e/NjvTSLrIvqtk4aqRe69fzraL9f/7nf+S3336Tlt0fM6L9hekDzO+tez4uuXsPyoszBpprTpq9WKY9s1RWvz7Z/P5A68GyedtOadHgDmlWv5Z57eSTT5bLa7WWZvVqm9cg2mc+u0xmLVwmH78yThBhV9E+Yc9yKVk9O5RR279uh4y7pi1Feyg0WQkJkAAJkAAJkAAJkIBE87Rbved20e4kyK2iXctH88CrRx6R8ovOqyT3NsuR86pkS6/29eTw4cNSokQJ6dh/khHtz0/rL+u/3ioPdRwhKH/x+ecY8Y2j5l87yV/r/EnaNalrIu1ZpYrL1JFd5ODBgwLxX6xYMWnXZ5wR+89NzTHn3NdyoCk3blA7+emnn2T//v2yevVqoWjnh4EESIAESIAESIAESCBlCUSzx6gVBdFwq2hHR+B3t3vSo4n2O2/5oxHG//73v42Qhs97+Qdrpf+Y2TJvXC9ji4GQPr9qBUfRjsj6krc+lpzRTzkyRBQdol3F+PjB7eWHH36Q//znP1K6dGl59+N1MnDsXBncvalUPrucNGw/VHI6N5Kbrr3ElDty5IisWbOGoj1l71A2jARIgARIgARIgARIwETa7QtRFYtG1GteWyMi1GFBQSaZaKL95VmDTST8kpubGatK03q3G3GMCDoi32XKlJFZC96Q6fNflTXLppiy97caZER77w71jbhHpL1DvwkmQg57jIr2L96eaawyR48eNU3E84knnignnXSSqUMj6Lt37zb1nH766ZKVlSW1GvaUquecJWVLlzrucf9SXps3zFhj9uzZYyYSFO38IJAACZAACZAACZAACaQ0gWii3ZpBxirakfEFYh7Wl7tuvcZEtP/rv/7LeNAhshdO6WeEdb02Q+SEE04wvyOajYWgWASKx231u0uVSuVlwpAOpkz9tkPNItJJwzrKr7/+Kv/v//2/iIcd9pgvv/rW2GMGdWsiiNxDrENsoyxEO+qEp90q2g8dOmQmCWeccYaMmLjQCH9Yfq694iLp2e4B+fHHHwVlMGmgaE/pW5SNIwESIAESIAESIAESiCbaNTWj1R6jHvS/NO0XEeQg+NWm7fJgh2FSpWJ5eXZSHyPk8VrzbmPNawsm9zXl8UBEHNF6LASFkIfgHzb+WfnkeFaY5QvHGBH96tsrjH0GdhadBMCbvvrzjSY6r4tVUeay6uea3PEQ/hDtY3NaGUGOyD7Ef9myZeX73ftM+3DAklOuTAnjZ0c7cXz22Wcy+h9PS4nKZUO5IX4+fr0JD/TiQtRQaLISEiABEiABEiABEiCBmAtR//HyOCOQ1375jTzcaaRMH9XZeNAhvu94qI/s3X/IEEQEG5FzRNqfmdDLLASFZQWiudEjI2XLd7sipFXEw74Crzui5EWLFpW7GveL1AexDgGO+uY80c20AfVhceqaL77JM2ofLX7SZIlBZB/nTBnROWKfQTtRP86t26SviebPfKy7mRjoYlZMGnCEnae9UqVKzNPOzxcJkAAJkAAJkAAJkEBiCEAg4wFLC4Q1LCg4YHmB+IXILVKkiBHksKbgAXHcotvvUXJEuuEVx8+wp2hZlL/5/q7GnjLw0cZy4MABI9pxLkQ73scD9eM1FdV4xjXwOsQ5Drzv91BLj98dXf1ep6DLM097QY8Ar08CJEACJEACJEACCSAAMQ6bCgQ6hDp+xwPWEfWOq7UFwrl48eIyf9Hf5Yc9+4yvHe/Bcw77CbKy1PzjxcaegnNViEOUlyxZ0mRx+XjNP+Xt5x4zkwFcA6LcKtgh0MM+kBf+uSXv5tn1NexrpEp9FO2pMhJsBwmQAAmQAAmQAAmEQAAWFmsGFS9VQrSfeuqp8vyrH8mzr/w9zyk92t4vt95wqfGSY4EnovUo/9///d/GJoKMMIjU/7V5f9m09XtzbutGd0uHZvd6uXRcZay7u8ZVURqcTNGeBoPEJpIACZAACZAACZBALALqI4dYx89+D4hwRM0RbVevOOpA1ByRdTzURw5xD8HOI7kEKNqTy5tXIwESIAESIAESIIFQCCDiDY85HkGEurURsK5AjEO4w68O4Q4hj4f620NpNCsJTICiPTA6nkgCJEACJEACJEACyScQxP4Sq5VWqwsEO6PoyR9TL1ekaPdCiWVIgARIgARIgARIoAAJIKoO6wt2II03qo5uqB8di0g1ql6A3eOlPRCgaPcAiUVIgARIgARIgARIoCAIIAvL7t27jQUGwj3owWh6UHKpcx5Fe+qMBVtCAiRAAiRAAiRAAoZAGBYYTeNYrlw5RtMz4L6iaM+AQWQXSIAESIAESIAEMoMAxPqOHTsCW2B0F1JNxai7gmYGncLdC4r2wj3+7D0JkAAJkAAJkEAKEPAq1pHJBbuHYtMiPOsuo/gdgh050xOxiVEKICr0TaBoL/S3AAGQAAmQAAmQAAkUFAGvYh3tU1860jIWKVLEPCDcsbGRVaiv27BF6rUZJAsm50j1Cyp77lph2qjIM5QUKkjRnkKDwaaQAAmQAAmQAAkUDgJ+xDqIQJRDrJcqVcrkU+/Qb4Ks/OyrPLCyTisu7y8aL1bRvnnbTukzYoYM7dlc6ta6PiZcN9F+T+M+cnpWCZk1tkeeepp2GSl7cg/I4tlDC8fgFVAvKdoLCDwvSwIkQAIkQAIkUPgI+BXrSghC/eyzzzaC/ZKbm4kKdCtBiOeypUtJg7/ckpBIe0GJ9mPHjplu4vm3334zD/yMByYz2KkVD7yODDvYxfWXX34xv3/00UcyYdFs+e/ixUK52f598JCM6TRAatSoEUp9fiqhaPdDi2VJgARIgARIgARIIACBoGK9ePHigkWlpUuXNgIVwvybLTtMRD3aYY20o4zdKoM6Vny6IXJ660Z3S4dm94o90j5+5ksyZd4rcvVlF5jouh/R3mvYNHnlzY8i17j7tmtleO+W5neI6bpN+sqF1SpK/y4PydGjR43Fp02vJyR370F5ZkKviCi/rm6nPN2slF1WZo7pbF6DXajr4Gmy5otvImWmjewkVSuVMzntDx8+LKtXr5YJe5ZLyerZAUYt/yn71+2Qcde0lZo1a4ZSn59KKNr90GJZEiABEiABEiABEvBBQPOsY1Mkr4d617Ozs/PtTnpRzcZiFcBOdcYS7XbRj7KPT3/eiHKraF+07IN8thqvol0F+xdvzzQCHUeNW1tInZuukpzOjYwgb9BumJxftYJ0b3OfyZSDyUmXQVONaH92Uh8TOb/qjnbSsuGd0ubhuyNR9Nsb9JDFswYaLz8sQnv3HZIXZww015g0e7FMe2apfLJkvOzdu1dyc3Nl5cqVFO1ebzyWIwESIAESIAESIIHCRgA2jZ07d/raFAli/fTTTzcP7FhqP1SMu/nTo4l21Ieoe7TzVbSrvUYj8NoOiPZNW793HMoqFcvLC9MHGEF+2e2tpHn9OtKiYR05cuSIWTA7/ZnXZMazr8nq1yebMg+0HmxEe892DxjRjqw3HftPMt7456bmyJdffSuNO486HnXvIxeff05EtKM+fOOwaesueajjCJk/sa95Xy00Nf/aSe6tfYPcf+d1hv2KFSso2gvbh4/9JQESIAESIAESIAEvBGCF2bp1qyDK7uVQsV62bFmTyjHaEa9o10Wp69+b7XgJFe2wtdgFOyYh9zbLkaxSxWXGmG6RviHi3aLbGCO2IdrRRojpOU/0kHMqnGEi3lg8++32H+ThTiNl7pM95aLzKsl9LQca0d6rfT1jY7GK9oVT+hmRXr/tUNny3S7T1lIli8nbzz1mrDQQ7a+9s1L6j3HuR5P7bzeiHdemaPdyB7IMCZAACZAACZAACRQiAn59617FuhVhPPYYL6I9d99Bs8gVx7svPC6HDh2Sn3/+2dhXYGmBaJ88vJN5HUexYsUiXvTnp/WX9V9vlUaPDI+IdlhUsrKy8oh2eNnvbzXIiPbeHepHIu2wu0D8Q7RrRB255yHOX317RQTDZ29Ok6XLP5F+o2aJWnAg5nHgGY8DBw6YXWUp2gvRB5BdJQESIAESIAESIIFYBPxaYSDWIYIrVKgQM7LudE23hajwk1uzx6AOXYiqP1vtMZqNBR5yWEuuu/JiGdarhfz53o7Ho9vFzaJQlEFEHZYWiPZxg9rJ7t27TfPw7YDaWiDaYVO5onabiD0GWVwgvNUes+q1SaZMvTZDTPrIScM6mmwv+Iahdc/HjaddRTvK4VwsUtVNpJA5p0WDO+RPf7zETA4GdWsid97yRyPUrZljMKlABH/VqlW0x/DjSwIkQAIkQAIkQAKFnYAfK4yK9XLlyjl61r2yRLTdnvJRF45ikWo00Y6NluBLz913wETRIXQ/W7dRpjy9VKaO7CK31usm115xkQzu3tQI4CvrtJUr/lBNJg59xFhSVLSPzWklP/74o1ksWqZMGek8cEpkASkE/qDH58nr766SNcummHpwLoR87RuvlL4dG5rzBj/xtHxyPIPN8oVjjIhHJB0R9cpnlzu+KVRfWfzGhzL/5XeMvx3cUMeStz420fV543oZi02rHmNl1dqvZe1b0yPZZvqOnCmXX1JNbr3hUnPt7du3y6DJo6Void+/PQjj6P5QO6Z8DAMk6yABEiABEiABEiCBRBOAIIRvHakFvRyIrDtlg/FyrlMZe9pGlNEIutNCVHjJLzj3bONFb/TIyIhXHOfBVw6xX6dRb7n60vONZQXC+uvNO6R5t7HGT/7q3KHSsP1wKXVaMRnVu5nxi+OAX737sJkmi8tTY7uaqDwi48MnLDDCXQ8IdlwH18f7WJxa+8Fesnf/7zYbLGRF5B32mJdnDTbXr35T03xdt+/y6sQhmmc/KOtUOY8pH1NlJNgOEiABEiABEiCBtCCArCSI4EK4ux3IAoPIOnKtJ/OAOEYkHfYU2EQggtFe2FxgOcEzDrWVINoNm4o+4z1s5ITzEOnG66gTdeAcq6dd69L3cB52b8V11NaCSLk+kskhk65F0Z5Jo8m+kAAJkAAJkAAJJIwAUhPu2rXLU3QdYrV8+ePR4+PpG/FzMg60DwIdlh0sHtXrQkxbdxCFf1yFNiLjEOu6myjaqZMRq5cc4l3L6Y6kqAdZXxA1h0CHKMdryepvMpim0jUo2lNpNNgWEiABEiABEiCBlCPgZ6GpZoSBYE+0eEW7INQR9YZNBz8n4tDNnhBBhzhHxhiNoifieqzTmQBFO+8MEiABEiABEiABEohCwI93PWzferRBQSQdIh0Pr7ngvQ6wVaDD2qNCPdETEK/tK8zlKNoL8+iz7yRAAiRAAiRAAlEJQBxv3rzZ1bsOQVupUqWE+tYxeYBI/+GHH0KNqKtIx4SjZMmSjKCn8OeBoj2FB4dNIwESIAESIAESSD4BtcNAILsd8Kwj33qiItEaVcfiVy8LX93aS5HuRih136doT92xYctIgARIgARIgASSTAC+8G3btrlGsxOZFQbiHBOGsHzqiKIzkp7kGykBl6NoTwBUVkkCJEACJEACJJB+BLykckxkVpiwouoaTUeaSTyQ0YVH+hOgaE//MWQPSIAESIAESIAE4iDg1Q6TiIWmmgFmx44drtH9WF20CvVkppmMAztP9UmAot0nMBYnARIgARIgARLIHAJe7DCJiK67LSxFznPkUtec6mgDXtO86tjgCHnT8R1hC/MAACAASURBVH5WVpaJqCfKV585o53ePaFoT+/xY+tJgARIgARIgAQCEoBvfOfOnTEXeMK7XrFiRcFzGIf61Xfv3h3zuhDs2LgIOdHxMzY6woFNknBAoOuGRmG0i3WkPgGK9tQfI7aQBEiABEiABEggRAIQztu3bxd42GMdYWaG8bNBE9qE/Oi4frehM2TNF9/ka2brRndLh2b3+qLStMtI2ZN7QBbPHur7vBWfbsh3TtZpxeX9ReN91eVUeNGyD6TPiBkytGdzqVvr+rjry9QKKNozdWTZLxIgARIgARIggXwEsNhz69atMTclQhQbaRwhmuM9/Ip1vV7RokXlzDPPlE4DJsvefYfyCO11G7ZIvTaDxK9ojke0BxH78bIL43xk4Fn56eowqorUcdVlVyQ0J3+0xlK0hzqMrIwESIAESIAESCBVCXi1w1SpUiXujCtBxTrYYcHrGWecYTY7atZ1VNTo+A11O8i5lbNl1tgeBjlEuT0ivv692ea9XsOmyStvfpRnaK6+7AJzbqzztN5Yov2exn3kwmoVZXjvlpH6nSYIF9VsnOf6VSudZSYjX/xzs9RvO1jmT+wrF51Xyfj2+42aJUuXfxIpX+emq6R/l4cEXn5YhRq0GyanZ5Uw769a+7V5LlWymCydM0QOHz5s0mUeOXJE1qxZIyNXzZeilc8I5bbc/+UOmdNimNSsWTOU+vxUQtHuhxbLkgAJkAAJkAAJpB0BCGhE1yHkYh0QyuXLl49rQWe8Yj07OzuPfz5WdFyFuApzlO3c4j6pfkFl002IaRxqh4lWV9DzlGUs0f7SzEGm2CU3N5NWD94lbRvfY0Q5ON1ar5u8Nm+YfLVpuzTpMlrmPNHDiP/+Y2bLa++slNWvTzYe/hNOOEGuqN1Gat94pRHu+L1+26Gy5btd0qLBHdKq0Z3mtVseeFSqVCovY/q2kJ9++slk44Fon7BnuZSsnh3Kfbt/3Q4Zd01bivZQaLISEiABEiABEiABEvhfAhBumzdvdrXDVKpUKS7Lg9cFpvaBgRUHmV8wYXBa7BpLtKsXfMHknIhQt9Y/fuZL8tySdyO+c6/2GKfznDztiIxffP458pem/eSCc8+WnM6NTJQb/Wjfd7z5huC5qTny5VffSuPOo+SZCX1MeRXtiIRjke3Xm3fIQx1HyLxxvcz7l97WUprXryMtGtYx0fIiRYrI9GdekxnPvmaEPLLo3NdyoGSVKi5TR3aRX375xUTfBzw2RzZ8893xenrIjz/+KAcOHKBo518CEiABEiABEiABEkh1AvCvQ7BDUEc7YEWBYI9nAyIsaEUWmv/85z+ekUCsly1b1oj1WKka/Yp2WGZy9x3M0w5rJD6azcXLeYueGmJYQiSjr0g5CUENq8r5VStIr/b1jGhH1puO/ScZ0b5wSj8j0jUyjobBxvL2c48ZqwsEOIQ2RPvT43ubdj/YYZiJup9T4QzZu3evlCpVSr7d/oM83GmkzH2ypxH2KtrHD25vxDkW7g6fsMBE7Z8e39NE2vHNCiPtnm9JFiQBEiABEiABEiCB5BNw86+HkXsdkwK/myJhkoDIutcNkPzYY+AZV586iCNiPmXeK+Im2qOd98XbM40wb9VjrOTuPWii5hDlhw4dMq8j5SQEesP2w41o792hvrGk4LUO/SZERDui5RDnKA/ry6tvr4jcEJ+9OU3Wf73VCHUn0Z6bm2vy0NtF+99aDDCR9nGD2sn+/fsFC3dHTFxI0Z78jxqvSAIkQAIkQAIkQAL+CXhJ5wjBHo8dxusOqtbW6+JSPPvZBCmWaIfYvvu2a80CULXKqED3ItrhF8d5fUfOlM+Xz4j4xyfNXixTn14ia9+abiLrrXs+bgT4/Im9BZMhXRuAvpQpU+Z4lHyUWRQ6aVjHyIZPOAdCH5F2iHZcC6IdNhb0Hx50+NxbNrxT/vTHS4xod7LHIKqP86z2GPTt/lbHs+dQtPv/gPAMEiABEiABEiABEihoAl4WnMZjhwmyyBT+bkTVvUbW7QydRLtTykd9zZrrXLO1qJDXyDsEOsQw+rNxy/fGdjLw0cZy163XGDENTzmONcummDJtez9pBDi84rCdILKNA5YUiPaRk56TT47ncV++cIwR54ikI6Je+exysmByX1n8xocy/+V3jIDXnV2XvPWx5Ix+ythdcMAeowtR8frr766KXB9Rel2ICt88fofdBqJ9bE4rwTce4Dxq8vMm0j7niW5mYoHXV69eLaOWPSWnVTkzlNvz37v3yYTG/bgQNRSarIQESIAESIAESKDQEXBbcBqvHcZLfncr9HjFutbllI4R7zltrmRP64gysMdAfP/8889GUCMq/u32f5nqL6teVSYM6SCDn3jaiGQ9kJFl+vxXZcXSCcZ3/kjORJMrfuaYzgK7CljjwCJS+M2xa+tdx4Xs3v2HzOsQ6xDUKvQh/P/016757snpozqbBbTwtCN7zFNju5nsMRDlWFRqtdFgQjGkR7PItwF/bd7fXGPGmG6mXkw2eg+fbuqybx6FzEFhHrA34ZHsgykfk02c1yMBEiABEiABEgiVgNuCUywyxWZJQYSWl+i9tTO4FhaYBo2sxwsGXnMs/MSzddEoIutoGxaOYgKDMhDkOGBZUdsKfsd7utAU9UDs40B98LOjLhXKmJzAw67WFwhulNcMMVo/BL7VGgORjXIoz8MbAYp2b5xYigRIgARIgARIIAUJuC04jccOg6ww27dvj5l9RpHEG8kPihZCGpMWiGlE09EO9cxDcEOYq5DH6xDu+j7OhbiGcHY6D+/hUNGukwF9HXUhyg6bDCYD+B3CHPXhmUe4BCjaw+XJ2kiABEiABEiABJJAwMti0KCbJcH+sWvXLtfNmNDNghDriIJjQgHftnrTE4kcfUREHeIcEXUIdTz7WVCbyPYVlrop2gvLSLOfJEACJEACJJAhBLxYVmCHgWj3e/iJrscTxffbLvQZbcNDPeV+63ArDxEOMQ5xriIdzxTnbuSS8z5Fe3I48yokQAIkQAIkQAIhEPCy4BSCHZ5yP4ef6LqmbwzikffTJqtQT0REXSPo6E/JkiUZPfczOAVQlqK9AKDzkiRAAiRAAiRAAv4JeFlwivzrEKF+DjdfvNaVDCsMhDpsL2hT2ELdGj2HxQW/80gfAhTt6TNWbCkJkAAJkAAJFFoCbsIaArRKlSpmMaTXw2t0HWIdkfvy5csnzCqCCQnEOuwvEO5hHGACcY5vBGhzCYNowdZB0V6w/Hl1EiABEiABEiABFwLI4ALRHu3wu+BUbSc7d+50FcgQuxUrVkxIVDpsn7rd7sJIemZ9tCjaM2s82RsSIAESIAESyBgCELUQ7Ig+RzsQ/S5XrpznPvuJrqPuRORbDzOqzmi656FP+4IU7Wk/hOwACZAACZAACWQeAbcMMYgq+1lwqikivdhP4InPzs4ONbpu9arHm/0F7dPFo4ymZ969H61HFO2FZ6zZUxIgARIgARJICwIQuJs3bzabBjkdEOxYcOo1ewtE8rZt21xTJSZioSn6AmvP7t27Xa04sQaHQj0tbt2ENpKiPaF4WTkJkAAJkAAJkIAfAm4pHf0uOPWadz3s6Dr6oXnVgy4sRV8xMUE6RkbU3e+ipl1Gyp7cA7J49lD3wmlYgqI9DQeNTSYBEiABEiCBTCTgltIRAhYRdi+b/XjZMRUMw46uow+6W2kQsY7sN6VLl04roQ6xvOLTDfluydaN7pYOze4N5VZdtOwD6TNihgzt2Vzq1rresU6K9lBQsxISIAESIAESIAESiE4A6Q63bt0a1UKCDDHwsHs5vNphwoyuQ6zv2LHD1YLj1H7N+oIFtemYmtFJLK/bsEXqtRkkWacVl/cXjfcybPnK/Pbbb3Ls2DHzwKE/6+snnniinHDCCWbihedmXUeZSPuLMwbKoUOH5MiRI/LRRx/JhMVz5NTiRQO1wX5S7s4fZEr/x6RGjRqh1OenEkba/dBiWRIgARIgARIggdAJxMrB7nfBqRc7TJjR9XjEukbVkaHGT3750AcgzgpjRbhvqNtBzq2cLTPGdBOI7Xub5cjpWSXMFVd+9pV5fmpsNxn8xNNSrfJZ0q3138zE59RTT5Xuw2bK3n2H5NlJfWTDN99Jky6jZdZjj5pyEPDDxj8rr7+7Kk/rq1QsL/Mn9jZrCDARXLNmjUzYs1xKVs+Os5e/n75/3Q4Zd01bqVmzZij1+amEot0PLZYlARIgARIgARIIlcCuXbsE+dKdDj8LTr3aYcKKrgcV6+keVbePE8SzivYXpg+QAwcOyM8//ywnn3yylChRQgY8NkdefXuFrFk2xYj2B1oPli3f7ZIWDe6QZvVrmW9WULZemyFyXpVs6d7mPiPaMU5dBk2V3L0H5bmpObL+663ycKeRMueJHnJhtYrSf8xsee2dlbL69cmmSaijRbcxJtJO0R7qR5SVkQAJkAAJkAAJFGYCbjnY/Qh2L3aYsKLr8Yj1smXLmrzv6RZVx1j98ssv8p///McIcvyMZ/2moGP/SRGxjG9NEOFGpBx2n7c//NwI7HnjesnF558jf2sxQLJKFZepI7sYgQ8hX7RoUanfdqicX7WC9Gz3gBHtEPxaL+wuX371rTR6ZHiknktvaynN69eRFg3ryNGjR6VIkSLSptcTRuQ/M6GXydjDSHth/gvDvpMACZAACZAACcRNwC0Hu58MMV7sMGFE1yHW8a1AtDSU0aBA2KpY97KANm64cVSAcYFgtgpzFetO1YIr+uYk2jGGEO3LP1gbEe0XnVfJiHbYY8YPbm+ENbzomMg82GGEEe292teTw4cPRxXtT4/vbc5p2H6ozH2yp1Q8q7Txr5cqVcqxHbTHxHFD8FQSIAESIAESIIHCSyAswe7VDoMFrNjZNKhgRnQZ9p1Yu7JGE7TIdpOIHVXDuHvADxMQCHQ8q2D3U3c00Q4RrX0f9Pi8iD0GVpr7Wx1fnHo80j5uUDvjO8e4IFuOivbeHepHIu0d+k2ILCzVSDtEO+w1OaOfMlYZiHaIfHDW8rDHMNLuZyRZlgRIgARIgARIgAQsBNxysEMEVqlSxVVge7XD+NmAyT5QfnZQtZ4bRlQ/7JvGLtBjRc/9XNsq2tV7DsH+66+/GnvMKaecIpfXai133Hy15HRuJMj2Ak+7VbTjemXKlJGHOo4yEfhJwzqa8/ENReuejxu7C7zyTvaYAV0fltv/fLmZcOB6Wp6edj+jyLIkQAIkQAIkQAIkYBPsGzdujJnS0UtE3KsdBoI9qHcckWekn0SU3cuBaDEErKZs9HJOIsuoSEc/IKIxyUnEUaxYMcE3GZ0HTomIa1wbD2R7adx5lJQqWUxenTvU+M6xWBQRdYj2sTmt5McffzSedoj2kZOek0+O53pfvnCMyQyDxavwwiMbjFW0I9KOhaiteoyNXBN9W7r8E+k3alakPPqM8fv+++9lyKQxUrRE8dAQdGnUmikfQ6PJikiABEiABEiABFKGQBg52JNhh4HIVVuFF3ipItZVpIMz7C6JEul2Johuw5bSbegMWfPFN/mQNX2gljRvUNuIZ4h2+NwbPTIyElFHu+FPx+QKUfgb/9ZZcvcdNPVUrXSWKac7nGre9wWTc6T6BZVNmXsa95FNW793LO9l/NKtDFM+ptuIsb0kQAIkQAIkkEYEwsjBnmg7jF8rjKZtzM7ONkI02UdBiXR7P5GxJSsrSxBxRxRd1w1AgOPQzY+SzSdTr0fRnqkjy36RAAmQAAmQQAETCCMHO6LfmzdvjmqrQRdhTQlih4H4RXR6+/btMeu3YiwozzomLvv37zfthScdbU/GASGukxRExOFTV796UPtRMtqdidegaM/EUWWfSIAESIAESKAACYSVgz1WlF67FzQ7jN9868kW65rNBZ50CPVEW14gzCHIIcTx7QGi5/pa0Mw7BXgLZuSlKdozcljZKRIgARIgARIoGAJhpHR0E/3omZ/Nl6wkvHrj9RyIdUwMkMIw0YfaXrDYVtMwJuKaVoGO/kGgQ7BTnCeCdnh1UrSHx5I1kQAJkAAJkEChJhCGYPfiXw9ihwniW0c2m0TnWdeIOoQ6Iuph215UoKswp0BP348oRXv6jh1bTgIkQAIkQAIpQyCMHOxe/OtB7DB+rDAQuYiqV6hQIWGRZxXqEOkQ62EKdatIRz9gdWEEPWU+JnE1hKI9Lnw8mQRIgARIgARIAII93hzsWLSKHTKjCdggdpggVphEZoTB5AFCHQ+vOeDd7i5dJIrFoRTpbrTS+32K9vQeP7aeBEiABEiABAqUgFt0HJFxRK2jHV7864gWY6dUP9lK/GyQBOELKwzaGvaB/iGajkdYi0l1oShFetijldr1UbSn9viwdSRAAiRAAiSQsgTccrC7CWEv/nW/dhg/0XUV64nwrWtUPQz7i0bT4eUvWbJkgeSGT9mbsBA1jKK9EA02u0oCJEACJEACYRGINwe7W4Q+SPTbT3Q9ESkcMWHQHVXjjarrbquIpuNBX3pYd2761kPRnr5jx5aTAAmQAAmQQNIJuNlZvHjPw/av+4muw1pSrly5UFM4hhVVB7uyZcuaaHqmpWC8oW4Huf6q6jK8d8uk37OZckGK9kwZSfaDBEiABEiABBJMIN6Ujm7no/l+/eteo+thW2E0A8yOHTvi8qqjXbDn4JFsod60y0hZ8emGfHdN60Z3S4dm94Z6N7mJdj9t6TVsmrzy5kf52nf3bddm9KSAoj3UW5KVkQAJkAAJkEBmEnBL6egmtt3OBzU//nW3iL91FCCI4a/3s5A12iiGsbBUrS/ob0GmZIRQ3pN7QBbPHhrp7roNW6Rem0GSdVpxeX/R+NBuZi+i3WtbINo/WLkuT/u03dYJh04SP/50ZWj9QEV33lo71G9qvDaOot0rKZYjARIgARIggUJKwM1/Dn84srtE8127ne/Xv+4nul6pUqVQBJbfzZnst4ouJsUEIlU86k6iXdsNkX1u5WyZNbaHeemexn3kwmoV80Sync63R8xVRKtoH9arhRw7dkwmzHpZpj69RK6scZ7MfKy7NH90tJlAvDRzkPzyyy8m9SeYnXzyyXLz/V2lSqXyMmlYR3PuoMfnyUer18u7LzwuR48elRNOOEFOOukkufFvneWayy+Uri3vNelD8d6aNWtkzIYXpdg54WQG2r9uu8xsOEBq1qyZ9L8GFO1JR84LkgAJkAAJkED6EIiVIQa9cIuOh+lf9xtdD2ODJORThwAMmgUG0f3SpUsb+0sYkf4w75xYol0tKOvfm+0q2hc9NUR+++03I7w3ffu9EdMYK0S/xz/1skwf/ajcdF8Xue7Ki2Vw96ayaNkHMnDsXOnbsaHUvvFKI8zb9RlnRPv8ib3NYt5Dhw5JiRIlpEyZMkakv/r2Cln9+mQj2nGuivZff/3ViPYpc5fItGeWytwne8rZ5U83dRw5csSI9gl7lkvJ6tmhoNu/boeMu6YtRXsoNFkJCZAACZAACZBA3AS8LO6MlYPdi38dEXpEwr2IWbdovXbYy0JYL3DiiaxrVB0bNSXbp+6lb1omlmiHsO4zYoYsmJwjF59/jtRt0lcuOPdsGdD1Yfn555/NmKnQfn5af1n/9VZ5qOMI6d/lIalV8wojmDHhKVKkiBQrVkxurdfNiPb6dW+WBu2GSLN6taXJA7eZaDg2hurQb0Ie0Y4NqPA6Fg2//eHn0n/MbCPIEe0f8NgcWbr8k3xdhaXnrQWjTft++uknwT2zevVqinY/NwXLkgAJkAAJkAAJpA8BN8HtZmcJ07/uZfKgZBHNjje6Ho9YT+WoutPdZxXtiJQfOHDARLIhtBHZhlCeN66XEev3txok51etIL3a15PDhw+bKHjH/pOM0H5xxkCzMBTlEQ1HPRDNiIJnZWWZbxpuq9/diPYlb30sLRveKS0fvMOUg7iHXUjr0kg7RLtm+ln+wdp8ot0aaUebcU+26jFWVn72lXyyZLzs3btXcnNzZeXKlRTt6fOnhy0lARIgARIgARLwSsBNcLtFst0i4m6C39rOZHrX4xHrmvM9laPqyhX9RAT8xBNPNCLXbkmBgMbkRy0pa5ZNMUJeRXvvDvVNthyIdkTHc/celBemD8gj2jFusKfgWlbRnrvvoFngiuON+SNNPRDt4GcX7bDH2NuCCQEmF2qPefu5x8wEAh54RPPB/9LbWkrz+nWk3t03mDasWLGCot3rh5/lSIAESIAESIAE0oOAF8Eda2Hn9u3bjVCKdrgJfquw3LlzpycfebzR9aBiHX2BqNQMMKk2wugXxCwEOsYVIlgXeEIkIx88hDJE93NTc8z7iIzDkgLxe3mt1nLHzVdLv04PGs94/bZD5fSsEmYxKMrhW4XWPR8358Me8+VX3xp7DOwzsMdAkOPaqM9qj8FC1D/f21FKlSwuz0zoFakLVhuvbdGFqBDtVuG/ccv30uiR4Ua017/nT2YtAkV7qt2ZbA8JkAAJkAAJkEBcBNwWnMZK6ehmp0HDvPrXIcKweBX2iFhHvJskxSPWIXgh1lNpl1L0B+Icfm6wU4HuxBAiGu3vPHBKJFKO8/HY8M130rjzqOOiupi8OneoqQf9HD5hgXxyPKf78oVjTORd7TOVzy4nC6f0MxFwCPu9+w8aXznq+uKfm2XK00tl6sguxtN+7RUXmYWoeO/KOm3lij9UkwlDOpiov4p2RO1jtQWLVtEWqz0G10Yb8W3A5m07jT1GN7z65JNPZMzrsyWrarm4Ph968qF/7ZUnHu7Nhaih0GQlJEACJEACJEACngl48YwjoowIu5NIdbPToCFuGWa0scjQgmg92hTriCe6HlSsY9Khdo2CFuu6sROi4xCnGlH3OuiIfoNht6EzZM0X3+Q7rekDtaRpvdtNvbgGPO5FixaVuxr3Oy7KD5nyEOtZpYob0T/3ye6RFI0PdRwlW77bFakTHnhselSnUW+5+tLzTeQeIv2rTdulSZfRZnKAiQCi9qvWfp2vLa0evEvaNalrXkfEHwcWyDptrhQtt/zWrVu9ovFUDvcBHsk+mPIx2cR5PRIgARIgARJIEQJeIuTYlAgZPJwOL3YanA/RHuvwmsoxnug6roFvE2CZcJsUWNsKsY72F4RI03ZYRbpbFN3LrYVoNTzpiLjD5qKTEESs8UBGF0Ts1S8OuwzK4xn50CG6EW1Hu2CVUZ6oC2VQv4psCG194DwewQlQtAdnxzNJgARIgARIIG0JuEXIIeSQiQURWacjLP+618WmQaPrEJSI4MMj71es45rR+p/IgQ9bpNvbCvEMYY2Hina8BsEOEQ4vOh74Ga8jMo8JEyLuEOU4B6+rgE8kC9b9fwQo2nk3kAAJkAAJkEAhI+AlQh5twamX6LwX/7oXWw6GxeviVachRD937NhhFit6PQrKBqOTC0TS0V4/EwyvfYtWDoxVjEOcIwKvrxW0FSjevmXS+RTtmTSa7AsJkAAJkAAJxCDgxc8da8Gpl6i4F/86ROm2bdtcxbQX8e/UXa+LWa3not8aWU+GULVH0/1MLILe5BTnQcmlxnkU7akxDmwFCZAACZAACSSUgJcIeawFp27ZZbzmX3erR6PrXrzwdmBeJiX2c5Ip1jXDC6LpeCQymq67ssLagsmP+s2TMSFJ6I1ciCunaC/Eg8+ukwAJkAAJFA4CbnYYUECEHB52JyGM7BuxUjB6sbB4mTTg2rpREcS01wN1o33wrcOL7eWAiEXqRkTXEylkVajDV49xSIRQ1wi6bjCkz4nslxfGLBMuAYr2cHmyNhIgARIgARJIGQJefOOxFpx6scN4sbB4mTSgHUHyn/v1res3AokU64kW6ugDuGNiU7JkSeNHp0BPmY9dwhpC0Z4wtKyYBEiABEiABAqOgBffeKwIuRcbi5t/3cukAYQQ9UaU309aRUTUdddUL5QTLdbVo46IetjWF4p0LyOc+WUo2jN/jNlDEiABEiCBQkbAyyZF0RacerGxePGve4nSY1hi+eidhs2vbz3RYl133gTzsKwv6kdHNJ2R9EL24Y3RXYp23gskQAIkQAIkkCEEvEa2owllL0LbLSruVVS75YF3GhIv7bOeh34igo82h3noRk2anjGMujGJQnsp0sOgmZl1ULRn5riyVyRAAiRAAoWMgFc7TLSsLF7sMIj8VqlSJap/2muqRS8+eOvw+fWtB1nM6na7qP0Fed9/+eWXuKPqGk2HUMfCUT8Lb93ayvczkwBFe2aOK3tFAiRAAiRQiAh4EdwQhRUrVswnDsOyw3ix5Pi1qniN2utQe7Ht+L0t4J3fvXu32VU1XvsL2ocFsBDqGA8uHvU7GrHLr9uwReq1GSQLJudI9Qsqh1t5CtRG0Z4Cg8AmkAAJkAAJkEAQAhCR27dvN4Iy1gGhCJuIXSR6sZt4scN4aUO0SUO0dntpm12sh5kRBtfHZCjeNI0q1NG2dM3y0rTLSFnx6QbHoRras7nUrXV9kNs39HMo2kNHygpJgARIgARIgATiJeBF1MbyjXuJzrvZYby0Af10yzJjZeHVYqPn+LXaxOKu+d7BJp4dSjNBqFs5QbTvyT0gi2cPjfe2jXr+b7/9lu89vIYx0ceJJ55oJp54xnHs2DHRMnht45bvpWH7oTJvXC+pWqmcmXB9+OGHMn7JHDm1eNFQ2r53548yfcDjUqNGjVDq81MJI+1+aLEsCZAACZAACRQwAa+WkWjZYbyIYjebidc2eNl0SXF6rdMq1suVK2fylcd76MJS2GCCWmAyTaj7Ee3jZ74kU+a9IldfdoFMH/2oEdN4THxqkUyf/6rUuekqyencSNr1GSdrvvgmz3B9tPjJyIZYJ510klz/l8553q+UXVZmjO4kJ5xwgpx88skyfMICef3dVZEytW+8Unq1ryc495tvd8rDnUbKnCd6SPaZpWTXrl2yatUqmbBnuZSsnh3vbWLO379uh4y7pq3UrFkzlPr8VELR7ocWy5IAoZASjAAAIABJREFUCZAACZBAARLwuiAzWmTbi+/czQ7jZcErEPmJgHvtF+r164uPNVzxpmvUxaTgjf5mokcd4rtZ11Em0r7oqSEmsv3rr7+ayQ38/vgZ/X7zH5/KoMfnSfP6daRt43sEVhUI6Cb33y5NHrjNnNd18DRp37iu1Lj4XBMtv7dZjhme+RN7m+er72wvLRveKW0evjsSQb+9QQ95eUZ/I9iHPPmMEeyrX59sJgUQ8lfUbmMmBYO6NZF/btwmD3UcQdFegH+jeGkSIAESIAESKNQEvEaho0W2vUTXVWhHyw7jpw3RMtTYB9FrikoV6/CFo+54xLE1C0xQCwwEOhaT4hF2Oslk3+jggWw4EOB44Oeff/7ZiHL0rUyZMvJIzkRZtfZrx6Y92uqvgmj3qaeeKkPHzZdX314hz0zoY2wqd9x8tfTuUF+OHDliBDY8/agTAhyiHZH455e+J8sXjomIfJx78fnnREQ7zsWBc6+s09ZMClo0rGPqLFKkiEx/5jWZ8exr8tmb0+TLr76VRo8Mp2hP9k3E65EACZAACZAACYjx5SLNoJvAjBbZ9uJdd7PDeI2u+1ls6iXqr+MfRgpHtcD89NNPETuGn/vLan9Jt/SMTsL80KFDJkoOoR7tAPczzzzTiPbcvQflpZmD5OjRoxGPOc6FeMZziRIlzOP+VoNk09bv5apLz5fJwzuZ+xf3D5hBsN/xUB/Zu/9QnktCcKPeem2GyJbvdpn3SpUsJm8/95h5HcfXm3dEoujnVDhD9u7dK6VKlZJvt/9gIvpPj/89Wv9gh2EU7X5ubJYlARIgARIgARKIj4DfyLY9c4rX6DrEFLzhiBrbD69twHleF5t6nYSgTrfJhBfC8aZs1Kh6mJlpvLQ7SBmrOEe0XDPfuE34Yon2smXLSsf+k4xof25qjhw+fDgSicf1IKoRRYeABqsHWg82or1qpbNMebQBY1C0aFG59p6OcmWN82TqyC7Gg45I+9Snl8jat6abOmGhQUS9/5jZJmKvx5plU4z1RaPoEO25ubmSlZVF0R7kRuE5JEACJEACJEAC4RDwmpXFyQ4DIYUo9s6dO10XVcbKDuNVXHtdbOpnAgCK0dJUeiUMoQoOQfKrq1c9Ozs7ZTc9Qv8ghq3iPIxNn6x8cX/YRTsi9Iiuq7cd5WFTgSi322Mg0McPbm/KvvH3NTJw7FxjY8EBe8yk2YvziHZE/iHaIegxBpgMXHJzM2nR4A7jc7/s9lYRewz6irJqj/n0jamy/uuttMd4/YCwHAmQAAmQAAmQQHACXqPjuIKTHcbr+bEi2H7EtVtKSCXhdRKi/YpHLMcr1iFSMWFIJa86xgQMVaCjj0Gz3Pi5O7FTK75B6Txwiom0vzB9QJ4UjLogFSL7qYVvyqyFy4w1BRsbvfLmRzLgsTnSrF5tafngHfLVpu3GxjLw0cZy163XGEF+6W0tTXMguBct+0CefnG5PD+tvxH0eKCOfqNmmRSO8Lnj56XLP5HPl8+ILET9wy3N5c5b/ijIFw9PO7z0sMqcVyXbTC62bdsmwyc/LsVKxp9lSNk90rAFUz76uZFYlgRIgARIgAQyhYAfoeyUPcVPdD2W79xPdN3LYlOvkwiMY7xZYeLJBJNKFhhdKAuBvm/fPiOSg9pb4v18YHEpJjDdhs7Il6pR6+7R9n5Zu36ziaQ3faCWEejI7AIhD9EOmwtE9bBeLaTPiBmy5K2PI81q3ehukypy/XuzzWsX1Wycr8n23U17DZtmxLwed992rQzv/bv45+ZK8Y44zycBEiABEiABEnAkoJv5wMoSa0Ggnuy0INPrItFYotjPpMFLKkc/9aFvXuqMdgsFFeupYoFRUQ7bCUR62BaXeD56sL2ULFlSEHHHNw8Q4oiQ46GH2ljiuQ7P9UaAedq9cWIpEiABEiABEgiVgNeoNi7qZGfxI4xjZV/x2g6vkXCv9aFfsRbBusHGdZAZB0LXz4F+wAIDMVoQWWCsVpeCFulggQe84Yiq6zNeU195POk1/YwLy7oToGh3Z8QSJEACJEACJBAaAc1mAsHp5YjmXYdX1802URDRdS/98joBcOITVKwjUqx+9WQKUXsk3W3MvNwTfstoukUwsApz/JxMFn7bzfJ5CVC0844gARIgARIggSQQ8BMZR3MgpipUqGA8xXr4qSOZ0fVk5FyHWMe29Hj2c4BDsncshTBXu0uyFo3qPQOBrlFz2FoozP3cLaldlqI9tceHrSMBEiABEkhzAn6EtnbVnu5Qve/bt293zRriJbruJRruxWfuxwoTNOd60Mi6inWn/PNh31IaTcfkBQtIEx1NV0uLinKK87BHNDXro2hPzXFhq0iABEiABNKcQBCx7hQd9yOMo0XX/bTFi7j2Wx+EM7418GPFCJq6EQywWRSeE3noRApCPZHRdBXosLagTxToiRzV1K6boj21x4etIwESIAESSDMCfgStds0pOh5WukS/or9SpUoxc5QnOud60B1MkyHWMSb79+9PaJYX3AvoC2wuWCxLe0ua/QFIYHMp2hMIl1WTAAmQAAkUHgJhiXW/9USLrgcR/fB+Rzv8iP8gC0399lvbGcu7H8bdh0kEounI9JII24suEsW3EfCiF0RGmzA4sY7EE6BoTzxjXoEESIAESCCDCQTNE24XmxCt8Jrv3r3b1bcOnNGEsV/x6+ZdD7s++63gt/5kiHXdrEqtL2HevhDlsLjoglGK9DDpZnZdFO2ZPb7sHQmQAAmQQAII6MLDHTt2+I6+2hdIqkCEWPeywRK6E01oIxqMxape6nHzrvsV035zrvudpCRarOuYIkNNmB51tbsgko6HH19/Am5dVpnGBCja03jw2HQSIAESIIHkElChGcQqYc8T7nc3VPRU67DbWPxYV2KJfqXppz6/VpggkxRtc3Z2dqj2ERXqGE9E1fF7vIfutIqJFT3psWmu27BF6rUZJAsm50j1Cyr7Rn9D3Q5y/VXVZXjvlr7PTccTKNrTcdTYZhIgARIggaQSCGqBsQptpHGEoAsSpQ/LCuMWDfebXtGPn1x3AvX6TUAiI+s6nhDrXr6VcLvZMD4YX0TSwZjR9P8j1rTLSFnx6YZ8CLNOKy6ThneOiPbN23ZKnxEzZGjP5lK31vVuyM37FO2eMLEQCZAACZAACWQ2ARWZapfw21unyDpsF34tNU5WGL/WErdouF8rjJu1xs7KT+TeKtbDTN1ozfwSxoJSiHOIdEbTY38yINr35B6QxbOH5isYdqT9t99+kxNOOEGOHTtmroXnrVu3ypK3X/f78Y1ZvvH9D5qxT/bBSHuyifN6JEACJEACKUvAukkOorBB7BJOYh0LTH/66SdfUV2nKHaQKD0iwOXLl3dM46hWlZ07d3rqq0aUUZ+XaHJQsQ77TxiiKAivWDcnxkRtL1xAGp2U9XPTotsYI9pfnjVYIKrxnorrrzZtl4bth8ozE/oYgf1gh2Ey54kectF5leT+VoPk9KwS5iKr1n5tnkuVLCZL5wwxP+Nzdlv97nLtFRfJgK4Pm8/W9Gdek9nPvymXXlxF+nesZ9YmrFixQp747lUpWrlMKH939q/bLtPu6SU1a9YMpT4/lVC0+6HFsiRAAiRAAhlJIB77iwKxi/Wg+cajRcX9CmA360rY9VlvDL9141yIYEww1EYUz40WdGMmp2uCoy4ixRgXpkPF9y+//GLENh5qJ8Jr+Flf//XXXyMTP7wGbmeeeaY8kjNRcvcelJdmDhKUwXlHjx41ovubb3fKQx1HyNPjexvR3uiR4Ua0X3z+OXJfy4Gy5btd0qLBHdKq0Z0mgn7LA49KlUrlZcKQDnLSSSfJrfW6yXVXXiyDuzeVRcs+kIFj50rfjg3lpmsvEdyDhw8fNqJ9wp7lUrJ6dihDt3/dDhl3TVuK9lBoshISIAESIAES8EAgLLuEijoVm0EnAGGJdTcrjF/fupsP3i7WYSfCNbwe9smO1/Ps5cKMqlutL5kaUQcvFd4Q3yrMVYjr70HHwyraNVJurWvG6C5GuEO0WyPt88b1MqL9by0GSFap4jJ1ZBfTNoj0AY/NkQ3ffCcLp/STE088MSLa69e9WRq0GyLN6tWWJg/cZu4/PNCXVatWUbQHHUSeRwIkQAIkQAIFQUBF3aFDh+LeKAfCGNFX2Dgg6uIRjGGK9bJly5o2OVlX/Ip1N/FvF+vIvoKH18NP/bHq1M2P/NqP7HWq9QeTr3QX6hr9xsTUKsh//vlnE+3W972OVZByTpF2RNjRHjyffPLJsmnrLlfRPn5wezlw4IDZeGr4hAUCS81zU3OMaEfkHZH2JW99LC0b3iktH7zDlMV9eOTIERO9X7NmDUV7kAHkOSRAAiRAAiSQTAKaVhH+dIjWIB51a3sh7KzCWKP1QQRjWGId7YtlhfEb+dcJSTQfvJVHEBtKGGI9rJzqmkMdC15POeUUTz79ZN6/sa7lFCmHKNfX473X4+0n7kl8Vjr2n2TsMRDasKtg0oy2YQHvt9t/kIc7jXSMtP+1eX8TaR83qJ3s379fihYtKiMmLswn2nP3HRRkosHxxvyRxseum2LBO0/RHu9I8nwSIAESIAESSACBMKPp1uZZLTB4HZMALC4NkoXELvxRX9BMNbGsK0EEtZsPXpn4zTaD85z67fcW0Kw5QSZJei3No45vSsLwz/vtg9/yVnEOUa6Tz3jtK37b4be8VbRjIer8ib3NZwafHUTJMVHavitXGnceFZdoR6R9WK8W8ud7Ox5fqFr8eF29zOQAQh+8Vq5cyUi738FjeRIgARIgARIIm4CKdPxz1g2PwoowqshERBDi2G/E2t5XrQ9CURc0BhWhsaLVQcQ62oPIOtoW6wgq1lEvoq5BF3KqtSeeb0tSfUFpuorzaPdLsWLFpEyZMtJ54BQTaZ83rofJoAQxDdEOG9eOf+2Vpl3HyNwne5pq4G+3Zo9BpH1sTivz2UN9iLR/vXnH8c2Y+kY87cgeM6RHM5OR5vJareWKP1STJwe2NYIdUf2PPvpIhj03SU6velYof34O/StXxrUZwIWoodBkJSRAAiRAAhlJwCpq8E8c/5DDjjba7RKoHyIjyA6oOghOCy3jySwTTQAHqdOrVSWoWIdQrlChQiCxrtamoN9oWKP7OvFKlQ+G3st6DyfiXi6IvupaCjzDzgLuXQZNNaIdkXZMKJEFBg941CHAIdTnT+xrmovFpPgZu6P+pWk/Y4+Z+Vh3I9Bx9Bo2Tf65cVsk57t9cyXN+w67zPuLxkcQ4PMb9hFGSlK/bWLKR7/EWJ4ESIAESCApBKxWF4h0/MMPK4pu7YDaJXRHyzCEOuq3Z5XBa0Gj9bpI0ilaHUSsa/sqVaoUU1DHU3d2dnagBZ1Br2kdUyf2SblpHS5iFei4hxEBDnuymYi+qQCH11+/IcEzfseBn1EGD33NS+7+RLS1sNRJ0V5YRpr9JAESIIEUJGC3BEDMJEvUWIUdxFRYWWVgpbEK1ngixtbIvz2jSZDot4p1N0EdVDh79cQ73YpBJzRalz2jT0Hd7ro+QS1bqSjQVWhDeOOBdIp4DdFvfY8CvKDuoOjXpWhPvTFhi0iABEggYwhoZNyeD1qFuW7UkowOWxcgQpzgCEOoox4nwRiPCNW2OonrRArqIH54rxMBpzGOJ1Wm1lfQUXWd8GkUPcji5LDvf7soRyScgjxsysmvr0BE+9atW2XcuHGh9rZZs2Zy9tlnh1pnOlWWKjNizNYTecTbz3jPT2TfWDcJpAMBFeF4Rr5n646IYW/OEgYP6yY5aHPYC1btgjGeqLqKf3ukXjkEnQR4iX7HUzcWFPr19wZdgKssCjKqriJdN/BJhGXLy72vEzuIcfzvxUJNRsm9kEvfMgUi2t977z1ZunSpVKtWLRRyGzduNHVdfvnlodTHSkggGoGwRH+89aT65MjvHRQvD7/XS9fyLbt3kP+UDm8b9VN+OipTR43L4xNXAQJBjsMqSApKnPgZL2s0HYvXkFECIgsL0cJqv2aB0cWNGi3GNZAfOsh1tE5rZhnlj/bv2LHDd3pJiHWk1cNztCOoWMfEAm2FYPdzBL2eXqMgoup261SQ8fXDyFpWPePgrX5yiPN0yykftP88Ly8BinbeESRAAiSQJgT6TRslB+8KJ20Zulx8yfcyuGX3NOm9czPV8w1Rgx0WkZUCwhAR9TBtCjoZgAhWb7lOBoIKdfQI9WqqRevkVSPRQbLWQNi6Rb+DimcV637ym8drgYllFUrEzWtdAB2Ef9A2WSPnEOUU50FJZu55FO2ZO7bsGQmQQIYRKOyiXUUNIo4QjxrxhLBK1GI/e2RXU03Gs7mPmTAdF9ZOm/sEFdNaZyyxHo94DhLhDsMCg2w59m8fEvGx1mg6JmCJupfsEXQwxX2sthb7QuNE9JN1pjcBivb0Hj+2ngRIoBARKEyi3erNVSsALDuJzixjtddAVGOCoEI93qirNVpvtazE64NXQR3NqhJv1N7vzqHxTDxiTWjC/KhrhheMadjfytjbqeOOcYJAhzinJTDM0Sw8dVG0F56xZk9JgATSnEAminZr3mdYWyBmIM6tWWcS7SG2CnXdEVSFZxheeLsHXm/DRIvbeOr3YrGxfpziieKjnkRbYOyWl0RF03WyqeIci0TpP0/zP7wp1HyK9hQaDDaFBEiABGIRSDfRrtFELJyGOEemGfjO8Ui2MI8W/YRIh0CFiNP0j2EIOhWhiH6jfmURb1TdSyQaYj3IwlWt223xql2sY8fSoN9CRJvQhPGXwLpAGO1LRHpRaxQdC5Mp0MMYOdYRjQBFO+8NEiABEkgTAgUp2iFOkIlFxSd+hvjGMw4IcwhxjZRrOas4L0jMdnGF9upC0jCi6do3JxGq4hHiFoI6yDcHbpHoeCwwQcR6PFF8LxOPoPeKsoY3PcxxtY4v7C2YiFGkBx0lnheUAEV7UHI8jwRIgASSTCARon1o6555enHs2LE8vyNtYhCRmWQ0+S5n9xGjgHqXw/YwawYbjdrj9zDSQKLNbpHooBstKTAvOdy1bLwWGBXrbrux+r131J8OoR50UhTtmoyk+x2NxJZft2GL1GszSBZMzpHqF1RO7MVSsHaK9hQcFDaJBEiABJwIJEK0p3vKR+VkF+kQconcRl6vB6GOhZphCnUV606pIPGeiuddu3aZbwuCTKr8iPV4JwZuE48gn3b0GSI9Edle0F6MqS7wLeyLRnsNmyavvPlRZJjuvu1aGd67ZZBhi/scinZ7WCVupO4VcHMld0YsQQIkQAJ2AhTtvxNRwayL/FTIwooDX3oYnnSnu89NqIfhm4ZQtE4ErO2AeFbbR5Ac9H7EszWqHpQn1jFoysYwhK+1/0HbFGtc1fLC1Iv5KS1a9oH0GTFDhvZsLnVrXe/7j7Pa6OySE7/jgc8uymAxui5IxzMOvI738a3f15t3SMP2Q+Xp8b3l/KoVzOuwuuE9/TuAe/fw4cPm7wDq/uSTT+TJJXOkSPH/9t1upxP27fpRnho4TmrUqBFKfX4qYaTdDy2WJQESIIECJFAYRbsKZU2TB+GGf9CJFOfWIbZnlsHvaAMEui6+DBLptl8D4lZ3WLW+p9YPRNWDClU/4lmFcTx56HUn1jBSG8Y7UYn2cdX86Iioh9HOAvyzkLBL496DYMbnDZH2viNnypAezeTOW/5oxPDN93eVa6+4SD5avV5y9x007WjR4A7JLl9G+o+ZHWnXzDFdpWqlcmay/VDHUZJVqrgR5qvWfm3KlCpZTJbMHmw+V7hm92Ez5bMvN+fp10eLnzTnQ7Q/1HGEzH2yp6mzXZ9x+cp+8PLj5lu23Nxc85lZs2aNTNizXEpWzw6F1f51O2TcNW2lZs2aodTnpxKKdj+0WJYESIAECpBApop2FcZ41ugafoYw0H/kQSLLQYfKLuhQj30r+6B1W8+LFVWPd6EnrqNpG63Za5zaHYbdRi0lyJYTb6Q6EdYXuzc93jaGMf7JrANM8UBkWrPo4BmiFod+zlBGX8PPmPCdeeaZ8vcV640QH/hoY7n9z5cbIX97gx6yd/8hE/W+sFpFmTJ3iUx7ZqlknVZcli8cY+q9r+VA8zl+dlIf89mu12aIbPlulxH3LR+8w7z2QOvBpszT43vK0aNHpcugqdK+cV2pcfG55jr3NssxdT0/rb98+dW3EdF+7jnlpX3f8Y5l5z7ZXXThN0V7nHca7TFxAuTpJEAChZJAOop2iCUV4/gaG/+c8axZZpKZjz3aTeO02NCaAjKob9zperEsKmFs4uRHPMebcQb98xPFj/WhTZRQ14mR28QlXf+g2MW4CnG8rkI86Dc0Or5Ooh2f4VvrdZPrrrxYBnVrYiYEX23aLo0eGR6xruB8CH1E4t9aMNoI9PtbDTKR9qkju5hoOOpZ9t5qU27OEz0EQhyHpoaFaJ/41CJ5ful78u4Lj8vn6zdFRPt5VbLNdZ3KvjF/pPzrX/+SvXv3MtIe781N0R4vQZ5PAiRQGAkkW7RDAKoXVRda4p8sDhXbEG2IjuHZmvJRBTpEugqLVBkz9AX5tLEBDuwR+BnCRheuhinS0WdcDz51POx5vMMQ6noNWGwQ6Y7lH9eoejzpJ3E9r1F8N6EOixHaEo+wtF4jFutUuf/8tEMj3xDgKshxn+rr8Vqz3NoSLdKuoh32mH6dHjR/A77d/oMR1IjG33L9737vWQvekJdefz9P5P30rBIyfnB7Y1/BNx7f7dwTOa/OTVeZvyN1GvU2UXzr8fnyGfLFPzebiQHsMRece3bUsmuWTTH31Y8//kjR7jbIbu9TtLsR4vskQAIkkJ9AIkT7kFY9HFEXQI6ChA25PbNMokW6imj1didKqKt4xsQDE4JoYj1Z6Se9DGAYHn37dSD8wCAd86YXtCh3G7Nooh332m31uxtPe59HGhjxDNH+cKeR0r/LQ0a0I7L+1MI3I6Idf1M00j5uUDsj2jFx3vb9T+Y8iP27br1GLru9lVxZ4zwTjcfkAJH2qU8vkS/enmki7RDt88b1kovOqxS17KdvTDWiHQ/aY9xG2eV9ivY4AfJ0EiCBQkkgEaI9U1I+Wm8IiDiIDYhmZJhRqwAi6IhShhXVtd+EOjlw2gU1TE88rmNd7Bntw6BR/HgWlXqdGMT6QKpQh4AK61sM9D+dsr0gSo6+F0S0POgfS4hufJZgj3n7w88lZ/RTxgpT+8YrjSCHPcYq2rfu+NFEzAd0fVhuvu4P5rKzn3vLiHa7PWby8E7mswhrC+wxAx6bIxDaS9762FhlPntzmjkf9phJsxfnE+3w0cMbjzY5lcVruN92795N0R70BtDzKNrjJcjzSYAECiMBiva8o642Fwh0iAsIdBwqkBIp0LUl6iHXvN4a7VahGuaGP5o3PFZUPaxsK3688U6fxbBsONa6U12o26PmiZ4kJvpvIO4BRMLLlCkjyz9Ym0e049qItF9z+YXSs90DZmIM0d6ky2jJ6dzIiHZE1ue+8La8fDxd5JvPjjLfBGFhKuwxM8Z0i1jsLr2tpdxx89UyuHtT+efGbfJgh2HmZ+SDx+Tgkpubma6ue2eWIE97g3ZDZP7EvuY1/IyMNlq2+k1NzeuIymNyjs/Dd999JyMnPS7FShYPDVmb+k2Z8jEozY0bN0q1atXk8ssvD1oFzyMBEiCBlCdQmEW7CnMV6jpYic7N7nRTWMWjWl9UpCIVJXzaYUXzYy1c1bZZF3HGm2XHy8Qg2gdFGWgu+TD81qkq1LWv1l12wxrzVPhDhPsOUXDwf3LWKyYarocKbKR81IWoeA8LUVVE33P7daY4rC3PLXlX3l803vx+T+M+smnr93m6aN+syb6ZU+tGd8uUea/I+vdmG9Fu3RE1VtlU4Bh2G5jyMWyirI8ESIAEEkQgk0W7NWoOfNFSPxaEMFLbC6LpeGACgcNueQlDpKJevV52dna+hatWoY7rx7ugVK+HfgVJ15jpQt0aPYfdSEV6WGOdoD8VearVDE7wh+u9i2dMOHHgZy2jr8VazBxPmyHaEWmfNdZ5LU08dReGcynaC8Mos48kQAIZQSBdRbs97SN8qrrroWac0QwzBSHK7TeHUwpIvJYokW4V6rEWlarlRjd2ilc4Bo2qh7Ww1crdupi0IHOoq+9cMwmlwv0Y7Y+XXYxDfGs6VVjFdCKcKAEe5I8qRXsQav93DkV7fPx4NgmQAAkkjUCyRLtGuVVMQqRZUz1CdEMIaKpHa8pHfKWOA15SFQupmPbROmhOIh3vqyc5rJ1Po00O3IQ67CZ4hCEgrSkR/YjjRETUC1qo6yQIAh1R9LAWyYb1B8H67ZMKcjxrlFxFe1jXS0Y9FO3xUaZoj48fzyYBEiCBpBFIhGi3pnzMpDSPsQZFs69ANCJNICYkVm88fOlhCGSnNlitNtEWlEI87t+/33jj4/WoW6P49qw2bjduIhbTQnCWLl3acPczaXBrq9v71jUHqSTQVZgjMg5rCvjoz6kUIXfjy/eTQ4CiPTmceRUSIAESiJtAIkR7JqZ8tILWBawQiMiEAWGkW7knywKhkwT1xNvFmNX2op7peG8WL5MDp2ugLZgsILIfVuQ5aHQ/HgZqc9G0l2FMfoK2xxox1/swFa0rQfvH85JHgKI9eax5JRIgARKIiwBFe3R8dmGknl6IULU/JGsXSbQy1oY/ico0g+tqthVE8XXRodtNByuTCvWwvmGwCnX75lJu7fH7vjWTS6KsTF7apBMljZRbo+dezmcZEnAjQNHuRojvkwAJkECKEKBo/7/MKhBEmg1DF2RqxDqZ4lxvDbsv3mr90PZoOsiwIth67SCWk7AtOGgLGGgWmkQK9UROerx81J0i52pt8XI+y5BAUAIU7UHJ8TwSIAESSDKBwiDa7bYBzYahi+5gbbFumhRvBpWgQxgtwwzqS4Z/2q/lJBEWHBXqujtrooS6tl2tLmF9G+Bl7K3Rc/TTugjUy/ksQwLJxSHgAAAgAElEQVRhEqBoD5Mm6yIBEiCBBBJIZ9GuohuZaSDENe2jCj+n1I8qgBOI1HPVXkV6mBsr2RsHwaiZZtwEciKj0erR17zuYS+YtIv0ZPnRrQJdd9h14+z5BmJBEgiBAEV7CBBZBQmQAAkkg0AiRbtTmkf0yZrqEb9DbOOwlv/tt99MBBJiS9/XNI/pkvbRPn4QbbqIFZlO7Duf6iJWFceJGn8/O4KGncfd2ie1vsArDzZhCvWCEOn6jY4uTtbnMPuVqHuC9RZeAhTthXfs2XMSIIE0I5BI0Z5mKEJtrjWKDvGmotS6wFFztifamhHLG2/vdCKj6biWn8i+nwEpCJGukXNrFiEKdD+jxrKpQICiPRVGgW0gARIgAQ8EKNo9QHIpotFzfdYMHxDjiJ4jkwq80/gdPyfjUCEJ60usKHaiF7Sir4nY8ChRfvpoY2O1ubgxTcb4puM1sAnSpq3fy9CezaVuresjXVi07APpM2KGVK10liyePTTy+viZL8mUea/k62rrRndLh2b3+i6HE26o20Fy9x2MnJt1WnF5f9H4PNdo2mWk7Mk9kKct6cjba5sp2r2SYjkSIAESKGACFO3eB8Cefg8RdFh9VIyrOE+1TDPWHiYrlaEfC46XESgokY5+WK1MXtrKMs4EVLRffdkFMmtsj0ghfd0q2iGcV3y6QRZMzpHqF1TOI9CXv78mIqi9llu3YYvUazMo38RAr/3spH5y8fnnGItes66jjGh/edZggU0PD/uxbds2WbT81VCHukX9xmZ9SbIPivZkE+f1SIAESCAgAYr2vOCsqfd0m3dEznFAlGv0vCCEubWlsRaxOol0pIZM5K6d1o2X1A4U8JY0p+lGRliEG9bmULHao+sNINLDaH88fc+0cyF6IYbrNukrp2eVMGJ8/sS+RiR/+dW30qDdEIGQh1B+aeYgwdqVP9zSXO669RoTlceCcjzwOp6PHj1q1j/gc3lF7Tam3JAezcxnE+/hwLOWw9g2aDfMtGHhlH5y5MgR81nG57tIkSLyQOvBpu4Fk/uaMm17P2naMn9ib/nhhx/MfgP2Y82aNfLEd69K0cplQhmu/eu2y7R7eknNmjVDqc9PJRTtfmixLAmQAAkUIIHCJNrVb6z5r/E7/klbNwzS9I8Q5fgZzwWVAtIu0iEoIUBiRX7tu3Ym0i/v1YLj5fYuCJEOcY7IJvOhRx8hvf+tnwV9zf4Zse5toOVRM+7bMmXKyIMdRsiF1SrK7p/2yhmnnyaDujWRnNFPmc8gXoNQhqjGcWu9bpJ1Wgkj4q1t0AkcvuEqVaqU1GrYM2o5lIUox/WvuqOdNK9fR5rVr2WE+OHDh6Vo0aKCbEWzFrwh0+e/KmuWTTHivU2vJzyJ9gl7lkvJ6tlebm/XMvvX7ZBx17SlaHclFaXAxo0bpVq1anL55ZcHrYLnkQAJkEDKE0h30W5N+6jZZlSMAz5+hoDAe+onL+goudtNYY32a+TXKU0g+qOLWRMZRdf2+lnQGquPybLoWNsQ5gTDbfxS8X2r8NXPgT7rxA6/J2KyiolR6dKlI6L96ssulH6jZsnat6ZLjVtbyDMT+siTM180QvnZSX3M5/W1d1bKkCefyYNy4KONpfaNV5pIOdqMz8Sb//g0Zjlkntry3W55qOMIGdD1Ybn5uj/Irl27TB0Q9OXKlZO3P/xcBjw2R+Y+2VMuOq+StO75OEV7om/i9957T5YuXWqEdhgHRXsYFFkHCZBAqhNIhGgf0ur//KroP6Ji1mi1pnBUryjEoPV9Fd3W1I44B+URCUNkDr/jHE0DmQrR8KBjrQtYo0XRdZIBUYXoYTIEuvZFxS7SMgbNL57ojDR27tbUi5m8aFTvC/Qf94bat/A77pNECPAg97hVtF9w7tnG8vLX5v1NVbDLTBvVVVp0GxMR7ZiIYgzxucCjVY+xsmrt15FLQ7j3eaSB6a/uYBytHKL5G775LqZof+ejL6T/mNkU7UEGN+g5FO1ByfE8EiCBwkwgEaJ9cMvuhRlp1L5bI+gqhu2ZXTR6rgIMXvREWlycBK8uIg3q7U6mRQftzzSRbo+K672A1zUansx7It4Ps120Q0hPnvOKzHj2NUH0HJ50CHNE2uErx/0DPzqE+Mknn2zGF+Icj74jZ8qStz6WVa9Niqx7iFXu0zemmuZfdnurfPYY3N+w7ag9ZvXrk01Z2mPiHXEP51O0e4DEIiRAAiRgI0DRnphbwinTjHUzJWvGGfycbHGuvfa6oDUaJbvVRX9PDNXfa0339IvWb05UkGukPJXWUYQ1hlbRfn7VCsamAgZ1GvWW158ebsZTF3/C0772y2/kpdc/kJzOjcy3ahDwEOyws0DsT3tmqcx5ood5/cXX3o9ZDpYXXLNemyF5FqKqvQafydvqd5cqlcrLxKGPmDLt+oyT3L0H5bmpOeZzCSsN2quLW3HuypUrhZ72OO4QivY44PFUEiCBQkuAoj340NszzUAA6C6YqNUuzNWyUJBR0nhEulWgJ2tjqHQU6U6iPBXGPvidHt+ZJUqUENirHuo4yghoWFvUlw4hjiwwj+RMNEIZGVuQnrFF98fNRbE4VG1xuHcvr9VarvhDNZkwpIOncuMHtzfnf715hzTtOkaqVCxvxDgOCPT7Wg6Uzdt2yoqlE4yXHpOD9n3Hm7a8OGOgORfjiWeIdowjPr8ffvihDF8wUUqUOz0+OP979oFde2Tio8O5EDUoTXrag5LjeSRAAulEgKI99mg5CXOIDPxzh5/e6iXGP3f9p54qHns3v3y03qvw1G8AkvlNQLTdZFPpc6UTGOv4Y+wh/JK1gVYq8YjWFowl7FaItj/cabScVyXbiHawwucH9hdYxFQoPz/td687zsMiVfvR6sG7pF2TupG1LRDe1W9qmq+cfQMmLaB52fV3+4ZOeF1zvzv1af17s9MBu682MuWjL1wsTAIkQAIFR6CwinbNOmNdyIafVTBAlOlCWGvEPJXtC3bbiNdUhirQNZ1eMgW68oZws+ZIV/YF98kQE2HVsVc2Vn95QbYt0de2pkfFtTQtqj7j3tKx09f0HHyO9POV6HbGUz92R73+quoyvHfLeKpJ+3Mp2tN+CNkBEiCBwkIgE0S7XWBo9hlE8iAudCMVFeJ4HUeiUtwl496xLr602nLcxK51oSuy0BSECNXoq1vO+WRwdLKyJHvSkuh+2ieo+rsKb4hua5l0ENxhMOs1bJp8sHKdvL9ofBjVpW0dFO1pO3RsOAmQQGEjkAjRPrR1zzwYnVI8agG1kdjFJr72xmua1tH6vqZ5VIsK3kvlCHi891SsRa3R6i7oLDTWdqXCbqNWP751V1t489Px0Ekb2q6pEVWEw76F99Ml4l2Q/K12mWiWmoJsXzKuTdGeDMq8BgmQAAmEQCARop0pH4MNjNU/rykhVbA71WiPEhdU5NzaNrtFx57SMhgZb2dlStTcaR0FXtOIeNB8+d4oslRhI0DRXthGnP0lARJIWwIU7ckfOhVliIhC1GpkFD/bD7uvGt8opJJ9Q6PoybS6WD34+EYBkxV9LVUWAEe7q9R6opMZXXdAQZ78zyGv+DsBinbeCSRAAiSQJgQo2sMfKKswgxiDMFNhbo2SRttEJ1XTA1q96LrxkpuHPihdZaMbNRVkLnu/fXCKlGP8dewTxcxvO1meBCjaeQ+QAAmQQBoRoGj3P1h2UabeYaswR62aeUQFqNVLneoefLW5aEYXr5lo/NJMxwwt0US5vk5R7vcuYPmCJMBIe0HS57VJgARIwAcBivbfYcXKsGHNpqGLY61C3Lq9fKqLcadbw+pDh0jX3O4+bqOYRdPRa85oeVijz3pSnQBFe6qPENtHAiRAAv9LIJNEu0Y4rZkzVJAjG43+DBGpuaXxOrLbQGzj0DSQ6o1GdBxHqnulvdzQdi+97t4aRmQ42i6guvtrKvLzamPywpZlSCBdCVC0p+vIsd0kQAKFjkAiRLs15aMKQifRFk0sYstwFVSaWx2iGq9BYON9TSMJ0a1513XwNNqdKWLb701pFeeawz1e64b1mwWnXUD1fb9tTUZ5a9RcF/7qWoMwJizJ6AOvQQKJIkDRniiyrJcESIAEQiaQCNHOlI8hD5JDdbHsG/otgt9WRIuWp1NmFhXl0Rb/+mXC8iSQ6QQo2jN9hNk/EiCBjCFA0Z66Qxnmgke7ILf+ni6iHCPlxCRMm0/q3g1sGQkkhgBFe2K4slYSIAESCJ0ARXvoSD1XGIYot4tvuzhPx4WxdnFu3WiKGwt5vr1StqDuQjq0Z3OpW+v6SDsXLftA+oyYIVUrnSWLZw/13P7xM1+SKfNeyVfeaYfTG+p2kNx9ByNls04rLu8vGp/n3KZdRsqe3AO+2uC5sSlYkKI9BQeFTSIBEiABJwKJFu3wnCMlom61jp/Vlw5BefToUZMaET/jdZQ7+eSTzTPOhX8dZfCAlxr+da0D/cH7OBfPqXJYxbh6862b6ETbXt6++NW6KBY/4wAHMDhy5IhZHKs8tO9ggYfd558qbKztSITFJxX7meltsq5Xsf6si7vRf7yufwfubZYjm7Z+L1dder5MH/2oeQ+f/b+1GGBeh2h/ccZAcx9rHbjv8RnH3wb8XdDF5i27Pyar1n4tz0zoIxdWq2jue7w/8alF8s6Hn8nT43ua3zdu+V4e7jRSqlQsLy9MHxAZElxz87adMueJHnJ+1QqmHW17Pym5ew/Kgsl9Zf/+/YK9AuzHihUr5Imls+WUYvk3RAsy3vt3/SRzB0+QGjVqBDk9rnMo2uPCx5NJgARIIHkEEina8Q8QYrVo0aJm50/8w8U/W83kgn/IumkORCiEuqYcRFmruEc57HyJf95FihQxdeEfNP6R6w6hiaKm4hL1686V1oWd+pqKcRUp1ii3LtTEs76uohzlNctKtD6gv7CBWPt9+PBhwxKMlSk44pFKot26wRS95uHfpSqU9d7S+88upu2/qyC2nq/nWp/xs72s/X0vvTrttNOkbNmy0qDdMDk9q4Ss/OwrmftkT6lW+Swjqh/qOMIIeUS5n5/WX/qOnCmvvbNS3n9pbOSext+R6//SWWrfeKUM7t5UrqjdRu685Y8ypEezyL4IuPc1IIDPKf7+NGw/3HxGFk7pZ+rCZw/3Jf6WPNB6sPm8QKSjDEQ72jB/Ym/54Yf/z957QE1VnW3/9/eu712v+asgiAVLRBE7BsWuiSQWqiUalSKKVGnSQYr03qV3QcEaK6ioEEkskWZUYlQUBEQRaYL6xSy/9ebPb/ve8+3nMPPMmZkz88zMc5+1Zs3MObtee59zrn3va9/7G/n2228Pqd769etl2p4VUrHmSWGqnjTM/g3bZcrlHaROnTpJw0YdwEh71IhaeoaAIWAIZAmBbJJ2CBoval60Dz3xqix4YvkhtWh+yzXS9OarHfnm5cqLtOFd/WXf/u9jYStVPEJefHiEeynzwiXdnsPnyr5vv5f547vJvn37BALrH0H3j1xTS59+Myjgt1rr+a+WOrXk+QSIvH1vNfqbOAwmlAxAgnS2QC2D6stdyQ/pc438ie+TbMrBdU2XOISrVKmSdBsyy9V7ybS+rs5cW/nW+zJu1h+lZ7tb5epLz3WERMuvZVQSwzW1WOqsBmkTjjLqjIaGC9PtgrMJUXmsCZN3IYXRgZvvXjRIsOMR7yCpLlTvSDwLjjnmGLmz82hnFd+5e58ce/RRMrTXPTJw3EOuD3JOSTv9FFLe8o560rppfXc/zH9suXuOrH1phhvUX3tHT6l8VAV5Zv5Q138VP3YV5gMpxxBwScOO0rpJA2nVpJ4j4tw7PG+OPfZYWfD4KzL30Rdl/fJZLo/2fScbac/2jbVq1SpZtmyZnHHGGZFktXHjRpdW7dq1I0nPEjEEDAFDIB8RyAZpV5ePFSpUkKOPPlq6DJoh697f6KxqZ9f4ZYygznp4qbz+9nsyb1xXR2A//fwradVzgpvCfnL2wJhrx9vbDXVT2Asm9JQzq5/kCGmnAVPdFDbWMEi7TmHz0g26mYTkqEWalzg7l/pWfyWrpMHAADJLGL7Vhzvn+aiER63r2qYq88HqD9nwXQsmS8OX9/hT/6Tty4IgH9QbUgNJgZRQdiXc+q2SGd+doV8+4lA+PloPn7RDaA4cOODqq0cU+vt87P9hyhRPtuSTbX/2xJ9RIUyhrikIg0uqYSDtVapUiZH2Sy88Rx4Yu0Dee22u1LqujZO4PDj/ade/sYjTj1WqwvOA47a2Q6RypSNl+oj73H2GJX7Y5MUlijKkZwtniWcQzb23edtOZ8Uf3ONuuebKX8mOHTvcNZ4FVatWdYPewRMWuefTuWdWk3vvn2SkPdXGTTW8kfZUEbPwhoAhYAiIZIO0q8vHihUruunwy27oXCZT2H77Qk4pD9a1UdMel5dfX1ui+U/7ZdWDutZejiTzou8xbI6s/+DTWJg5Y7q6AQfXmt83xhEHiC56Wg5mA5YuHBabxmdQkGoas0bdJ3MefUne3fBZibK9/fyDjsCMnPqYvLhydYlrtc+vIZ1a3Cz3dB8nD03s5SyYTTqMSFo+rOGJcHhsRn+Hg8p9Cn3xZzwLt54DTH8DqOB5Jef2rMgcAZ+0cy+xEPXW1oNcwshl5oztIW16jXeEGakKbbF81ToZMvFhJ4XhHm3WaYQM7NZcrr2qlms3f61Iuz4TY/cjaULcseJ/9Om2Ukn7n97+QAaNX2ikPfMmDp+CkfbwWFlIQ8AQMAQUgWySdiztkPYGzfvlZApbrcEQZpWlqCxE5SUQXwj7updnOgiIw2I2XXiG9a5j/ylOgsJiOI4ZC5+XOUuWxeKggcXy36ZpQ2nXvJEj70zTV692gkwZ2tH97/zAtNBpMGWPHIV4XQfPdCS81nk13ACBRXsckBjqADFRSzvWQsqri+xYTHfeWac6a+TmbTti5SOda27vIaefeqLMGNnF5YNlcdmKd2TDnxa4/3zy2WuGT7x9aza//V1rg+sEjHTnz7MuSNoh1DMXvSDzHntJsI7fcN3lsf7NDBrtyoxXvWb3u757XJVK8tbav8vLi0e5dSwMLLl/VealkjDuE/TwS1/7q7z7ymwHwIV12x0ij2GNCHIdlcfoM8HkMTnoM0bacwCyZWEIGAJFh0A2STvyC+QxTD8Pf3BJCeyyMYWtC1lV9gERVa05L3TkJZc26uRe3m2aNYgtauUlDWln8dvfP/7cWeUenT7AEWDVmte5tavc2uA30vGem52XCyzts8d0d8QCkgAJxqLHNP4/Nm5NKQ2kKKrVx3Kogw7INl4wnlq2SlY8Md6Vhal7yko+EBfCfrZlh8sPeUHNs09zRB/L5fwJvR3m4NB35BxXLnWld26dFhJ0iZct0h5cKBkk3ZQxnrXbpCXF9bjxSTueWpCr0BcY1EPEuUf9RaAsPOdeHj39CUfAcc94xUXnyv0d73CL0j//4htZumK1s7zrvc69iOyFwQADbSQv5NW4/fASC1HVSs/9dn2T3m7AjeSGdBi0+/eYempSL1bEXbNmjS1EzaR7GmnPBD2LawgYAuUVgWySdiXR6hGG/9mcwiZ9rGeN7vnZQq5HkxuvdhbxrV/udm7feJGfcmIVR3pZ3InmHus1lnXIAYvi4h2tGtd3pF11tVOHdXLab6yBSE0+/uwL504OC3YqaezatcsRcuQ7kIj6d/YtsRCXsmAR52jVY6wjFM899DMJcdc+2nyQlAw9aI0f6Eg7frAh7Qsm9olVwyftwfAaKB5pD7N4MmjpJr2gzru83l/FWG9/rYT/G8LsH/5icM6rv328xyCPGdT9Ljdw1oXRxNcBNINSyLIOSpt2HO6SZjBd49QTXDzWwHA/c3ywcn5sgM19cf41rZwnGiQ3HB9+ssVJa3AnyXoQDsL9vuUDzs3k+yvmufgMlFv3HOfusWcXDHPhdKE433o/bNmyRWY8Mi/S5u11bxepVq1apGmGScy8x4RBycIYAoaAIZAHCGSLtPNCxOKFhtz3pJLNKexElnZdXPr6Xzc4fSwyEiXtzATcN3C6e0lDuJW0QwLURzzNpFp3iAULY7G0I4XBjzN1xBqopB3dOQvsINqkEfQhDwZYw0lj3vherhcowcECfumFZ8cIt24c8+GqhS5cPGLtk3BmB26+Z4BLGx/YKiFgEIGlHSLy/CtvufItntrvIImp6ha0MtjRRX9o2vGwsXfv3jzooVaERAjE85Cknnz8PqXhfJekwetBgs11JeGJSHq6LcOgkrUXo/q1PSSJRLM98QaiGpl7JnjE21iJMLqxk4aPt5ETZVj97kdxq6f3Ybp1z8d45YK0q6swvjnycYOPfOwcViZDwBDILwSySdohs1/v/i5nU9hB3+TqrxmZBWVheh7Xb0hz6tW5yFnNsJKrThxLO/KYOzuPdAvfbrz+ChdGn/EMRCAyLJ7zCTfn+42a6+QxWMAh0U06DHO+o9nxUf3JK3lXrTrW8FmjuzmLIseKN99zFnq1GpIu8pjZi5c6SyBloaw6dY+XF987xiNT+jpJj5Yv3qACCybp1q53r5MngAP4gINKb9AT79y5M65/6vzqvYVRmnjkmgGmEme9ziyLfy5IpH3S7RPpwkAhs1JCzIM7qGaWogi7o151Sc24g4dM0y6k+EVF2i+66KJDrET6ENeFTupLVxdG0Fj6cPenizLZqU79CvuuzFhwE28XwaB/X14Uat3i2/fFq7vrFVIHs7IaAoZAdAhkg7SPbN/XPQOZDt+x64C07/fzNuHqB1mfSRDHi351htOS8lz6ZNN25wUFl4/oy/VZqrsWrl42zT3zeB6qy0ffP7NaxrGs6/ORdHnuQUpZGItnFQ7dFRHrM9PmmidpMEWPVxgWsSnxx7tE7fPPcERevbNMHNjOaWup59iZTzlLO1Zq1cXi5pI6UwbSJY0La9ZwRN5PY8+ePW5WAqxa9hgfW5RHOhdc/7M1kkVyPK/nLnnJ+ammbNSTMOCGTIAZBFzW6UxAaeUjf+LiWo+DsjNYAQd8wEPamUUo74darvVd7m+uBTY+0faJeHkm2FH3GWabnlz6urzx3M/PkagOJGNvrtkQebpRlS9X6RQVab/kkkvcAxmtId+6Qx8PTx54uP6qdNQRMrZfK+crmGlGfdHwEI5ipzryVCsRAwUOXly6oQjneBnpNLSSdvWawDdhKIuWH3/Euj2vDkJy1UEsH0PAEMgfBLJB2nH5yPMRoly5cmX3ffmN9x1S6XturystG9eNbUqkC0h5ruL9RA+IJN5TeG5hHCEcmyv5Lhn9xJc9NMiFg7jrQRnQr/Pd6O4BMc04i9tYhIb1GsKtvp3RuQfTf/3Jse5Z6j/3sXbzrJ8w5xnnxWXhpJ4uS0hb2DTYcZF0KV/QDSMeatj45Z2lU937hXTv6jL24CK8r10+F9Y8XTrefZPzbz9vXHcnO2D3R30vBcuHW0stXyIciom0+6Rbf8c7F49wlzdrdv48lUqWJJsWcV8uk0hSk6+4RFWuoiLtF198sSPDs5a8Iq/8eX0MI/x/MrWo1pJpwzu7lwQPfLWo83D9y5p/yMS5z0qPtre4nerU961u0e1bvRPtQMfDhIf5lzu/dVYYDvzxnnjcUU5zSD5sWNCyx8QSLzrCDejSTBr87hLnuYFNCPSoe3VtubdZXbcrWFBvGVVHsHQMAUMg/xHIFmlXYohWGqOH7v7JeZ45PPt45kFEeQ7xX3fShATz3OODq0I8RiBpYdEnYXnm6eZHSqzUIk6akHss4D5pJ3/kMZRFN03CiMHgAt/QxJ806F5nzFAPFBqO8qrlXstOPdQzjbqc45yWgzpoPdRYkigN3h2EASvdFVbrpXkTV7X5pKvGGXAjT66rXFN33IxXPp0F1nyIE8QBC73uGlnWPTgoLQnKSoKW7nhSk7Kug+VvCOQzAkVF2rG08yBlq9vX3vib0xviWxTSzsMPf71oG1mhzANSXVTpanoeKDx0CasPUt+HsPqY5cXFS8bfgY5GJh6eF7BWjZnxpJvC3Lf/O7m89jnSp8PtwrQqD1zdGlg3KOAhjssjLDSs0L6p7pVuUw4WH1F+NibAYwEvC7O05/PtZGUzBLKLQDZJOyWHRPluDPmva4Agmkpk1XODknVIJTOIQyc9Im+v+1Bee3ycM4pAyNU/uUoQlKyqEUR3//SfbYSFsD+57C3ZtXe/05vzfEXD3vy+Uc7AgWEFq7d6s1AphEogdedS1c4rgVfiq6Rd5T+6ADeeZNFPg3T5H1ywS3r+jKmm6+/Gqh4tdNdXHRT5gyO/fDpz+8TSN0vFAYNQ8H2UTk9MRrq1DQln1u50ELY4hkBmCBQVaUfTjkXn+OOPFzwPKOll8Q4PP0g7RJljzd8+dt/sjLds0c/uuCDZWMexjOMrlJfIVb/vVgLhaicdJ7NHd3akXbfi1gA80PBuwMsGN2C33/Bb+WrnbqfDwq8pLxjSJAxTogwgWNjEOV4Av7utu9uUgEEFbsi0/Gzl+/XXX7v8gou3Mmt+i20IGAKFhEC2SXu6WKhlHPJ+d9dxMTkI7htvrX9ZjLiHTZ9nKQaYp158Wx55ZmWJaP06N3GGDIwYPIeL2ZARFgfeDboewCfWOhDz10kFZSeECcYJ204WzhAwBHKLQFGR9tq1a7vRP6T9z6s/dAuJmKa9/jcXOgsS8hh2xmvbrJG0vbOhQxoiDxFmIRW+Qdn0QneqY+EVYdvffWNsirhu0z7y+PT745J2tJtY0R/+40qZ//jL8rdX58QsQ1jQf3t5TTe9jHzGJ+1qkdFd8CDykHYtPxYlSLs/fZzbbmK5GQKGQD4gkK+kXTXxzDSqHITnGs87yDXfqUj7eF4zACA9LP+6sBALNc9BZDd8Cm1xfjzPJEqifYKtRJp66xonP5z2RXDn/WV67ny4O60MhkD2ESg3pJ2HH7ts6c54ukho+ap1jhzjA5eDFfm44uJBqLvW4ZZLp1aZ6unznbkAACAASURBVCWuLgzVJsKSDxlHr85mBOp3l+vq0gstPS8aLEgMILD645sXCwlWdSQx7BbG9sBo2o20Z/8GsBwMgUJCIF9JOxjyDFS5jC8x8SU1YbFWLbdKdXh+q7QkKNMJk6ZPav3fvsewICn2CbbmEc93djCc/g/6zTZiHaalLIwhYAiUhkC5Ie08MCHtEGV2xkMDiGV821d7HDnHz++pJx/vSDs78LGqH1dc6hUBGc3KJyc4Kw/EHakLU7MqV+FlhZZ++9f7YunhboxjxsLnne9e3H4xjUlYtfr7jTN/fA8547QTnVXp1b+8a6Td7l1DwBAogUA2SDsuH9M54pHaMOnEI6/qacuPHy9cIoKs8fzrpZHkRNd8Eh+sSyLiH6bOFsYQMAQMgSgQKDekHSuQeo9hEwtIOxZv3So7SNrPrH6Ss4BDsLF4YwXX4+3nH3SknTR04aougB059bESYf1GanjNpW6hqa+v113wWESkH6aF0eSbpT2KLm5pGALFg0A2SDsuH+2IBoHgYCD4P2jZL22QEmZ2gPjxBk+JBlTBWYBE8aNBw1IxBAyBqBEoKtLOQlSs52jaV771fsx7DC4TIcoqj5k5qquTuGDdQR4zeMKiEvpzLO2QdqzqqqfkYceU7fnXtJJWjevLbQ2vcN5gIPY8iPEYgzyGBai4PMPbgXoIIG7b3hPks8+/dF4VSOe2tkOchIay4BpNN3siLLp4v/wsRN2xY4crsy1EjfoWsPQMgcJBwEh74bRVIZc0kTQo7CAh3uCktFkSG0wUcm/JbdnZwbhx+6EH94IYKDXPPi23medBbkVF2tXlI6RXt5hWl49graQd7yzqceCi+u2dS0jCsdue7lTHgtVH/via24GOBwqkf+lrf3UDgQUTekrVYyo40o6lHWs8HmHw8z5s8uKDG3b0lhqnnuCkMBB0LOcMDoZMfNj5i2907WUldsHDnSNad/LBYh8sv7l8zIM7xYpgCOQBAkba86ARrAhlhkCQ+AfXDfiDingDjKD8qbRZikRphUmjzADKccZspLT32+9iubL5WdQ7oQarZKS9DEy3q1atkmXLlskZZ5wRSRfbuHGjS6u0zZXw6xvcuY/MIex9OzWOuXxs03uSoC3H5eOVN3c9pHxzxnR1hBx5jG52BGlnI5D2/aa78Oxix0JVPpB2LPD4ML6hxQNuNz8WpCLVCe7Oqj55g5tD2eZKkXQTS8QQKHgEjLQXfBNaBcoRAqWtg0hE/hWe0tZ0lBYm7LqMYDOEWSitG5N99Ok2t/6P3Y+fXfCzBz64zi2tBspnW76UJdP6u3WBel73ZiBPn3ISh4+e1z0hdK8C3UhMy6p7NTTpMEwenT5Azj2zmjOc+uFInw/n+fB769atsujZxyPtefd36OZ4X66PorO0I4/BTzrfurMdWnEaj86sq/99TwTqjoxOy3kkMWpd191QiY97MSQzSFmwovOfgzC4JqNDa2dhkSoLVtUVGhZ0ykP+fOuOqqThS2PilZ+81FtNMfskznXnt/wMgUJDwEh7obWYldcQKB4E4FZ4yMMACrdBiQDPgc/Af3D3qm60H5vR3yka7uw82kmBCb/2vU8cGLNG3SdzHn1J3t3wWQlw3nx2kuNVumFatyGzZP0Hn8bCtLyjntS5opZz9oGMGQMq4YPhMK6eXq1qzLi6bt06mbZnhRx+2jGRNMb+DdtlxrXdpE6dOpGkl0oiRUXa0bQHd6mj0+jW0UqalZzr7nV0ON3hj46lhJ1vJfmkoT6C1YWZAk26Su51lKcdjzCajqbtjyp1ZKkLWuOVXwcLheaTOJWOaGENAUMgOQJG2pNjZCEMAUMgegTgL8iAIe2XNOworZs0kFZN6sk333zjVAfIgPGgt+DxV9zu7uuXz3K8Sr3wtWna0IWHP5FW18EzpVOLm6XWeTWcIRMrPQdkHz7Usf8U2bx1h1sHCP9CFjNr8TLp0upWtysypB1Le7s+E2Xft9/L0/OGuPh465uzZJm8s3Sq7Nu3zzkMWbNmjSPtFWueFAkwkPYpl3cw0p4umiqPYXMlOwwBQ8AQKFYEskHaM3X56GOdzHuK7trpGzzixfen+DGW8FIvbfo+2QxkaddTvUZ5/CMYP1lZirVvWr2KGwGINqT8693fubV/rM9TJxlY27GyV61a1TnRwLkHpJqFon9oMzi2Pw5ONwiLmkH3YFCD5/SHnpOnlq1yrrUh6FjT8bbHjvbEwWiJYuGzLTvcNfbWoUzNOo1wUhn201HpTZ1bu8ot9X8ttze60q09XL16tZH2TLpntjTtRtozaRWLawgYAvmOQDZIeyG6fEy2IDGepxJ/0aJ/3f+tM6th9L2p9JVkxN4fCPhhS4un14JhNK1E6cQ7Hy9/G3yk0sLFHxaCfNxxx8mOXQdKJe1/evsD566aTSqxhEPadX8cnG7Qr9CCI6dpeFd/2bf/+xLgvb9injz/ylvO6ce6l2c673q7d+921ncGDV/s2OvyRzfPPjpsTBnvuOf2uo60Y2030p5h/zTSniGAFt0QMATKJQJG2nPb7JB3JfC61okS6Hmf5Os5lUNCSorliDdAgOjHOx9vUOCf8+OBT6I0bCCRX70H0o40BolMPHmMer7z5THUQN1bsz8OpJ37A+ccOPq4uNaZMntMdydDxtLOJpQfrJwvzy1/M0baWR+IBAcrOoMGNsQMknbi6LpD8sQqzwfCT3wj7Rn2JSPtGQJo0Q0BQ6BcImCkvfCaXcm8kv7gIID/SvAJU0xkP5utlWggUdpAQMtTWlw/fqK0/POlyaWKbbYCL3i4pA4uRMXZB30Xicx1jXs5L3kzRnZx8hUWprIQVUk74d5+d6MMnfSI2x+HA/mb7hwPAX//w8+cbh0JDvIYnHGAc1AeQ1y82OCyG1faEHVdf0iZcPKB3n7t2rUmj8nkZjTSngl6FtcQMATKKwJG2stPy0PesUDyDbGH7HDw30h+YfaDVGRSwcFDvP+JzqVzXhENDkJ8pNGf4+Fu4+YvnbUbl49PzRnkgkDQkcKwxw16dtxmQ8ZZiKryGKzepOHvRH/DdZe7uL+6trVLB3kMVnPS2rf/O6dx5/8H/9gkMx5+Qe5reUtsISo6dhai4pXm3Vdmu/iERTJT69zqcvWl57qd5t955x0Z+8QsqVj16Eg6zv4de2RKj+G2EDVdNG0harrIWTxDwBAoJASMtBdSa+WurPEIvpJ9Jfxmwc9de5SXnG5q0d/5Zdcj3uZKhIG0L5jYpwQsfUfOkRdefTt27t7mN8qsR16QD1ctjJ0Lpj/i/tZuoBDcEbVl9zGy+t2PSqTvp1NM7VFULh9tIWoxdU2riyFgCAQRMNJufSITBFSqg7XUJ/NK6NlvxA5DwBDIXwSMtOdv21jJDAFDwBAogUA2SPuIe+9PinIibyq6m6EmQLigW0fO6ZS7vzMicZB/EF5dOiaSDwQ9ohSbVjhpA+Q4ACTeiH2OQbfsDIEQCBhpDwGSBTEEDAFDIB8QyAZpzzeXj/HcOfqeWWgH1XcHw3JNt06HeAYXHPJfzwW9n+h5NLAcfth8aPt8K0MiYm+LafOtpaw8xYSAkfZiak2riyFgCBQ1AuWBtEfdgP6izaBbRv1PmKB3F78cSuCV6Ot/n9gr2WfHRw7+l2fib6Q+6p5s6RkCBxf8HrRK/DvXQJj3mFwjbvkZAoZAMSBgpD03rehrv8kxqP9O1Zrsk34l9Zzjtw4EfLKvv3NT27LLBQmO7x1HPeOkim/Z1cByNgRyi4CR9tzibbkZAoaAIZA2Akba04YuaxHVokwGkFAO/Enr/0x2V4W8+xb7ILGH+Ov1rFWwDBM2a30Zgm9Z5yUCRtrzslmsUIaAIWAIHIqAkfbC7BWJyKcu9oyiVvEIPoS+2C34Ruyj6D2WRqEgYKS9UFrKymkIGALlHgEj7cXZBZR4Kon/xS9+4TT22fCtrpIcvlWio+TeJ/nFhHQ8Yu/vVJsNnIsJP6tL/iBgpD1/2sJKYggYAoZAqQhkg7Qnc/noyzt8V4t6Pp7bRyqBVpswuHNkl0IOfhOepVQaX7cd53p5XriZqOF9Qq+a71z4U2fr+PJE7OP5sKdNTGdvD+V8QsBIez61hpXFEDAEDIFSEMgGaS9rl49KlvDZrr+BQEk9RF/9JfguHtUnvA4Qgh5dGDQU84JOJfP+dy7IvN892ZZerfV8Q/RVZ1/s2PvehtQFqRJ8MMrWTIk9IMs3Akbay3f7W+0NAUOggBAoRtKeKfy+zCEoeVDZgw4Igm4YgzrwYnDT6Fvmkdmoh5ZMcU4nPvgqkVes/e900izEOLQJfVD7o3ojUku+74r0P//zP4WPHYZAPASMtFu/MAQMAUOgQBAw0p5ZQ8WTQCSSP8TTfpN7oeq/Ie+qlce7TT5Ygv1B0z//+U/XuFjv/e/MWrywYtMmFSpUkMMPP9wRd4g+h0rIwOunn35y//0BQHDzMf4HZ64KCwkrbSIEjLRb3zAEDAFDoEAQMNKe/YaC8OiCUN+FY2kkt5AtykcddZSrb1lb5RO1bCFjm2pvpR2qVKkiLXtMlM3bdpSIPqBLM7nu1xe4QQ0DHPopxF5lYpB5JfVIyuivarXXdSWsLYHMMzC4b+B02bvvO3li1gPy448/xtYvEFZ957P+RCVpxEWmxnUOHVBw3T/PNeJpOP3Wykyd/4zMeuSFQ6C5t/mN0rnVLSXO//rmzrL3258HcRyVjzpS3nhuaokwLbuPkT17D8jzC0ekCndBhjfSXpDNZoU2BAyB8oiAkfayb3VfQw5xCWO19vXeurgT8pWv3lryncj7vcDX0Be6N5yKFSvKMcccI3d2Hi1HV64gc8b2cIR45qIXZO6jL8rAbs3lmit/5Qg2hJy+qIScvgT5VkKPtV6JOyQabCD2/GZw0KHfg47sPjN/qIvz/fffu3T9jcT47cclD8qjUh+us3ZENwhTMq/l4rxKzihPl0EzZN37G+XhB++Xs2v80qVF+tTv9bffk/nju7l6fbZlh9zTfZxUP+UEeXL2QNfchLut7RDZtPUreWhiLznr9JNdWakHg49Hp/eTAwcOyA8//BAbaGg/Wb16tYx/Yb7815G/iOQBcmDHHlkyfKbUqlUrkvRSScRIeypoWVhDwBAwBMoQASPtZQh+iKzT1ZMnsiarVCRE1lkPApHX+qlVPuuZRpRBacSeLPJl8ATGxx57rDTrNEoqVzpSZo3u5sg2RPZ3t3WX0089UaaPuM+R5GGTF8vLr6+NIVT/txdL306N3TWIPMT6qt93K4HgqScfL49M6SOjpj0uL65cXeLaBedVl4kD27m8Rkx5tETaBDztl1UPku3ejjw3v2+MKx+/1773iUtnzpiujoh3HTxT1n/waSxtzp9zxiluAHFxgw7S6NrLZHifVjHMIe6UmQEFJBxyT/1J258FoO8ddthhcse9wxzZf3zmABdGBx+Q9m+++Ua+/fbbQ3rN+vXrZdqeFVKx5kmR9Kj9G7bLlMs7SJ06dSJJL5VEjLSngpaFNQQMAUOgDBHIBmn3XT767hm1mr5rRr/qOi2v1rhgePX4wnl19agERDW65cXFYyZ68iChzycLvW+Rx3NNJru/luFtFcs6HrnnYq684sQj7chSwPWa23s40j57THcZMGa+vPSnNbLu5Zkxa/VF9dsLxH1Q97scmb20USdp26yRtL/7RudylbrVbdpHli0a7qRQ994/qYSlnYELxHjopEccYSdtDvJu23uCs2Y/NqO/O9e4/XAn32nTtKG0alLPpQ/ZV6v30/OGuHAzFj4vc5Ysk7UvzXDPgGvv6HlQ4lLBWff13oewY+nnAymnH13SsKO0btLApQ0Rx3oOmWdAs+DxV9ysw/rls1zd2/ed7OphpD2Ld9CqVatk2bJlcsYZZ0SSy8aNG11atWvXjiQ9S8QQMAQMgXxEIBukvaxcPupCOnWdB97q850Xuu/+kfOQguAOn4VO+jOVoUAmITsQ+3wg87QZpItBCrKhXLugzOU9G28HWvLPpI/SH4477jhp2nGkk8fMHdfTkdsHxi5wlvHBPe6Wm+peKRdc39aR2jbNGjhJDGR37pKXZN5jLzmy/eEnW+TurmNkybT+ct5Zp8ZIO2E5uOeUYCM/QVYCAabNlDCTNtZv0oYYq/6de/H2dkOdpZ0BBLIaji3bd8ldXUYfJM8DXJ46aK9za1e5tcFvXFmpA4MC/xjSs4UbbFA2iP3mbTtdOtQVKdCOHTtidaxataqsfOt9GTxhkZPYnHtmtdjgw0h7Fnu/kfYsgmtJGwKGQNEiUEykPd1GCu5uSTpB/+5BbXOQTKWbdy7iqQxFyW86u3UiEVAdPaS+LGU2lF/rgoW3mIl8af1DB5i+W1Hf2qweYSpVquQkIGi3/WP++B5y/jnV5aNPtzlSu2hyHzn15GNl3759QpzPv/jGEXXILHpvtYaTRqWKR8jKJyfEFpsyAO7Yf0rMQr1r1y5H5HfsOhBL45QTqzhCTtpo0bFmq74c0s6gYuqwTrJnzx5H7N9Y+5Ej0/GOlnfUk3vuuN5dUi1+uz4TY9IazkPch/a6J1a/RKT9T29/IIPGLzTSnouHkeZhpD2XaFtehoAhUCwIGGkP35Iq11A/5ZBHteoHF4bmuxtHtchnYr1WmQ0kXutbVmS+kPXx4Xtg+iFvatHfkeIFE/u4RLBa6+fvH39+0BI/3Fm0z6x+kpPuQJo/2bT94ALWkbJ4aj93XiUraqXX0qx5cbqzaPuyEog398eb6z6WIRMfdgMCJe1HH3208zQTJO1Y2qcM7Si7d+920hXiQqY/WDnf5Y2VnkMXqaokDq29er3hNx/kPktf+6u8+8psF+fCuu0OkcfQ91mkq/IYle+YPCb9fhY6ppH20FBZQEPAEDAEYggYaY+mMwSt9UEPMPnuZlA18gxMIMCZaMnzxSpfbPr4THpqkLQH0zq3TgsJukhUV4ofrlqYMGuN16nl76VVj7GOiD+7YJgj1uoV5vxrWsmw3i3lhusud7M1kOo2vca7sKpVv7X1ICePmTGyi5PW0P+2fbXHzQBoXPUnT9oczBA88/KbTnPPwXXSZsCB9xi07/4sgb8QlUEmA24+1zfpLdWrneAW5BKGGQOkO8wCMDOAzEY95ZAHcdesWSOTt70Y2ULUHzbvsoWomXRw07Rngp7FNQQMgUJBwEh79lvK9wCjGy8FJR1YNyH2+WC1BhGVoERB4klPtfL6XRYW+fKkjw/26mSkve/IOfLCq2+LT9Ah5Ddef4WM6tdWnlv+pjz0+MslfJdzrv/oeQe9rgyUmmefJolIPnlzqN/zDR9tPii1GSqnVzsxdi5R+fCZvvrdj0qUi7JeeuE5zn0j6XAEBxaU/dILz5b5E3q76+TZpMMwl+dzDw2PwXPzPQMOuoP80lnz1V1k657jHGknnOrodVZCF+AyMJ2xaG6kD49Wje+SatWqRZpmmMTMe0wYlCyMIWAIGAJ5gICR9rJrBJ/MY5nXDZiCJcoHyzVlxXINiY/Kq4sudtXvsiDyOjjB4pqJVKjselG4nJORdlJR4q4pKmHX/xDh4KGEXc+TDySYA9Kschx/UyM2NKpx2kklNjAqrXxK3P28g4OLYLnibaxEGL98/PcHDppGvPz0WmmzDuFaIv9CGWnPvzaxEhkChoAhEBeBbJD24e1+1s3qwZQ108sc/m6G6npOw6mHF/77cXSHRA2nFjFNi+lyiF8xHL41uLQdRcEKkqseR3K9ODQbJJ720zphkUeawHeuj+BgqrwudM0m7hBjDiX12cwrUdoMJK66pKabSSjPh5H28tz6VndDwBAoKASyQdrLwuWjLgoFfHXzyKBAt1CH3GJN5ZwS/HzZACdMhwm7cDTosjFX1mufxFPWKA9mGtQarzKiKNMPk1bYWZEwaZW3MMhmvtq5O0aOVR4z4v7WcnO9q8oMDmYW3lyzQd54bmqZlSEfMjbSng+tYGUwBAwBQyAEAsVC2kNUtUQQ9QCDZRurvh7+Asx89gCD9VeJpEprEmHge3mBxOeCyOsgo2LFik72E/UBkdfZBd2oKOo8kqUXXKtQaLu6JqtfVNdV6+6nV9aEXcviy2USSWqiwiFf0zHSnq8tY+UyBAwBQyCAQHkl7ck6QtAbDIQMcq/u5lSW4n8nSzOb11VWA5lPRuIpRy6t15QNEq+fbOBQFgOTRPUIWuWZ4UnHN342cLI0DYEgAkbarU8YAoaAIVAgCBhpT72hEnmDySe/5UqUsXLjFzuMC0ffep1Na3xYqU/qLVMyRj7o4/0SqStNXfSaaOFxpvW2+IZAKggYaU8FLQtrCBgChkAZImCkPTrwS1tEqh5gVJudaz09ZYO8qwvHMLVWEs93NheEarn4zvaRyxmGsHUJknmzzIdFzsJFgYCR9ihQtDQMAUPAEMgBAkbasw9yabt1Kon0/Zhnv0TipCpYelPRnOeCxGu5IPC5kpRovWiDslroGq/NdUaHb6RZwQ27ctFPLI/iR8BIe/G3sdXQEDAEigSBbJF29eACTFh51eWjLvrkv+/+kfBBl49YpZW4+ZucEJZty7FWcxSiu0cl8vH8nufaL3s6VnhwzzaJZ1ABUVX/8Lm85fLRIu/XP7jmQjftMit9LntJceRlpL042tFqYQgYAuUAgWyR9lxBB+HkA8HDnSOHunrkd6G4edRNfpSoBj2u+CQSrbYOgrKBsy4YTVWuQhkpm5Y16rLlUkYTr+xlNSuSDo6JSL3eE7maxUin7BYntwgYac8t3pabIWAIGAJpI1DopD2VivtEBis/nmAg/JxXjTlkOJv67bDl9fXx8SQsurmSuj3M1sLRdAm8bo6kRD5svcOGU+u7zliEjRd1uOBahbJyP5lOvXRvAx34qpVeCb1Z7dNBtfDiGGkvvDazEhsChkA5RaA8kfZkTay+z4NkBYIMqYcglxUpC+M2MdveX9Il8OCeTSs87YZLzrKQ0cTrU/5utaqRz9agKlmfjup6PIJP2irLYRB82GGHuY3NfNlbVPnnMp3ytlOqkfZc9i7LyxAwBAyBDBAw0p4cPN/qDUmBIKKjh5yVlTeYMEQ1myReCXJYd5I+yuC2Z8+eGJFP3gLhQ6Srzw+fQ/ohfZegSubzYVYn/Rr9v5jIuapUqSIte0yUzdt2lEhyUPe7pMHvLnH3Ch/aSCVsrE3RDc74hvDPWPi8zF689JBi5WrzIyPtUfSIJGmsWrVKli1bJmeccUYkuW3cuNGlVbt27UjSs0QMAUPAEMhHBIy0p98q6qoPwgKRh0j7vsFVupJ+DuFjhrGCq7UbwhylJj4TAk8NdXCxe/fuyBcVZ1q28C2Qfsh4/v3LakYn3Vog4TrmmGPkzs6j5ejKFWTO2B7C4vGZi16QuY++KIN73C31f3ux/PDDD06WxjfH4Ycf7r6Z3cJS37H/FFn3/kZ5+MH75azTT3ZpYL0nnVV/fV/mjevqiD1kn0Xtuv+ALmSnX//0008uDGnqQIDrDBTIW9MkjF73z119Sxe58uLzZFjvli6sHvwmDfLYunWrTHl4drpwxY3Xt313qVatWqRphkmsaCztZ555plx00UUl6hxmg4ogSIni+Ftn+3H8qaV4cfWc72mB+HrejxPvXJhGzEaYKF8SycqXrby44TM9MilbJnG13FGkEQ+DbKUbzCuKNsi0DVOJnytcUimTH7bjoJ7y3xcek270Q+Id+dk/ZWyPwe58vtc9skp7CcVbUKrWeP3OtlQiDFGlDAwqotachxk8lIY7GFGmqMtFnuqpJxU3l9noI6mk6Wvmdd1Frn38hykv7X7sscdKs06jpHKlI2XW6G7u/odc/+627lLjtJPkmMoV5cWVq+WNZybKjz/+6AgxA96rft/NEXpI8kX120ujay+T4X1axdaZEI7nPmScgwFyi27jXT6Q8bXvfeLOV6p4hCxdOCw2C9Z75Hz52983lSj+m89Oiq1lubvruEPSYLDQZeA0ueKic91Ag/44d8lLsvCpV+WC86rLoC6NnURu9erVMm3PCqlY86Qw8CQNs3/DdplyeQepU6dO0rBRByga0l6slvYgkdfBgy5G0Q7hh4sXxg+v01vEDaYTdQez9AwBQyA6BLZs2eIIUpRHrVq14ibnk3j/tw7EOKfnVXpCQlzXa3q9UNw9+tIa3BdCHDmUwOuCzWzJJJSoJvN7ng0rPCQuU505swIMMPiO8lAZTabli7JMqablW+iJq4PBbA8K45UzHmnHKg3O19zew5F2rO+1rmsjLe+oJ62b1nekff5jy2XBE8tl7UsznHX82jt6SuWjKsgz84fG7nnuf11PAhdh0MXgABlOm6YNpe2dDR15v+PeYS7NxVPvdwS/+9DZ0qnFzVLrvBou7VtaDXRFf3R6Pxe+cfvhsTRaNannrjHoprxqaX9u+ZsyZOLDMqBLM/ndFec7jJklMNKeam8NhDd5TIYAZim6EnidxvIHAj7R19Xq+q3XzC1VlhrGkjUEiggBJfQqKVC/7flqmdQNhHwST3NkU4NO+mVF4HmOU+fjjjsuow2TsrmYNZ3NpvL9FlJSrwPgbN4P2r5NO4508pi543o60v3A2AXOuo7V+sbrr5B2fSbK3n3fyZOzfybQt7Ud4qzd00fc56QnL/1pjQybvLgEtEN6tnCWeKzzpMl9A+Em3uwx3R2hh2MsX7VOBo1fKIsm95Eap57g0sDSzwfSPv2h5+SpZatkxRPjHbm/vd3QWBoHDhxw4Un7+ia9HWlvcvM10rTjcGnVuL7cc8f1jrCr/G3t2rVmac/kBjDSngl6+R/XJ/8+sUezpqNjDWOEP//b00poCJQVAkEiw0u4rOUGidwXZpPEh5HQ+AOJqPTmDBzUKptJH8iWvIcy5fNi1kwwixdX7weuQX45fPenWLnDbF7mk/ZNW78qkdX88T2cPh3iDLHGco0U5rRfVj1oMR8hA7s1l2uvquXy9d1OVUhMGgAAIABJREFUQvBV+kKCEHcWtdI+WNUZHEwd1kn27t3rZDbbvtojd3UZLZB8Fr5S9gbN+8m+/d+XKM/fXp3jBggMGDSNb775xhF/dPl1m/ZxpH3pa3+Vts0aOUs+pJ7ZHpX1rF+/3kh7Jp3RSHsm6BV3XN0Cmu8g+df/PvkvbjSsdoaAIZAIgXiEPtd+20vbBVQtzd9//32kvuTD6tAhyuQdFYEPm2+yHqveaHRjp2ThU71ejFb4VDHQ2SyItf72Z7RYRIpsRck0lnYkKoRXd6m8gwlTr9n9cvqpJ8pxVSrJW2v/Li8vHuX6FeF5JxPO9yoDmR4wZr4j0etenumKrlbyKUM7OtKOhXzrl7vl7q5jHGm/4brL5cK67eTiWmc6azxpYGnHK817r811dVArP2ns3LnT5YukC9K+99vvDsp0fpayvfLoGHe/Qdr5hvAbaU+1BwXCG2nPEECLHkNAibzuSMh/23TCOoghUL4R4GWNJTJXi0kV7UQW8WwRVUgL+vfgjqzB1o+awJNvpvIZLWM29Pmadnmywqdzx9/Uor+zXi+Y2MdFV28tEHd05BBjJDMQcEgxFu0Hut7pLNifbNouzy5/y5Fu9dKiXmDwHjNnyTLnVebcM6vFSPvMUV3dfQnJx4o/eMIiefeV2S59pDJY1Tl8V5Lvr5jnSPsf2gx28ph4pJ1yjezbRvAkU6nikbJkWl+nZd+/f7/Lb82aNWZpT6eDaBwj7ZmgZ3EzQcB2lcsEPYtrCBQuAkG/2+p7O1s1Kk3SErXbREi7Evhk9YmSwCOfYdDAJ4pDywY+2VjsqzuyFvKC1ihw1jSCpD1e2hs+2nxQkz7UXXp85kCpefZp7rd//sNVC0tEPbdOC7n0wrNl/oTe7vzN9wxwgwP+Q/AZENT8XUtnYUd68+EnW5z0ht831b3SxTn/mlbuG9JOHCXt6OmRv2CNp/9d17iXG0zgwYZwF1zf1lnspw3vHFsQu2HDBnlg7lg5qmo0nrd+/O7/yKg2fcx7TLqd0fy0p4ucxUuEgG/BV+s9YXVHOfUpm8hFqCFrCBgChYFANrXoioBKNuJ5hYmaqIa1vlM2lahE4Qs+lXzD9Ixsburkt4suvFVPQWHKVixhwpB26lpaOAh68AhurET8z7Z8WSIYC11H9WsbO9d35Bx54dW3Y/9JY9YjL4gOCBKVIbi5kg4mmBl447mpxdJUsXqYy8eia1KrUK4RMOt9rhG3/AyB7CEAifdlNVH7r9fFnfF2J43S73mqVnD1t56pu0as/tQNEh/lkU0ZjZH40lsKYj7i/tZyc72r0mrSsIODtBIvZ5GMtJezBrfqli0CEHxeasFFtuplR/X4ZVtKy90QMAQUASXwSmqjRKa0xZ1qadYFdZnkm6oVHO8cUWyYFIXv93j1zqY3Gj+/RO4+M2mLQos7df4z8uTS1zOyWhtpj67VjbRHh6WlZAhEhkDYBba2OVZkkFtChkAoBLIlpymNWKPvZlFdpp5gUrW+R5UvhgoIcNWqVUNhnGqgXFjhKZNq4sGROpWHvUmC8pNU24bwRtrTQS1+HCPt0WFpKRkCZYaAvjyCXnQokOrw+W2W/DJrIsu4SBGImjAqwYXEx1szoxp43N5lIt1J1QNMVPIZ9fueLQ15rqzwdOdEO+gWaVe3auUBAkba86ARrAiGQFkg4Etygptd6X/b9bYsWsbyLFQEcr2oNAoinQ6JRrLDh/qme/BsqVKlitO/Z9Ninc2dWePVnbowIMFAEtxFN12sLJ4hoAgYabe+YAgYAikj4GvyfcKv1ny1QgWv6Q64/vWUM7cIhkABIIC0hE1ootCkJ3PpqAtYsb6H2REzHnypSmdIQ+UzmVr9o9q4KVm3YGZC3UlG4TEnWX56Xdcy6WZcNuMZFjkLF0SgaEj7mWeeKRdddFGoFsZx/yFAHPQb6h86LanTj/40Jf5BObjG+WB6nNNrhNPw+BDVa5qXpu9Pc+pvNjrQfPzvUJW0QIZAASHga/O5X4JafX+QoNXSe9L/9u9T/a33H/GCcQoIIitqASMQpVeYZLIWSCkLSdO1gicbICRqhiis/roZUlQbNyXrMmVF4rVcDFbUpTBWeXVSkKzcdr38IlA0pP2MM86Q2rVrF0xLxrNU+qSCkbj+962VvqXSrywEX7crDhJ9f0Dgh/MHDDpASNdKUzDAW0ENgQACiYi8T/b9ezP420+uNL/9qfr0D+ZPPkMGTZRv9/53ZG140i+Pkh69Wrv02PDE346c/3z0+Pe//x3bGIXfHPqcyqa8IbLK5klC6hUmE6s4VUkma+FZjjU5Eys45Pmkk05KCbkorP5aP+oY1cZNYSqhJF7912eyZiBMfonCBMm8WeYzQbO44hppL4L25IXJC97XH/ub/6TrTlAJPFsa+wTfHxxwjcMP6/8vAnitCoZA3iAwevgiOfb/axFZeb75Pwvl/gF3u/Qg7BUqVHA6XH7roAGCzj3/008/uR0GITRsY67E3S9MGNmUv0FZeSf7Sg6xjKd7hJG1pGt9px/QHypVquT6RqoDzyis7+CSbHYhXeySxfP99VOXsiLxWk6V2ejeIL/4xS/MuUCyRiyy60bai6xBw1Yn3oZA/uLDqEb2SvCV+Ot/vtXq7xN+s/SHbUELVx4RyCZphwBg1ew1Yp6s/+DTuPD2bHerXH3pubF7V+9jJIIQPA5+K6HXmUEs9pzjnof88805rhOP5w2DBLXsc07JPefjzTqk2/7PLX9T+o+el9FmMenmXVo8tmZHI87ACBzAluehzoIqVoqTjyfhDjvsMDn++OOdBT7RAfYMFMgLuaY/8KLdyINz2kbkBWHvNmSW7Pv2e3li1gOuvfikiuOuXbuc5V9ndLQeOiCkDnwoV6IjV9r3RPlTPm0jcExXgpSN/uPvAaLvb33Pl/fBcTbwLqs0jbSXFfIFlG+ihwFVyJbbLn1ZKYn3X2D6WwmDEf0C6kxW1IwQyCZpP/zwwwU5BARt777v5I9zBzvCCIlSYsW3Emsld5BMJd5K2vn25Tb8V4s9Vno+kDYlF5BF8tKBPOF19hAyqdcoC/8ZYEBS+R1vjVJGIOdBZJ5p4MoHgwd11EGMb+2GXHOdBa9ggyaaZzJtmYyoEfeHH34oMYDSwRHXKANtRnqdBkyVPXsPyDPzh8YGFbSdDtRSgUwNOJRXBydaFgYTOnubLM1k8qBk8aO67u+gC6GP6n2kA2HaUWVrPl5gxodz/qBW75XgTBjtxYf7RgeAGld19cn6TFSYWTrpI2CkPX3sLKaHQFmP8tWCz0OTQ4k9LwCz5FtXLRYEsknaIWdYau8bON2R9qfnDXH3DsTAnyF7+I8r5eGnV0jt82vIlKEd3TUIxrxHX5aFT70qda+uLYO63yV3dh4tlSsd6UjF2vc+cU1QqeIRsnThMEcUIRp3dRl7SJg5Y7rK2TV+KV0Hzyxh8dfzkBHyu+r33Uo066knHy+PTu/n0oXk1LquTYnrp1c7UZ5fOEI2fLRZGrcfKo/PHCg1zz7Nhek7co688OrbsfA3Xn+FjOrXNvZfN4fhxOp3P3LnKx91ZEq7RAbzIA0tk2bUsvuYWPqce2RKXznjtBMdXs3vG5MQT5UrUe8ew+aUwM2vZ7x6LJ7aTybP+6Ose39jCbzefv5BR9pHTn1MXly5usQ12r5Ti5vlnu7jZMm0/lLrvBqxDXSSYRQPh9N+WVUWTOjuLPEMJFI5cr14NUzZlMirVV7fS2HiahjasmLFiiXkarquhHuSNgcrBj/+LJUOioOknfsQwg5x14F3orDxZuIpF+f9NXa+LDeVulnY9BEoM9I+c+ZMYfFoFMcXX3whV1xxRUEtRI2i3oWUhq/F40ZHJxmVBCcdHHSak7hG8NNB0OKUBQK5JO1YVX3rt5J37t8Vb74nQyc9Iq2bNJAOLW5yRPjurmPkntvrSuum9R1pbtJhhGza+pW0adpQ2t7Z0BGFO+4d5ojgYzP6u/+N2w+Xzdt2uDCtmtRzBIS4Hfo9GBs4gPOMhc/LnCXLZN3LMx3sF9VvL22bNZL2d98Ymwmo27SPPL9giCMWl93Q2V2nbHr87rbu8udnHpQPP9lSgrQrifxw1cJY2HPrtBCfuEN2P9vypdzb/Ebp3OoWF46dImucdpIsmNgnaVeIlwcEHes1AwmO4H+2j5/1yAtCucCMMiie7Zo3cvhde0dPqV7tBDd44n/nB6Y5GQsDLh+3v706x+ESrx6ad5dWt8q5Z1Zz8W5pNdB9Pz5zgCOE7fpMjFnaIXq008bNX7o2XzS5j5x/TnX5Q5vBrnylYVQaDuS1fft2J91J92DgqYtXU9Xfp5tn2Hg+kVetfGlxmU3Cjz1yteCAisHvskXD3awEszEr33pfJs59Vnq0vcXJ17hXdfDKAFdnpTn3+l83yPjZT4tK3ShLIhmbypVUrqZrXdTiz/OBfvWXNf+QUdMel/73NZXrf3OhG+wz2/PQE6/K3EdfdPdim2YNXHkJ/8mm7QcHoaNkWO+W0ujay1z/pgwqoyvWGbSwfaW0cGVC2um8K1eujKL8sTTq1KkT0/Klulgk6FpRE43nhtG/Fs8rS6LretNwParps0gBLMPE8nlxDe2m1nol90Cl53xLfhlCaFmXEwRyRdrVMh6ElRd9/d9e7OQpI6Y86iywWFqbdRohDa+5VPp1buKIPjINCDmW9tljujtiAWFYvmqdDBq/UB5+8H4576xT5ba2Q2JhkHhwbNm+66AFfvRBq/kAF0YthnVu7Sp/aHi1/PrSmu46+XJd5Ttqbf5sy46YBTh4HdIBYdD4WNrPv6ZVCaJJGXzCzP9427BDQP+xcWuMdJfWBRkE+GSWsD5Jj2f9JwwDg9tv+K0bKGgZ5o7r6aysEJzBExbJR59ukydnD3RlSYTbrQ1+Ix3vudkR6ypHV0w60KD+Ty59XVY8Md7hf+/9k9wginwg1RAsbSdmA8CZtI+uXEHmje8VW7AaxCgZDtSZRblR+LYva/17mEeSr5FXAq5WeUgvM1/MOG3a8pX86amJjnzT7tw3e789IC89MjJ2b9FOXFM+o2sPfEkNv5XE04akRzx1s6tl9mVXhOF+5qOWdp+0c/9hgKt/Z1+5vPY50rdTY6f7xzBH2XmWVD/lBFk89X63BoCwC598TR568hVZ+9KMmAQvKM2iHn5ZdQZGd/1Wgq8zCNTXr6tKlSj/mjVrZNhjU+XI4yuHaZakYb77eq/M7jVG4J25PsqEtOe6kvmcnxL4eC4bg15aSvufz3XMpGy+6yuIgj44MkkzW3FpS3/Brf43eU62EC9/6WaDtPcf1NIByVQ8lj2stRC0ZxcMi0ljeDHrAJUXOi9kPre3G+os0JdccJbMGt3NEToIJfdt044jHYmbOqyT7N271927277a44jlkJ4/W7IhehB7wkDUmL5/Y+1HjozGO1o1ri9YmdVCTxisjiufnBBbxMiLnryx4PvXKTfXILmUAVkIx52dR7pBBDIUwmCt/fizL0pY48OQdgipfyhJT0TIfdKuizrj1VnTCZaBd0a/UXNdfVh/sGzFOzJw3EMJcYO0+4OkoPtgBgh7vy25w+kHK+c7TCDtzAogP9q9e7cbtH2xY6+06DbWSXiUtGtb0gfwNkM76sAmDA5+4SF4uvNqpnc63mfok9lag5Vp+YLxdVEuRBTsP/v8S9fHwZVzsx9Z5izYCyf1PkiIj3f9tU3vSfLQxF5y1uknOzIeTz4GcWaGBFkTYc854xQ3I5ZIxqYDYYg2lvSXX19boqjImkgTwt2x/xTXR5gxIR73cr1m98uVF58nS1/7q5slg0hD/HnGcMwc1dXN4gQXviPN4pkz/MElbqD/xjMT3eCEc/S9m1oOkssuPNsNECDqrMPx00BKd3q1qm4jLcj+unXrZNqeFVKxZmruSxO16/4N22XK5R2MtEfd8ctTeokWboJBMeq6/R3mdIFWoTyQk1nvg21Wnvqx1bV0BLJB2tXlI/cPC1G7DJoRs6rywuNlqQYDXfiGRxHCI3eBtKPNxgqLtVyJr5IBpBuc52W7edtOR5iH9rrHkXZkGBAGwkAGsS6+ue5jZ42HMPKSJj0OXRSrmnbue8L5eus1L06PLc6Ldx2ZCPIYiLpP2pF4nHrysW5wUblyZfn8i2+c9ANrP9b437d8wA1AfClMWEu7EnJfW0594pF2X6IT7AmlDRyQwzz/yluOtAdx08EKxIpBluKNNxfqyocBx6UHSZDWLzjTcE+30bJ7z35H2nVwFSTtt7YeFEt7//79ri1HT3/CzWy8sGhkzNtMaTgk6v1Y3yFgmXprUf17IRF4+smnm7fH1k9wT0xb8KzMXrxU3n1ltuvvDIwg4vRjBlC1690bVz6GZR6C74dlIKcStaDs6sEhHRwpHjZ5sSPsKk8Dx7a9J7jnxJJpfZ21fv5jy2XeYy+5MjBwYDDJoI7+yGwW61wa/O4SN3C+uEEHJ61DNte+72S3PoJ1EVzzpVmke0nDjtLyjnrSsnFd9zx49S/vOjLPvU7ZiB9PEvbO0qmyb98+d09jaTfSbm/XgkcgkWXYd9NYaFIen8znu2U+TAfyF9j6iwF9i77/O0yaFqZwEcg1aYdsq4ZZp92xoEHIgvKYi2ud6SzmkAgsc0rasaaphxmsZlhfefnrND9keMbILo6UQSwhgxB79K4Qe3U/qN5MiMdH3USqFhZiABHQlzvPAp32JzzX0db+5rLzHWlXC/EF17d18VRzS7pzl7zkCIiSFMgu5WQ2gQMMwpJ2wkOKR9zfWm6ud1Ws88WTxwTD+D01mbX/g39sOoj5MDcgQiesaxBUZkC9GGT5pJ1zb7+70a1P8AcMQdKuZWWdA9ZS0mZgQzspjolIOyTxqTmDXFv86trWpeKQ7M4kbwYEDPAyfTcVCoEPknbtT/4gS2cxHpvxgCPQTTsOLyEvow/oPajysOAMCTI23iW0k8qucPHJvcMaEr1HaHv6P2QZ0s5ATu95yDjrU1hr8sDYBW6AQJ+BiEPkuaexujPYhtyfWf2k2DoWZhAg7dMfek6eWrbKSbMg6SrNoiz8x6LPwb1YmiTslvq/ltsbXekGmatXrzbSnuzmsuvFg0Bpso9C0XSXl+2i/QGX/o4nzzGiX5j3ZzZJO3IXZAS+y0d/oKgSPl7qLDBb8MRy9+LFEo3nFV70WMQgv7yAIYgQXTTYai3n5Y8mfmC35u4FrcR+4sB2johBpLD8UgYW361fPiumaedFf9GvznQNt/ig9xokIRyQCvLHykx5Pv18uyx5ZqXzKU565ANR4DoyGA7IJmGRB3AeKyJ5qSec0sqJtRepz7hZf3RWZBaSqjeORL0Kws2hi06VZPneY9RzjE+eGRhceuE5juwnI+2kr2m8v2KeI2CQHHC7sGYNl4aPt1rMd+w6IC17jHdknzBgplIfLUuQxIPT+x9+5hYTgiMLWNWKT1sqRmNnPuWImy48Jn/XXgct7xzxcAh7Z0a1cRP55TOBD3oUorzBwV1QeqQLjgnrezmC0BOWwZ2uGWEWiYEcg2vkbdy7SGF0sMXMFPcL984pJ1Zxs2bMtDEjp5IpBlMM5Glf1kxwzytRp1/NXPSCPP3SX2TV05PdHglvrf27vPb4uNjsWcO7+su+/T+vadGDWQTeXS/9aY0bVPKf48K67dzzg4Ep9y39O97BonhIO9Z2I+1h7yoLV24Q8Ik9I3od2ec7qYfMq3VeLfPlptH+p6JBos/p4KJbzvnk3/9f3vAqy/pmk7SH2VypT4fb5b0PN8krf14vLW67PubxBSLPlDUv0Xp1LpLhfVo50o43Ef+AsKND5fkAUWrRbbxUOuoIGduvlXu5QjIhBJBiSEFQ6/rnP453pO83t/Y4pBmwHDKAIG1Id/CYO7abkw5gnWvVc4LwH0sf6eHW0NfrllZOJENYGifMecbpg+eN6xqT5JQmu/A14xApPM/43mMobzyCpsQ5DGlPlMbrT451ZAy3kYo3pJdz4B3UK7e78wYnv/AHED4RxMrbrc1tTvcPaa9x6gkHFyOPiqUdxGjR5F6uOegnje4eECNoiXBI9R6LSj6j+eaTBj5oaacfcbzx3NQYTInWCwTda9Ke8Qh+IukX61qQXQ0YM9+RfNqZmTfuT7WAMyCjL3GOfoRcTSUxaO5x36pSGdLo1P9Bt2B1cI+73f1+aaNOwiwdln76B5Z2+h5SNvoR51jkelujOnLyicfKxNlPysuLR7m68xyKJ6VTH/YMQhhAGmlP9Y6y8OUeAV0lH3SvmI+knoePbg+N9bFQtPJl1cmU9CdbTO1fV89Lvlclf6F1WdUl3/PNJmmHwLF4kD6vXiLAQzdF0vZTDw2c5/7lo/cL4YkLqQ1a2nVxncor1NsD6fGSxYJHHyAu9xzfpIWlXLXt2m98d3Z6TX3KI/nQ8ugOn4SBbPjGBa0H6av/as1Ln1eUK1hO0tENb6gvZaJO/qZAYUgfZIwjjMvITPsl5AfyojMeijf1pb11MyZ1kwhefGiHMK4TwQDZCvmoD3EfI7CmzTQfdenH+Ta9fh6IRYED7QaB3LlzZ8byGcWcXYLVE02m7ZBO/ETyGH+WJhFp9/NTzz11rqiV1iLr0uRdmo+WA1nbm2s2OMu6erzB5epVl9R0s2LIZNC3s3ga0s3MkK5V8Uk7fZa+wdoILP8MLgg3adC9bnCOByN08/EkYbrpGH1y7dq1Mnnbi5EtRP1h8y5biJpOZ7Y4xYMAN6f/Uvf9qOdDLYtNK58PmJZWBp/A+7tk+mRfCZP/ze944YNhNB3VaSe6nm84ZZO06w6M6pNZpSWKjbqHUxeLuiMq5yFkusELg15IDpZXXrLTR9znCLkSOu5t4vjpk6YuNI1XDj8vdVunu0TqwM9PV93dqVs73VBGBxSc141ldPGsn57uCBqvnCqh0Z1YKZuWPdhfwOTEE0+Uxc+8Ljt374tt2KTkpjQNezb6HovykCFBaCgzZfd9cCtB55quJcCrEK4Hw+x+CjYQZizfvq9tfkPYn1j6puzau9/NxNCOf//4cyexGdClmSNx9J0w+YTBJkrvM5qfkneVW4YpR6Zh4pF2XdysunaftDO79dDjL5dwReovhqY8/uZiYWZwwsi7tJ46o+Rr7rnmzyLpDE68+yAozSKuhuO33jO6o26rHmPdhmR/f/0h16c4j1elSy44W2647nLXxxnIzVw4N9OmKBH/7tubSbVq1SJNM0xi5vIxDEoWpswQUPKuFjKkN1i1lHSVWcH+J2OV16h1z6zyZd0i2ck/2N/i9T9/AOCXImxfDRPuoQVPyGefbomskqeddrK0atO0xP0UHBhpZsH9LPyBlb9GAnKG5KJVz0klpC/cu/l0cO9CEnU2jRc7ZYTsZeqlROupG8k99eLb8shBnb1/5Jqw+3mjZ//qq69SskYze3DCCSeEsryTF8SdjQ85SsMB3/7XXlXLDezAHcs2XowYYEV10LbUme+oDp71zOhk2xNNPNJOHXSdARZ3BkE+EQ+6HyW8eu1JRR6jazCIH0beRTgl58F9CYIDDW2HoISHeLqpmN9WDBzwTe/LgvR6abKyqNo7X9Ix0p4vLWHlSBkBHsAqt+Fhny9SG142PNAh8hACiEGYKeaUAbAIhkAeIhC0yGP5YtCNZZsjXzcmU/KlA3GeKZB4ygvhCzOoCjYH9z2DGH0e6AYyqunHqgzxK6sDYp2qlATyfvLJJ4cuMnkwQEiEA32DWRididHNtMgnavJOoZW8R0ngSTfYf0IDVKABcynvKlCIslJsI+1ZgdUSLUsElMxjkVfLWVmWh7xNXlPWLWD55ysCwUXs+UDs1ZsIZBsyxqF66VT8hauWmwG8bgGvawRUDsizAQkKFuYorcuptLdvFQ8TD3wg7pQ57IEsB8KcCAeV6wTTIw8s/NnAhvKojCZsPcKEAx+fxBe60Qar/lc7d5e5vCsM9sUexkh7sbew1S/2wlUSH9wuuiwhKi+uKMsSY8u78BHw17yUxawa5J2PT6xVTsO3bj2fKdKqmU6FDGeapx8/VfLOLOIpp5ziZhPDHulY90kbbBgoZIO8k36ULiSDWFBmJfFhF/eGxTMX4VSK4+dVlvKuXNQ5X/Mw0p6vLWPlygkCWLuUEESpZc208KaVzxRBi18eENA1L7rWJRcL2JXAYx1Xsop0Ri3wWG+jOLIlD0lWNuqCFj2VeqRjDc+EvPN8zObAJpsEHvxVQqmeymwtVLJeadcVASPt1hcMgQACQSKAFS3T3feiANmX2PBbH/xRpG1pGALFhIBawbl3GYyno0cPg4cuZIVA+tbmKEmfWvizSVLj1RXsINapkPdU9e7kmy55B2/yyzYuUbZlaX1KDTU6KCx0SU2Y+8fCpI6AkfbUMbMY5RQBHt6+F5uoPExkCqeSeR7yuviV72xNI2daXotvCOQaAUi7LizN1oyaSiCCiyejIn2qs8/G4szS2gPyvnXr1tASoHT07uSfjkcbtVpXqVJFqlatmvVulQ1JVKJC+0YaHBrYMz3rzVsQGRhpL4hmskLmKwJBeU0+uaMEM6w2PPz1gW/W+XztSVauXCOgJD6VhaVhy5jIOq55YV3O5MAqi5U5l7KKVEk1lvDq1aunbDwAI+Q56cxu5lJSxEBQF7JG7YkmjEVepTWprCfIpM9Z3PxAwEh7frSDlaKIEPCtepD4fJHX+BAHrfMqtzH3lEXUEa0qKSGQDT/tFCARwY7CAl8W0plU5Syp+nfXRisU8u6XN2o//2E7sEknwyJV+OGMtBd+G1oNCgSBfHRFmQi6RKTepmgLpLNZMTNGQK3ibPoThXeY0uQtqh1PN59c6bt9UFP1NIPnFwh8qkcmGyPpglV125lq3pmEz6WUJtlzXGdb2RPAnuGZtGrZxzXSXvZtYCUoxwj4i17zyRVlsiZJROqJZy+FZOjZ9UJDQKUQUUlpErl2RLKjJDWdxbO5Ju9bMw5GAAAgAElEQVQ8v9g4Kexi1UzKp/7Uw+bl97FM8o2qr0Y9CNRy6V4AOlvKBl7/8R//IWxqhu/7n376yW0QFvSDb4aZqFo2t+kYac8t3pabIRAKAfUpr5r5fNntNVTh/yeQWnewMOoiWf3t6+xTSdPCGgJljUAYAg9pUvJEeSFQxNPzPuHC+0k8CzQkD2t2Ogveub/YkCjbnlW0HjyvNm3aFFqHjqynWrVqKevdyS8drzZ+n8ml7r20vhqFHIv+hJGE3WYZmLBxFc9YiDwHRJ13B7NFfPgf9qAP0Yf59p/f/v+wzg5uatFfPtvypcv6lvq/lmdefkMenzlQap59WtLi/PrmznLVJTVjGzsljVDkAYy0F3kDW/WKCwGV2BQymY/XIv4LguvxSD7neUEp8S+ulrXaFCoCEOugBR7yhMcPvtkBFdL+ww8/ODJFH1ZS9eOPPwofwiQik1GQVKQpuTjAAst72FmCdFxEaj14Buri2HTqVtYbWQXLrM902jusJIu+RD0g7A898aoseGL5IVA0v+UaaXrz1W53cNpFd6SlD9Lv1BpP/vRTrvM81gEAcbDW8yE8AwXiEpb//FYrP9d0YHrYYYcJn8ETFslba/8uf3l2iivbho82S5MOw4y0p9NpD8Yx0p4mcBbNEMgnBHSxKw9mtcqnY6HLpzolK4uSd6xB+ts/R3y1BPlEn99+nGT5lLfrahW79MKzZcHEPrHq9x05R/6xcas8v3BEqZDwUm7cfqjc2/xGmfXIC6FfzsWA8969e+XAgQOOzFSoUEG6DZkl+779XpZM6+tIOwRp5Vvvy7hZf5QebW+RX198trNO0x+VJCnZYfOm4LF//35neYdA+WQrDEnOhCCn2jZ4f0nFQw5W90xmBVJdHBusT75Y34PlSuZmmIEhZe86eKase3+jPPzg/XLW6SfHyPTMRS/Iqr++L7NHd3ZJ+5ZzzUvlMwwU6EcMAPjw7FSZDe8UPkr6IeyQdf6TJr/50Cf1HNZ/Pn9oM1jOOeMUYQdV4v3948/lzs4jXVlPr1bVxfEHEpoG9xDluPaOnnLlxefJkJ4tXL+nTBw6GOZ5roMFHYjoYEQlQdu2bZPJj8xOtRuXGn5gx15utijXh5H2XCNu+RkCOURANfO+f/lClNpkGzKf1CuhJ09/gxP9raRfy+Sf98sZL24wTmn1ohzBY9kzj8mBPTsig+OX1c+Sq37XIDalzssP0s7BdLY/hR2WtEdWuAJOCHLCp02v8bJn7wF5Zv7QmKVTyQ7EQokQRD1IkogPaYH8Bw8lWgwQIPEM2gkf5sgVQU11hoC64ms9k0WjmZL3fLO+x2tPXzpJm9M/LruhszS69jIZ3qdVzGjjW9FJh0WoLbqNl8qVjnQEe+17n7jkK1U8QpYuHBab8cF6P2ra4/Ly62tj2df/7cXSt1Nj93/5qnUycupjMndsNzmz+kmOcDdo3k8uOzjIH9ClmSPtI6Y8Kp9+/pVUObqirPnbx7F0yGvKsM7S/L5RMdLesf8U+dvfN5Wo6pvPTopZ8K9v0luuuOhcGdzjbjfAnbvkJVn41KtyYc3TZcIDbd2zi8Hx+g8+jaUxZ0xXNyBg0MNged26dTJtzwqpWPOkMLdI0jD7N2yXKZd3kDp16iQNG3UAI+1RI2rpGQIFgoBP6NVNpRH6/G68px+8T9qe/HZkhRz3UW1p2f9nC5S6JmzWaZSzjH306TapdNQRMm14Z/cCZZr748++OEjkB7iXZ5dBM0q8KEnj3Vdmu7BY5Jt1GiGPTh8gjz//J3nh1bflw1ULS5Q7qFVt2X2MrH73o1iYMJrXRHGmzn/GWfmDswV6/sbrr4hpZJPlG7zODELnVre4wQ04jerXNlZmwkLSmY1gkEO9/aP2+TWkU4ub5Z7u42TBhJ5yxmknOoshJCgeScJSCKFvft8YR4A4FKPKRx0pq56eLFjfv/zyy9B6ci1Prsh7qq4bsbijxw+rl453M2TicSbX+ERxM3MvVT6qgjz30PDYAlT6jspsMAAwc8O9vXnbDmnTtKG0a97I3atYsqtXO0EeHNLB/R82ebHri+tenhmz2F9Uv71A3CHOhLmkYUdp1bi+S+OlP61xz4bqp5wgT8x6wOXfuP1wObvGL2Vk3zZyS6uBcnTlCjJnbA9H6Hk2KGmvceoJ0mnAVHdP1DqvhrOYE56D5wx5Xde4l7O0D+vdUp5b/qYMmfiwGxxQHuoF6Wc26+l5Q1y8GQuflzlLlsk7S6fKvn37hNmvNWvWGGmPoqNZGoaAIZCfCKhlnoesL7kxUl+27QVpH/mr6Eh7v/evkFu7/Kw1hbSzsyQEETJ6yQVnywNjF8jCSb3dgjF+Q9ofnd7PWfOwbnW+5/eHvGx5cX/4yRa5u+sYZ00776xT5cK67aTlHfWkddP6Lq9X/rzevXzfe22uezFjkd6777uY9EbJdZDo++j7BJnzwTi84PuPnudkOpBsX7bDf45kaXD9083b5Y3nprrwpDFp7lNONpSMtMdLn/sKeQCkZdHkPg7nQeMXOuITjyQN6n6Xw6dJhxGObLW78wa5r/WtriwQtRqnneTKguUd4p6OZ5VcyWZSdREZRblStfbHu7sLwfqufd0vP3KUm+td5foGz3Es0re2HuQI9Owx3Z1lHdIL4WaAriT54gYdpHWTBtKmWQMXhkEj1u15j73k+ijH7e2GOlIOkR447iF3btmKd+SRKX3d/X7B9W2dnOWmule6PLHuzxzV1ZXjk03b5a4uo92zAUu9Sm6w2EPapz/0nDy1bJWsfHKCGzSoPKbJzQe1+R2Hu8FCy8Z13bXN23a6tDAOkC/nOOrc2tUteL290ZXunli9erWR9rJ9dVnuhoAhUNYIqI6eh66SfL75n66/6bKuU77nnwvSfmfn0e6FzEtfX7hYyQaMme9e7pB21ZbqgjX/Zfv6HyfJ+x9+Fnsx8zJt12eis0CrJQ7rGMes0d2c5c1/8Wob8OL9Q8OrpVWTeu4U+l09lIAHrfEQ2dtv+K0j6Rxq7SYcOnvfwp4sjTpX1HJxlPwE+0Y6pJ00NN8l03621ENwSiNJYHtb2yGO+EC2wB4ixSAquMaAe08Xg6bal9P1o55KPpQPvXvYwQVEk3JlonenfKm6pkxUJwYSlCWfdyENzgz5fZ4+C2nXtSpYxfuNmuv6ERIuBpTMkEGoq510jLNUV6pUST7/4pvYIJxnAwNNyDfW7d/d1l26tvmDLHryFbnmqgvlN5ed7zTrEHz6Lpp2+u7UYZ2cfn3T1q8PynTGujxIi3PIa/bt/74E7AzoIeHX3N7DWdqXvvZXaduskbS9s6GbQWAw+/pfN7hBR7zjntvrOtJOHYy0p3KXWlhDwBAotwj4Fnuf3PObj1nuU+sauSLtLGbDivbBPzY5KQcE87HnVrqXOxY5dR3X8K7+h7xs318xz8XTKXBezLxwh056xMlnOLC8D+zW3OlwmYqHBCR78ZIngwRIHIs51cIXjKeWdT2faGFtPOukxiGNk0881lnqE1n7MyXtDCQ4GBiURpIY9Chph/igY0efjO4Y4vTCopFxsUvVsk0iuXIVyaB+69atoQf3kORTTjklErKc6UZW4ER5dOOmTGQ8qd39qYfWQav24SBpJ0V/rUpwIKsLObnvsXLzHODZgFWdexYLd6f+DzqrOIteV775riPufD82o78j7Vjl45F2rPLnnlnNPQsurnWmG5Bi+cfSPnvxUuE5AmlnULD32+8Oyn+OdAC88uiYmP4e0k45Plg538lyGNByqLcbXfNhpD31vmMxDAFDwBAoFQEIPi8JvjmU5Ks3AT2vi/fCeMwoNshzSdqRZvDS7PzANGfVOq5KJUfa1VqOrjXey5YXKJZ2lYCg2yZ+/Tv7ym2N6jgyPHH2k/Ly4lE/v4QPSmXCvHjpB1hejz/+eHlz3ceHxOGaLsbkt5IpJe2nVzuxhOcbJe2JSHmy61GSdgg8UoFdu3Y5K7pv2YS0q7VyytCOTsOOV47R059wciXIEe2E7/N4RzqLM3O1GZG6bNR7O9n9GoXeXfOIQjpDWuCuBN5ffJ6sLlFdh2g/+uyKuH7MVTKmM1LJSDtlOrdOi5ikTMsYT65GONaMcMyf0DvmypFzxx59lBv0c+hs3YyRXdwzfePmL93M2uKp/Zzki8H3316d48JC8tGkK2nnflZLO/r4q2/pcnDh7JHOGxOHpjW01z3OAKBSIN8/PQtR165da/KYqDqcpWMIGAKGQCYIJCLzel5JP3n4AwK1FqvVP5My5CpuLkl7//uaupcsulGmsy+54Cwncfnj3MFugSVEO97LNkjaTz35WPcyxjIMyWR6HpI5adC9bpC2Zfsul36yFy8vcNI55phjZMeuAwnjUGb1Hc0CT6yCj814wPmG9hemqlUxkfwl2fV4BCiokQ/+p58ErZlBkkQ9IUkspvM1xFgr45H2xVPvl927d7u2Km3DonTIeyabIKVyT6Q6KxCF3t0vXxTWd9KDvIMZg4tcEXjtT+QfHIAqsVY5TBjSHrTOky7p+DIbzulg2L9/Ep3zJTl+/ycdlaChf+e+JS+Ov7/+kBuEI5NDHqMuI2td18Y9i7DMcyC9w0ONyml4tiDlu+C80+W3l9d0z/wPP/xQRj02XX5x5OGpdMuEYf/53Q8yrFUv8x4TCZqWiCFgCBgCaSLgE3if1JOcWvYTfWuWwXh63p8ZSHWWQMOPOLi466Iqu9Os3aHRPvvXL6XjQS8wHEguIB0sRMXqi4s3FqLhUu6+gdPdixEPEU/OHui0ryw0ZbHZDddd7l62aLM5eHkij8GahoeUU06s4s5/sWOvI9ocWPGvvvRcJ49Cq86iVvxMr18+y+HMy5pBwflnnyqX1TrdLYZW39CUp3LlygnjXFizhjS85lJZ8PgrbrMZFnyykJaBBvpX9OMdWtzkpuJZAIs3Fp/sQFouvfAct4gPErL32wNxF6IS7s01G2LX1DLvW/TjWSiDpD0RSQJXcAIPFqJC2icObOdcPGIJHzvzKTcIWjS5l9PtYoHnSOYVJh3yHqWFO1HnTVXvrnWNcuMosMX6H1ZzX9qNCHlXAp8LCY2SXb9M8aRiPoEmbDxXrkHPR0HCrvGCXqHi9eXgQCFR/9dy6/4Oek8GvUxpfOQyukA8qOMnrdIWsUf2AC2DhMzlYxmAblkaAoaAIZAuArizi/II+sWOJ/vQFyWEFLdyWLPQe/suDfFswrS2T9rnj+/hSDvT1ixow+UcJHj5ktHOOgwZh4RDQuO5kHxl8fCY2zr1DIEfadJKFOfPfxzvXCgiu2lx2/VuISuEH5I+/MElTkNf9+ra0q9zE3eOjWnUZ7Xi6r/w/S3Yue5bFiEU6G05wAZCpC4fNS0/Ppb+bm1uc9bFoA98H0ufJFF20jiq4uEytl8r53caCc2EOc84ecC8cV2dP+rg4u9k1uhUXTFmgyTH68ep6t2jWqwaLEtU1nfShbzroDiRjCnKe9rSKl4EjLQXb9tazQwBQ8AQyDsEsKjq5kCQdogzhBxrJBZ73YWRaW0s/Swm41tJO9chrZCf4KZEzHLo9urkoxsYYdGHNEH4OQhD+rplu7+xEdfJg0GB7r6YLyCCxfbt22PbzFMu9dZEHYNHGEKbjuU92YAgCrxSLVe2dPhRWt/BhTbxZTRRYGVplB8EjLSXn7a2mhoChoAhUBAI6EIyviHsSD98T0OQaQi3km6IEARd5U36m8rq4jQGB7rlum6BznV/a3fOq+cJda2IVZ+Fn/nk5o9Ziq+//tq1pe58WdqOqGEIbaq68jADgig6244dO+Srr74KnVSUnmaCmYIRMxQQ+agOs8JHhWT5SMdIe/loZ6ulIWAIGAJFgYDu5IuVXvcKyNW+APm20U6qRBtCW7169VJ3G8WPOumGPcKkGTatROHS8fSSTR0+g0N071ETeOqvVnjWeuTTQDHTNrT40SBgpD0aHC0VQ8AQMAQMgTJEwCfzWEKjtIbGq1a+EPh0FnAmI7TpbEaEZOaEE07IqtcUyPumTZtiXqDCdLdkC3PDpFFaGLCCvO/cuTOlcoXNl34GeYfEmx4+LGrFG85Ie/G2rdXMEDAEDIFyjQCECvIO2WMXxWxZ5MvC1V+wYdOxRkOyq1atmrCPpJNmLnZWTdW/OxXMhQ6fvkY/i7cwOKob0Uh8VEgWZjpG2guz3azUhoAhYAgYAmkgAKFSMg/JStX9ZrIsy9oCn6pXmDAacHDasmVLaEtyGA19MhzDXE9VHqTk/bjjjitVIhQm72Rh1AKfDQmNnzeLqLHAs8jarPHJWqXwrxtpL/w2tBoYAoaAIWAIpIkAhBR9fDbIFdZdpChloU1O1ftKGEt0qhbufN2cKZfkXbtlNhaxJuryEHn6nMpq+M7VZk9p3oYWLSQCRtpDAmXBDAFDwBAwBIofAcg7JD5KXXxZbnWfijU6rEeYVNJUghzlJkjxemE62v6yIO/kqQPEbEq2ghgpkecbq7y6QM3Fxk/F/9TIXQ2NtOcOa8vJEDAEDAFDoMAQUIKFlTkKKQ3yGazvwU2tsglLqoSWskGykxE6JDOp7B5arVo1V/dsHuno8ClP2DpHXXb1RMMgMeqN08KWlbozYFOJDd/J2j5s2hYuWgSMtEeLp6VmCBgChoAhUKQIREngc6X79psiVUIbZlFpqmlSbxa/ZnvQkurOqooT5UIqVFaeWrIx05Pu7ahWefYyQC/P/gjsWcC3boaWbtoWLz0EjLSnh5vFMgQMAUPAECjHCKinEDY6YtFhJke23RIGy5bKwtIwC1VJP1W9ezK3k5ng6cdNdWGuxoW0U8Zszwwkq6cunM7GmotkeXMdgo7lXTcYY0MzrPLsXsyhOw9zD3COa0hvCKc7HGvYMPlZmNIRMNJuPcQQMAQMAUPAEMgAgagIfK6tvKlo08MsVAXCVNIkfNh0M2geFzXVhbmaX1nMiJRWV999KUQ+CslWaflB2NXN5ENPvCoLnlh+SPDmt1wjTW++WtiVF3KPFb7hXf1l3/7vY2ErVTxCXl48StjlmA/pdn5gmuzd9508PnOAW0ei5J5rL7++VgZPWCTDereUm+tdJa17jpM9ew/I8wtHpNwVsiE7yvZMUaJKGmlPufktgiFgCBgChoAhEB8BCDxW51S03sGUckkUU9G7h12omkqa1D1sulH0uWIh74oFWKsHJAi97hIcBVakgSyGgVXXwTNl3fsb5eEH75ezTj9Z/v3vfzuSPXPRC7Lqr+/L7NGdHVnftPVradVzglQ/5QRHxgmHtf6Oe4cdvPaVzB/fQ2qc+vMmXF0GzXCk/eEHewszVgcOHHBhK1WqFJMnQeCx2t97/yRH2p+ZP9QRfBbxQv5Jh3z5EBc8sPr/8MMP7pv/a9askTHL5ssRxx8VCSx7P9sh8/qMkzp16kSSXiqJGGlPBS0LawgYAoaAIWAIhERAyXu6u7PmkrynIm8JK21JVVceVooTEv5Sg6UrmyHRXMuZ0qmvympoA0huuhuLVaxYUfBrf9kNnaXRtZfJ8D6t5F//+pcjxBByiPNPP/3kyDNW9madRjky/8SsB+THH3904SDUhx12mCPuxIHME6ZDvwcdEX90ej83E0KZId5VqlSRL3bslTa9J8miyX3kqWV/lmUr3ikBwwXnVZeJA9u5fLsNmSXrP/g0dn3OmK5yerWqLj3I+7p162TanhVSseZJ6UB5SJz9G7bLlMs7GGmPBE1LxBAwBAwBQ8AQyCMEMt3qHtLD7qW50Fd/8cUXjkCFOcJ6g0llQEC+YQcFYcqYLAzEjvqmM7Aq6420ktUteJ060hf5qEU+GZmvUKGCI+0NmveTykdVcJZurNd8IOwMCPhAylkHcEnDjtK6SQNp1aSewxXSDJlnoLPg8Vdk7qMvyvrlsxx5b993clzSTtjtX++Tlj3GO8v++edUl7a9J8Qs7f5goGP/KbLv2+/l6XlDXHVnLHxe5ixZJu8snSr79u2TvXv3Oku7kfZUe4uFNwQMAUPAEDAEyjkCmchnciUjgcht2rQp1AJbCDZeZsJs3pOvene6ZCbtwqAK6zBkMwwO+XYLBEk8/9WazuwHbbzyrfdl+INLShR9SM8WUv+3FzuLOhbyzdt2yl1dRsvgHnfLNVf+Snbs2OGuQejxGEQa6NQh4ueeWS0meQla2gmLpb1Ft7HyyJS+ct5ZpzrSjpTmydkDXVtB+rd9tUfu7jrmoKV+gAvDOY46t3aVW+r/Wm5vdKWTqa1evdpIe751OiuPIWAIGAKGgCFQKAio9R3LdjpHLhZwhiXZqQwmqPdXX30VWvOfy1kG2iFVF5bBtis063uyvkd7YVGHlPNB1gKBXvO3j2NRIe5De90jH326rVTS/qe3P5BB4xemRNoh+BDydn0mxqzyEHEGAm+s/cgNAuId99xe15F2rO1G2pO1sl03BAwBQ8AQMAQMgVAIpLs4MheENhUSm4rVPRVrPiBi8a1evXrONv1Jpd6JGpmBFZhQ9mI9+o6cIy+8+rZs+NMCZ+k+/5pW0rZZI2l7Z0NHmLG04+edwYzKY9a9PNPBkUge41va41nllbS/ue5jNwj4YOV857kGbT0H33xY2IpV3kh7sfY+q5chYAgYAoaAIVBGCKQr0cjFglWIErMCyVwMpmJ1B2YGLFjek6WrTZLrRaCpzgzE6zq0j7rzLET5zIaPNsujz66QUf3aHlK9qfOfkVmPvHBwcelAqXn2aXJTi/4uTDzXjL++ubPUOO0kmTuupyP4bXqNd9bzZxcMc1IsiDbkm8HoJ5u2y52dRzp5DFIaLO0qj8FzDMeW7bucPAYrP4tkia9ae+Q9hENTv3btWhn/0dMHF6KeHMmd/cPmXTLj2m62EDUSNC0RQ8AQMAQMAUOggBFIlyhCDNGXZ3ML+i1btoSStqRidaepUlkAS/hcyIOCXSjdGRE/nUKUz0DaG7cf6qrx4aqFJWA5t04LufTCs2XBxD7uvIY9vdqJJYg7ZP6zLV+WiN+y+5iEvtc1HR0M6OAgmD9prH73o1i6DAb6jZorl1xwttxU90on7WGx8VMvPBvpE6HZH+7I+q6+8QpsLh8jbUZLzBAwBAwBQ8AQiAYBrIZqiU4lxWxbo8NKW1K1uqcjScGrDnKKXB6ZeJwpZAIPQQ8e9za/UTq3uuWQ80rS9UKQxHNeCXe8toOsM1BQ0k4YP01/oBAvnSC5z2X/yGZeRtqzia6lbQgYAoaAIWAIRIBA2EWhflbZtkaHtY6nanVHJoRFnxmHMEeqg4MwaYYJk84gI1G6WOBxmQhWhSihKQ0vZDFXXVIzrrwmDM4W5v8hYKTdeoMhYAgYAoaAIVAgCKRK3rNNaLNldac5Uq1rLrT9ibpJFNIZTRsCT13Y2KgYFrGyWPXNNRvkjeemFshdlr/FNNKev21jJTMEDAFDwBAwBOIikG+ENhWrO5syhT2QCJE2C2HDHrn2NOOXK93FxInqxqAL6ztWeMh8oR6+tCWRpKZQ65bLchtpzyXalpchYAgYAoaAIRAhAmHJsmYJ+YM0Z2Oxajat7ulIUXK5s2q8Jo1K++6nrVb4I444whF5O8oXAkbay1d7W20NAUPAEDAEigyBdAgtencWcWZDPx12IAGpTsXqTrNBhEk/rN6dONlemJusOzFbwEzBzp07Uyp3snS5biQ+DErFE8ZIe/G0pdXEEDAEDAFDoBwjAHnfunWr29UzzJFNvXs2re7ULR0NeVmTd8qNfAb/4bt3746cwBuJD9PrCzuMkfbCbj8rvSFgCBgChoAhUAIBrLpsWBTWGp1NDXg2re5K3skjlSMfyHsuCDx5IKH5xS9+If/1X/8lSGqKYWFrKm1dbGGNtBdbi1p9DAFDwBAwBAyB/7FGp0Jos+XzPNtWdxp7x44dbqCSypEv5N0n8Mh/ws6UpFJXPyySGmZZlMibNj5dJHMfz0h77jG3HA0BQ8AQMAQMgZwhkAqhxRJ7yimnZMUim22rez7vJJtKY0PakdBA4JHT5OJgYTJtzweLPIQ+G4uVc1GXYs7DSHsxt67VzRAwBAwBQ8AQOIhAqoQ2WxszpWJ1Z5FqOm4O01mYSychLxbHppNnNjuZkne+w0qeoiqPknnfMm+EPip0U0/HSHvqmFkMQ8AQMAQMAUOgIBGA0G7fvj2UBTebC1XDWt0zGTyEHSAEG1J3JoXA59uhnmiwwEPiy/LwCb1a6SH0/+t//S8nv+HbjmgRMNIeLZ6WmiFgCBgChoAhkPcIpOI6MVsLVcOSaghgulZ3GiLVhbnaeGW5w2rYDqTWd9XCQ+rL4oDAI6tpdM+QUrOvVPEIeemRkfK///f/jpF64j7/ylvywNgFMuL+1nJzvavKogoFkaeR9oJoJiukIWAIGAKGgCEQPQJhLd7knK2FqmHLkInVnfKn4yaSeIVA3rVnIJ/BCq+6+GwvatV8Id7MUIAV1nY81ixb8Y4j4sN6t5SG11wq//rXv1zwf//73+4bSzyDDAZl//Ef/yH/9//+X3dNP//5n/8Zu0Z4wv73f/+3S4e4XIf86wCAeFwnHGnxm3P/+Mc/ZO5zSyK7eX448J1M6D8i5T0GoiiAkfYoULQ0DAFDwBAwBAyBAkUgFf/u2VqomorV/eSTT3ba83SPVGYZgnnkk8eZsPWnvv/85z8dmc/WwlbVvEOkDzvsMLcu4NW/vBsj7df/5kI3kOBas06j5OjKFVzx1773ifse1O0uGTLpYXloYi8554xTpEmHEVK50pGOnGsYrPRLFw6TH3/80ZFxBgejpj0uL7++NgZF/d9eLH07NXZ56SzE+vXrZdqeFVKx5klhISs13P4N22XK5R2kTp06kaSXSiJG2lNBy8IaAoaAIWAIGAJFigCW6LAuIjO1eieCcMuWLU7OkuyIQrIDqaPO6RBZSCkYFKK7RKzxkFqIPN98olzgitX9+OOPlz+v/lAGjV8oQ3q2kKsvPeWOwXAAAB2YSURBVNd5xKlcubLc2Xm0bN62Q9o0bSitmtRzxPyTTdvlri6jZdHkPnLeWafKbW2HxMK0a97Ihbn2jp5SvdoJ8uCQDu7/sMmLHWFf9/JMR+I5d1H99qLEnX5E2xppT3Y32XVDwBAwBAwBQ8AQKDgEkBZA3MMS52y4hwxrdQfcKCQ7EDvqG6bOwQYtJOlMss7IIIb2V0KPDCUdMp+ItJMuMyRNO450VvTZY7o7Io+VftPWrx1pf2RKX0fa/9BmcCwM5UACM3jCIvno023y+MwBjqBf3KCDtG7SQNo0a+Cs71jx5y55SeY99pK8s3Sqa8+9e/fKunXrzNKerPHtuiFgCBgChoAhYAgUJgKpLN7MB6t7FIOHdF1FaguDA6S02HYd9S3zSuRLI/SlkXYs7ZB25DFTh3WS3bt3O/37Fzv2SotuYw8h7YQ5cOCAC4MU5uPPvpCn5gySDz/ZErPMn3rysbJv3z6pVKmSfP7FN3J31zGycFJvqXpMBTeTYqS9MJ9BVmpDwBAwBAwBQ8AQSAGBsItEy1rrTpWiGjxkSt7BQn2+F/sGRUrosdDzGzLPAlAGL6+98bcS8hhwVdKOpX3K0I6ya9cu53UmSNpvbT3IWdoJs3//fjn88MPl/2/vToCsKM81jr9QUECxicIlIl5HkagRdUxcKsRUuKIgYBBNVGSRZVicALKJrLIMuyCiMOybiATwRlkUDEKkEq4KAwpXCHGBBEQtbgxcYBAoKLg+n7dPnRlnnNNn+pzpM/PvqqkZ5nT3+frXrfX0O29/Z1L2ykho/+snB63jkxNdO41Cuyrq2jeh3cd/3KyKAAIIIIAAAqVLwM+DqkEF5/yCsfa6Bzm3vN8PpCrorCu8ewG+dF0VRR/N6re22vBJC2zc4Az79b0/t3Pnzrk2Fy+Qz57YzwVy3dgobEe3x/xQaF8555lI/7rXHqObBT2YSntM0eeFNRBAAAEEEECglAvE+qBqGKruQTyo6p1O7wONYn1It7DLQDc0CvCp+PBqPJe2F9rzz73+QOfhrj1m0bTBkd1+tO+Atc3M+rZffaTddMM15q2zYOqgyFSQeqhVFfY/LBjjHjzVdJKaVvK/Ny+MTCN5yz3d3PSSevhVzyoozO/du9cmL59lVapXjecwvrfN6ZOnbFTXAcweE4gmO0EAAQQQQACBhAj4qT4nquoea8uOADQ9pMYR1BLvXO/R76+/Bqh9pLQH+CBCe3SwHzphngvta5aMj3Dqd2s3vhv5d+tmjW3isB5Bne7Q7YcpH0N3ShgQAggggAAC4RbQg6pqWSlqSWTV/eDBg26mk6KWRIyhODPO5B9vWavAF3W+eL1wAUI7VwcCCCCAAAII+BbwMz1koqrusbbs6OAS9cFIQVTfPXwCvO/LsExtQGgvU6ebg0UAAQQQQCBYgViDcyIq3joSPzcPXnhX20zQi+Y5118g9D2IxWuf0ffSPgtNEF5lYR+E9rJwljlGBBBAAAEEEiig4Kx2mVgCa6Kq7n7mlg9ylpn8rN6Dq0eOHInrw4kKOk1lpQ8+gZdoqdg1ob1UnEYOAgEEEEAAgZIXKOmquwT8PKia6E80Ve+7bmTkEuSi6rvGrjnOy8psNEH6peq+CO2peuYYNwIIIIAAAiEUCEPV3c/c8iIMcorIwk6JwrvXQhP0aSPEBy0azv0R2sN5XhgVAggggAACKS0Qhqp7rGPwoDUVY7169RLeQ57IAK9jUfW9SpUq7ru+1F7DkvoChPbUP4ccAQIIIIAAAqEU8FN1V1i+/PLLAz8OP3PLe2+eqL77gg4u0QFe76nQrvCuvygozOs7D7cGfqklfIeE9oQT8wYIIIAAAgiUbYFYK96JmmFG+grH6ndXiI91SUtLcx+ElKwlGQE++li8mWkqVaoUqcwn61h5H/8ChHb/ZmyBAAIIIIAAAj4FwlB115D9zque6IdVC2NUgD99+rTpYVZ9JWtRBV7HrC9V6FWZV6inMp+sM1D4+xDaS/4cMAIEEEAAAQTKjEAYqu5eeFflPdalpMK7Nz6FeO+TWHUDVBKLF+j13avOl2Sg/2WbPnbXHTfZxGE9SoIj6e9JaE86OW+IAAIIIIBA2RZQ6Ny/f39MFeRE9brrDPj9YCZtU9LhXWNQeFcV3gvyYbiaVJHXswADx86zHbs/+d6Qenb4tT3Z7TeBDpXQHignO0MAAQQQQAABBAoWCEvVXVNEaiz6gKZYlzCEd2+sXojXdx2Ln779WI+3qPWqVq1qdevWtf5j5tjRYyftP+ePtvPnz9uFCxds36eHrHP/Z61WzWr25tLxbny6YfKq9BUqVLCLFy+6t9DvtY0WvV6+fHn3Va5cObeOvmvR91hCeywf+FXUseV/Xc8ClMRCpb0k1HlPBBBAAAEEEHACCpmHDx+Oqeqe6FldFHr1ya5+Qq9aRfTXgGQ+sFrUpaPgGx3kk9ETr9lpFNr7jprlQvuquSPt1KlTztKbrebetoOsQVo9ezGrl505c8ZV5T/csz/P4Wx9/XkX9rUozN/1YP88r6fVr2svvzjY9dprf41vu9FGD+zk3mfB8g22eNUf7dZGDWzswA7uPd577z2bN3OL1axeryi2mF4/8vXHNj27rzVp0iSm9YNcidAepCb7QgABBBBAAIG4BPxU3TU1ZCKrnX4fVtUB66FNb573MM6LroqzwrxukrwHXOM6UYVsFB3a/3X0hC3PHub+epGbm2s1atSwOnXqWNbzL9ubm7dZzvpZdvbsWXtyZLb16fKgpTdq6KrpD2WMdHvXtlruvL+39Wh/v2V2au2q7xp/83aDbd2SsVa5cmUX2n9xeyMb+3RXW/3WVhszbamN6Nve7m58s7tp0U3Dtm3bbP2qcnZF3Z8FcrhfHNlp/UY0JLQHoslOEEAAAQQQQCAlBfxU3RWQr7zyyoR+cFCsNxL5sfUXAVWdwz7jiqrT0SFeP8f7kGthoV03C6qK60Zr83/ttlFTl9jSF4bYtWnfzclfsWJF96XQnr14tb36xhbbtHKqfbTvgHXqN9lemTncGl1/dSS0q3qu1hi1zjR77GkX2h9r09Ta9RpnGW1bWJdHm0Vm3NHx5eTkENpT8v8GDBoBBBBAAAEEQi/gJywnei71eB5W9YAVZHVzEabWmVhOvleVV+hVRVzfi2qx+aHQrvYYhfZNW3dFQvv1117p2mBaPT7cjh3PzTOsDzfOs3PnzlnbzHF24NBX7jX1w29e9VykdUk3RPc8+pQL7evefs9V5Ht0aGUnTpxwzyYo3KsHfufOnYT2WE466yCAAAIIIIAAAvEI+Km6KxQ2aNAgoZXteD5Z1TtuBczatWsn5BNf47EtzjYFBXoFe1W+vZ72/O0xamXSjYvXHvPBH+e6yvltLTLt9vTrbO7kAa5/XZX2ucvW2a6357sWHq2j/ao6r7Yab9mxYbb7C0vTRwba0f89aZdeUt299Mflk91fDhTa9V3bE9qLc7bZFgEEEEAAAQQQiFHAT9U90Q+qasjFqbxre6/yrsp0aVtU2e46YLJ7EPW1hVmRWWLU+qJQfmuzHtaq6Z3uwVGF8NHPvWSqqmvROrOWrMkT2lWJV2jXtgrpaou5uWmGdW/Xynp1aWN3PzzAVdonDO1uv3qo77fV+OrfttMMdb3sx48fd8F/+/btVNpL24XG8SCAAAIIIIBAOAVUNT148KCrnha1qOpev359S0Yo9nNDkX/cqr6rAp0Kve9FmUe/rtCuSvuaJeMjv1Z/etvMLFcR/8vqGe73u/d+5vrQxw3OsNbNGrtAftPdXb97bdMCe33DX2zpqxvd1JF6TaF+7cZ37ZlnF7meePW5q9Ku2WP0IKpupm5v+Tu77ZYf2/TRma5NRsH9/ffft6VzPwnsQdSvj31iz0z8FQ+i+rkoWBcBBBBAAAEEypaAn5CcjKq7p+9nXAWdMYV3r4Uk1c+oQvu2D/Z97zCe6Nja+mQ8lOf3QyfMc0HcW7TOnJfX2t4tS9yvbmzS+Xv7WTF7pN10wzXu9/nnac9/c6Agr3aed/7050BZ77n3PxI6e1Fhg2XKx0BPIztDAAEEEEAAgUQK+GlPUUuFZphJ1oOg8UwVmd9KNxsK8Mn4S0EizxP7Dl6A0B68KXtEAAEEEEAAgQQLqFVm//79MX0QUjIeVI0+XFV39eXnE1YL4lKAV3hP5Jz0CT5N7D5AAUJ7gJjsCgEEEEAAAQSSK/D555+7D/GJZUn2/Om6sdDYihvedWylqYUmlnPFOt8XILRzVSCAAAIIIIBASgv4eVBVB5rMfncPNojWGW9fBPiUvlzjHjyhPW46NkQAAQQQQACBMAn4eSA02f3unlNQrTPRAV7tP9WqVaMPPkwXYwLGQmhPACq7RAABBBBAAIGSEfDzoKpGqMCrynuyHlaNVtFNhkJ8UZ826kdSVXgdU82aNd13ltIjQGgvPeeSI0EAAQQQQACB/xdQH/mXX34Z04Oq2kQPfKalpSX0U1ULOzlq79Gc4l9//XXM443lROuvCV6I13fNDc+SugKE9tQ9d4wcAQQQQAABBIoQ8POgqnaV7IdV8w8/6PaZ/Pv3QjztNKn3nw6hPfXOGSNGAAEEEEAAAR8Cfh9U9cK75ngvycUL8Pqutp9ELKq+668MaqWpUqUKffGJQA5on4T2gCDZDQIIIIAAAgiEW8Bvy0xJPaxakKLX+65jSFSA997XC/CVKlVyQV7/prWm5K9tQnvJnwNGgAACCCCAAAJJFPAzy4yGVZIPqxYW4E+fPu0eYtVfEZK1VK5c2VXi1VqjEO99Jev9y/r7ENrL+hXA8SOAAAIIIFBGBb766iv3sGqsS9jCu8atqruq75qBRiE+kYsq7zVq1LCqVataxYoVTX+JuHjxohvDhQsX3EO05cqVc/9WhV6va5v8VfqP9h2wtplZtmL2SLvphmsSOeRStW9Ce6k6nRwMAggggAACCPgRUNBUcPfzqaVhDO/eMSu8e1X4IKeS1P513LVr17auA6fZgUNf5WEe0be93fvLW93Ng95fgd0L9l47j/6tKv2BQ0fs8b6T7JWZw+36a690wV9hv0KFCla+fHn3xfJ9AUI7VwUCCCCAAAIIlHkBtZkcPnzY15zpqiDXq1evROZ4j/WEqfquEK0wXdwQr7nf69SpYx36TLLLLq1h854d6AL37JfW2vzlb9rI/h2t6S9ucRV3BXT5KICrCn/27Fn3pQr83z//H+vc/1lb+sIQa3DVj+zcuXNufYV2Lfq31tV+tA9V670bAO1LX3pfL+B72+l3eu38+fORqTP37NljSxevj5WryPVyc4/b0BFPWHp6epHrBr0CoT1oUfaHAAIIIIAAAikroJCraSIVGGNdVFXWhzOV9GwzsYzXq4QrFOfm5vrqidd0kZoSs33viXZpreo2Z1J/1wqjQH33wwPs2quvsOzxT7rQPHb6MtvwTk5kSC3+43Yb2rutC+af/v1L69Rvsgvt16Zdbr2Gv2gf7tmfZ/hbX3/e7Ue2nfpNce+nanzOro/degumDLCf/Pgqa/xA3zzbpdWva3Mn9XE3KLoR27lzp61fVc6uqPuzWHiKXOeLIzut34iG1qRJkyLXDXoFQnvQouwPAQQQQAABBFJeQA+rqm3G70wtJT3Pezzw0dV4Bd3Cjrmg0K7KtoJ100cGutA+d/IAGzF5oa3/03bbsWF2pPXlthaZ1vLuOyxrUBf76ycHXXuMQnvDq+tZ7xEzrHfnNpbeqKGrnj+UMdIdxvLsYS6ot80c59pxurdrZRmP3eeq6arAa5892t9vmZ1au99p3M3bDbYV2UMI7fFcCGyDAAIIIIAAAgikqoDfmWa841TA1Zcq8Km2KPyqUq2/Nqgir/YahXnNHFO3bl1r12uCa4+ZP+UpF5SfeXaRvbl5m40e2MkeaP4Lu7VZD+v2WEvr3r6lnTlzxjTrzPxX1tuC36+3DzfOsz1/+7t1fHKiC+3XNagfqdarYq/Qnr14tb36xhbbtHKqC/2P9MxylXbdEJw4ccIF9INffG1dBkxxffGNrr86Etr1fhqvPmGWSnuqXXmMFwEEEEAAAQQQKIaAgqlaZvw8rOq9XZgfWo2HRC0rv+k2yj77xxd5Nl84daDd/JMGtu/TQ66K/tL0wXb1lf9mx44ds1q1ark+drXELJsxzG3Xoc8EF9pvaPjvrg2mZcdhdux4bp59KuAroD/cY4y7SZgxtrf985//dEFeN0Sd+0+NPBBbq2Y127zqOXejoeDuzWu/Y8cO2mPiOdFsgwACCCCAAAIIpKpAccK7jjkVW2cKOlcPdB7uQvSiaYMjL3vtKWp9addrnAvneshUFXtV2gsK7S+/ONRuvC7Nftq8p92efp2rpKvnXZX2ucvW2a6357sqvEK7Ku0vZvUy/eVDv9PUk7oh0kOqo6YucZV+b3l3zQsutB89etRycnII7an6HxzjRgABBBBAAAEEiisQb9uM3ldtJl5/eHHHURLbFxTao8dxY5PO9kTH1tYn46HIr2csfM3mvLzWPvrTItM87Qr2y7NH2P6DX7r2mt2bFkRmhPFCu36ngP7b7qPzhHbdIMhQNwMK7Qr66qtX//vNTTMso20Le7hVY/eXke3btxPaS+Ii4T0RQAABBBBAAIEwCRQnvOs4vL53fU+VpajQPnTCPFu78V3bu2VJ5JAU5Fs3a2wTh/Vwod37cCWtoJ/HD+lmbe67y62vdbVoe7XCtOkywoV2TTGpHnstb23ZYUtf3WivLcxyYV2L3lMPwaqCryq/ets15eOM51d9+4FQNQLhPXXqhPUf1I7ZYwLRZCcIIIAAAggggECSBRTejxw54muqyOghetNG6kHP/J8gmuRDKfLtigrt2oEX3L2deYFd/87/iaj511WVXlV5L/QX9n5euI8ecGn+lFWmfCzy0mQFBBBAAAEEEEAgNgH1UivAF+eDjNT6oS/NPBP2AB+bCmsFIUBoD0KRfSCAAAIIIIAAAlECmm5Q4T2eGWeiIb0Ar08j1YOXLGVXgNBeds89R44AAggggAACSRCI94Oa8g9NVXevB54An4QTF7K3ILSH7IQwHAQQQAABBBAonQIK79784cU9Qq8H3puJprj7Y/vwCxDaw3+OGCECCCCAAAIIlCIBfQCQwntxHlzNz6EKvKrv1apVc/3wLKVPgNBe+s4pR4QAAggggAACKSKg8K6v4va+Fxbi6YVPkQshhmES2mNAYhUEEEAAAQQQQCDRAkG2z0SPVa00qr5TiU/0GUzs/gntifVl7wgggAACCCCAgC8BfQqoKu9B9b8X9OYK8Xqw1QvyPNjq6xSVyMqE9hJh500RQAABBBBAAIGiBZIR4L1ReH3xCvNVqlRhismiT09S1yC0J5WbN0MAAQQQQAABBOIXSFQLTWEj8qrxqsTrZ33xoGv85684WxLai6PHtggggAACCCCAQAkJeO0zaqVRRT6ZS3SY1/tq1hotCvfqoY9n6Tpgsv3r6Albs2R8PJuX+m0I7aX+FHOACCCAAAIIIFDaBbxpJE+ePOl64f0u5cuXtwoVKrjAXbFiRfdzuXLl7OLFi3b+/Hk7d+6c+671FNi1jtbV63rN+9I2+r3XXqP1vXWjfy4o2BPaf/isEdr9XtWsjwACCCCAAAIIhFxAwf306dOmEK+vopZKlSq5tpfKlSu7UO6FaoVyVfHPnDnj9ucFcq2vYK9Fgf3s2bOR1/Va9D6i18nNzXX7U0W+atWqkZYbBftuT01xlfY/LBjj9hd9I6F9aCz60o2BFn3XOt7PBR2jN6VmUcfv5/W0tDQ/qwe2LqE9MEp2hAACCCCAAAIIhFNA4VXVeC/E52+nUYiuXbu2dR04zS6tVd0F4pxdH7uDqVWzmq1bMtZtr+2enrDQPtyzP8+Bbn39eVeJV6jv1G9KoftQ+FfwVrCfOHOFbXgnJ89+GlxVz1bMHmEK9wOy5hb6PtpINw13Pdg/z/Zp9eva3El97NSpU+4m4oMPPrCPlvW2W+p/d4NR3GX34fP2wMj11qRJk+Luyvf2hHbfZGyAAAIIIIAAAgiktoDCtwK8V41XxbpOnTrWoc8kO3DoK+verpX16NDKhfdHnxjrgvayGUNcVV1hunfnNpbeqKGrdD+UMdJhLM8e5tZvmzkuso+eHe93v7vn0aesQVo9e2HM79y/x05f5gL7jg2z3baqtHcfNNVV2n8/a7gbV/8xc6xPlwcLfB9tc+f9va1H+/sts1Nru3DhgruhaN5usK3IHuKO7ZtvvrGdO3faj3f1tCYNgjlfW3Sv8sg7hPZgONkLAggggAACCCCAgF8BhV4FcFXa5z070IVeVc7f2rLDRk1dYi9NH2wNr64XCdkK2grt2YtX26tvbLFNK6e6cP9Izyy3j7mTB7g2F1XERz/3ku379JCtnPOMC+23tci0bo+1tO7tW7obAbXlZA6dbkePnXSh3WuP8frn87/PR/sOfFvRn2yvzBxuja6/OhLavTae48ePE9r9XgCsjwACCCCAAAIIIJAaAg90Hm6XXVrDFk0bHBnw7r2fWbte42zs012t5d13uDaY+9oPsWPHc/Mc1Icb57nw/HCPMW4fM8b2thMnTriHUtUK87fPPrdX542yvR//wx7vO8mWvjDErrqitmuFqVWrlvUdNctV2hXsFeS1tHp8eIHvo9e9ir7WUwvP5lXPuRYeBXdvZp0dO3ZQaU+NS49RIoAAAggggAACCMQqUFBoV1W7bWaWjR/Szdrcd5fd2KSz3fnTG2zB1EGuaj5z0es25+W1tnvTAtei8tvuo12l/cWsXqaKtx44nZS9MhLa39j0fqRyr9Cu/vPLLrvM+jwz04V2BXvt545Wvez29OtcxV7VelX05y5bZ7venu/aZ3SDoN54/RXgzc3bIof47poXXGg/evSo5eTkENpjPfmshwACCCCAAAIIIJAaAgWF9tVvbbXhkxbY3i1LLPpn74hmLHzNhXa9rsXbx/wpT7nKt1pbRk5Z7NpjFMi1/LR5Txs9sJM1/9XPXEBXNf6JIc+79hits+7t91wYV/Vei/Yxa8maPKFdFX9vFhu18egG4uamGZbRtoU93Kqxaf767du3E9pT49JjlAgggAACCCCAAAKxChQU2lVZb92ssU0c1sPyV921X72uJX9oj26xGTphnv31k4ORD06KnpNdffC6GRgxeaFp9pjXF41179O+93jXkvPre3/uAvkt93Rz76NK+2vr/2zL/rDJVs0d6QK9vtZufNfdHCyeNsh+VLu6C+2qtH+zvqelf9eKX+xl15dm6f14ELXYkOwAAQQQQAABBBBAIH4BhfbP/vFFnh14gd37pQK4ArK3PNGxdYGV9h8K7do2+r2uTbvC9cFHfyJqUe/j3SxED3bF7JF20w3X5Bn/li1b4gcpYMv09HS75JJLAt1nLDtjysdYlFgHAQQQQAABBBAoAwIFVdrLwGGnxCES2lPiNDFIBBBAAAEEEEAg8QKE9sQbx/sOhPZ45dgOAQQQQAABBBAoZQKE9vCeUEJ7eM8NI0MAAQQQQAABBBBAwAkQ2rkQEEAAAQQQQAABBBAIuQChPeQniOEhgAACCCCAAAIIIEBo5xpAAAEEEEAAAQQQQCDkAoT2kJ8ghocAAggggAACCCCAAKGdawABBBBAAAEEEEAAgZALENpDfoIYHgIIIIAAAggggAAChHauAQQQQAABBBBAAAEEQi5AaA/5CWJ4CCCAAAIIIIAAAggQ2rkGEEAAAQQQQAABBBAIuQChPeQniOEhgAACCCCAAAIIIEBo5xpAAAEEEEAAAQQQQCDkAoT2kJ8ghocAAggggAACCCCAAKGdawABBBBAAAEEEEAAgZALENpDfoIYHgIIIIAAAggggAAChHauAQQQQAABBBBAAAEEQi5AaA/5CWJ4CCCAAAIIIIAAAggQ2rkGEEAAAQQQQAABBBAIuQChPeQniOEhgAACCCCAAAIIIEBo5xpAAAEEEEAAAQQQQCDkAoT2kJ8ghocAAggggAACCCCAAKGdawABBBBAAAEEEEAAgZALENpDfoIYHgIIIIAAAggggAAChHauAQQQQAABBBBAAAEEQi5AaA/5CWJ4CCCAAAIIIIAAAggQ2rkGEEAAAQQQQAABBBAIucD/AbWey0hdCZN3AAAAAElFTkSuQmCC;" vertex="1" parent="1">
          <mxGeometry x="20" y="200" width="299.59" height="210" as="geometry" />
        </mxCell>
        <mxCell id="tCLmfLOytremMCfvckN1-12" value="Ibis Connector" style="rounded=0;whiteSpace=wrap;html=1;" vertex="1" parent="1">
          <mxGeometry x="137.5" y="120" width="160" height="20" as="geometry" />
        </mxCell>
        <mxCell id="tCLmfLOytremMCfvckN1-31" style="edgeStyle=orthogonalEdgeStyle;rounded=0;orthogonalLoop=1;jettySize=auto;html=1;entryX=0;entryY=0.5;entryDx=0;entryDy=0;" edge="1" parent="1" source="tCLmfLOytremMCfvckN1-13" target="tCLmfLOytremMCfvckN1-29">
          <mxGeometry relative="1" as="geometry" />
        </mxCell>
        <mxCell id="tCLmfLOytremMCfvckN1-13" value="Source OMOP CDM" style="shape=cylinder3;whiteSpace=wrap;html=1;boundedLbl=1;backgroundOutline=1;size=15;" vertex="1" parent="1">
          <mxGeometry x="20" y="60" width="60" height="80" as="geometry" />
        </mxCell>
        <mxCell id="tCLmfLOytremMCfvckN1-16" value="LinkML" style="rounded=0;whiteSpace=wrap;html=1;" vertex="1" parent="1">
          <mxGeometry x="360" y="120" width="150" height="20" as="geometry" />
        </mxCell>
        <mxCell id="744MUO6gbjXucY98MRgu-5" style="edgeStyle=orthogonalEdgeStyle;rounded=0;orthogonalLoop=1;jettySize=auto;html=1;" edge="1" parent="1" source="tCLmfLOytremMCfvckN1-19" target="744MUO6gbjXucY98MRgu-4">
          <mxGeometry relative="1" as="geometry" />
        </mxCell>
        <mxCell id="tCLmfLOytremMCfvckN1-19" value="OpenAPI 3.1" style="rounded=0;whiteSpace=wrap;html=1;" vertex="1" parent="1">
          <mxGeometry x="420" y="200" width="115" height="20" as="geometry" />
        </mxCell>
        <mxCell id="tCLmfLOytremMCfvckN1-20" value="Python: Pydantic" style="rounded=0;whiteSpace=wrap;html=1;fontStyle=0" vertex="1" parent="1">
          <mxGeometry x="400" y="160" width="135" height="20" as="geometry" />
        </mxCell>
        <mxCell id="tCLmfLOytremMCfvckN1-22" value="Hestia" style="rounded=0;whiteSpace=wrap;html=1;fontStyle=1" vertex="1" parent="1">
          <mxGeometry x="360" y="80" width="175" height="40" as="geometry" />
        </mxCell>
        <mxCell id="tCLmfLOytremMCfvckN1-28" value="FastUI" style="rounded=0;whiteSpace=wrap;html=1;" vertex="1" parent="1">
          <mxGeometry x="640" y="160" width="100" height="20" as="geometry" />
        </mxCell>
        <mxCell id="tCLmfLOytremMCfvckN1-32" style="edgeStyle=orthogonalEdgeStyle;rounded=0;orthogonalLoop=1;jettySize=auto;html=1;" edge="1" parent="1" source="tCLmfLOytremMCfvckN1-29" target="tCLmfLOytremMCfvckN1-22">
          <mxGeometry relative="1" as="geometry" />
        </mxCell>
        <mxCell id="tCLmfLOytremMCfvckN1-29" value="Ibis" style="rounded=0;whiteSpace=wrap;html=1;fontStyle=1" vertex="1" parent="1">
          <mxGeometry x="137.5" y="80" width="182.5" height="40" as="geometry" />
        </mxCell>
        <mxCell id="tCLmfLOytremMCfvckN1-39" value="Database" style="rounded=0;whiteSpace=wrap;html=1;" vertex="1" parent="1">
          <mxGeometry x="400" y="480" width="135" height="20" as="geometry" />
        </mxCell>
        <mxCell id="tCLmfLOytremMCfvckN1-42" value="" style="endArrow=classic;html=1;rounded=0;entryX=0;entryY=0.5;entryDx=0;entryDy=0;" edge="1" parent="1" target="tCLmfLOytremMCfvckN1-20">
          <mxGeometry width="50" height="50" relative="1" as="geometry">
            <mxPoint x="380" y="170" as="sourcePoint" />
            <mxPoint x="450" y="220" as="targetPoint" />
          </mxGeometry>
        </mxCell>
        <mxCell id="tCLmfLOytremMCfvckN1-43" value="" style="endArrow=classic;html=1;rounded=0;entryX=0;entryY=0.5;entryDx=0;entryDy=0;" edge="1" parent="1">
          <mxGeometry width="50" height="50" relative="1" as="geometry">
            <mxPoint x="380" y="250" as="sourcePoint" />
            <mxPoint x="400" y="249.88" as="targetPoint" />
          </mxGeometry>
        </mxCell>
        <mxCell id="tCLmfLOytremMCfvckN1-44" value="JSON" style="rounded=0;whiteSpace=wrap;html=1;" vertex="1" parent="1">
          <mxGeometry x="420" y="260" width="115" height="20" as="geometry" />
        </mxCell>
        <mxCell id="tCLmfLOytremMCfvckN1-45" value="SPARQL" style="rounded=0;whiteSpace=wrap;html=1;" vertex="1" parent="1">
          <mxGeometry x="420" y="380" width="115" height="20" as="geometry" />
        </mxCell>
        <mxCell id="tCLmfLOytremMCfvckN1-46" value="Linked Data" style="rounded=0;whiteSpace=wrap;html=1;" vertex="1" parent="1">
          <mxGeometry x="400" y="360" width="135" height="20" as="geometry" />
        </mxCell>
        <mxCell id="tCLmfLOytremMCfvckN1-47" value="Frameworks" style="rounded=0;whiteSpace=wrap;html=1;" vertex="1" parent="1">
          <mxGeometry x="400" y="240" width="135" height="20" as="geometry" />
        </mxCell>
        <mxCell id="tCLmfLOytremMCfvckN1-48" value="SQL DDL" style="rounded=0;whiteSpace=wrap;html=1;" vertex="1" parent="1">
          <mxGeometry x="420" y="500" width="115" height="20" as="geometry" />
        </mxCell>
        <mxCell id="tCLmfLOytremMCfvckN1-49" value="SQL Alchemy" style="rounded=0;whiteSpace=wrap;html=1;" vertex="1" parent="1">
          <mxGeometry x="420" y="520" width="115" height="20" as="geometry" />
        </mxCell>
        <mxCell id="tCLmfLOytremMCfvckN1-50" value="Language Data Classes" style="rounded=0;whiteSpace=wrap;html=1;" vertex="1" parent="1">
          <mxGeometry x="400" y="560" width="135" height="20" as="geometry" />
        </mxCell>
        <mxCell id="tCLmfLOytremMCfvckN1-51" value="Java" style="rounded=0;whiteSpace=wrap;html=1;" vertex="1" parent="1">
          <mxGeometry x="420" y="600" width="115" height="20" as="geometry" />
        </mxCell>
        <mxCell id="tCLmfLOytremMCfvckN1-52" value="Typescript" style="rounded=0;whiteSpace=wrap;html=1;" vertex="1" parent="1">
          <mxGeometry x="420" y="620" width="115" height="20" as="geometry" />
        </mxCell>
        <mxCell id="tCLmfLOytremMCfvckN1-53" value="Python" style="rounded=0;whiteSpace=wrap;html=1;" vertex="1" parent="1">
          <mxGeometry x="420" y="580" width="115" height="20" as="geometry" />
        </mxCell>
        <mxCell id="tCLmfLOytremMCfvckN1-54" value="CSV / Excel" style="rounded=0;whiteSpace=wrap;html=1;" vertex="1" parent="1">
          <mxGeometry x="420" y="280" width="115" height="20" as="geometry" />
        </mxCell>
        <mxCell id="tCLmfLOytremMCfvckN1-55" value="Yaml" style="rounded=0;whiteSpace=wrap;html=1;" vertex="1" parent="1">
          <mxGeometry x="420" y="300" width="115" height="20" as="geometry" />
        </mxCell>
        <mxCell id="tCLmfLOytremMCfvckN1-56" value="SSSOM" style="rounded=0;whiteSpace=wrap;html=1;" vertex="1" parent="1">
          <mxGeometry x="420" y="320" width="115" height="20" as="geometry" />
        </mxCell>
        <mxCell id="tCLmfLOytremMCfvckN1-57" value="Documentation" style="rounded=0;whiteSpace=wrap;html=1;" vertex="1" parent="1">
          <mxGeometry x="400" y="660" width="135" height="20" as="geometry" />
        </mxCell>
        <mxCell id="tCLmfLOytremMCfvckN1-58" value="JSON-LD" style="rounded=0;whiteSpace=wrap;html=1;" vertex="1" parent="1">
          <mxGeometry x="420" y="400" width="115" height="20" as="geometry" />
        </mxCell>
        <mxCell id="tCLmfLOytremMCfvckN1-59" value="RDF" style="rounded=0;whiteSpace=wrap;html=1;" vertex="1" parent="1">
          <mxGeometry x="420" y="420" width="115" height="20" as="geometry" />
        </mxCell>
        <mxCell id="tCLmfLOytremMCfvckN1-60" value="OWL" style="rounded=0;whiteSpace=wrap;html=1;" vertex="1" parent="1">
          <mxGeometry x="420" y="440" width="115" height="20" as="geometry" />
        </mxCell>
        <mxCell id="tCLmfLOytremMCfvckN1-61" value="Markdown" style="rounded=0;whiteSpace=wrap;html=1;" vertex="1" parent="1">
          <mxGeometry x="420" y="680" width="115" height="20" as="geometry" />
        </mxCell>
        <mxCell id="tCLmfLOytremMCfvckN1-62" value="ER Diagrams" style="rounded=0;whiteSpace=wrap;html=1;" vertex="1" parent="1">
          <mxGeometry x="420" y="700" width="115" height="20" as="geometry" />
        </mxCell>
        <mxCell id="tCLmfLOytremMCfvckN1-63" value="" style="endArrow=classic;html=1;rounded=0;entryX=0;entryY=0.5;entryDx=0;entryDy=0;" edge="1" parent="1">
          <mxGeometry width="50" height="50" relative="1" as="geometry">
            <mxPoint x="380" y="369.98" as="sourcePoint" />
            <mxPoint x="400" y="369.86" as="targetPoint" />
          </mxGeometry>
        </mxCell>
        <mxCell id="tCLmfLOytremMCfvckN1-64" value="" style="endArrow=classic;html=1;rounded=0;entryX=0;entryY=0.5;entryDx=0;entryDy=0;" edge="1" parent="1">
          <mxGeometry width="50" height="50" relative="1" as="geometry">
            <mxPoint x="380" y="489.98" as="sourcePoint" />
            <mxPoint x="400" y="489.86" as="targetPoint" />
          </mxGeometry>
        </mxCell>
        <mxCell id="tCLmfLOytremMCfvckN1-65" value="" style="endArrow=classic;html=1;rounded=0;entryX=0;entryY=0.5;entryDx=0;entryDy=0;" edge="1" parent="1">
          <mxGeometry width="50" height="50" relative="1" as="geometry">
            <mxPoint x="380" y="569.98" as="sourcePoint" />
            <mxPoint x="400" y="569.86" as="targetPoint" />
          </mxGeometry>
        </mxCell>
        <mxCell id="tCLmfLOytremMCfvckN1-66" value="" style="endArrow=classic;html=1;rounded=0;entryX=0;entryY=0.5;entryDx=0;entryDy=0;" edge="1" parent="1">
          <mxGeometry width="50" height="50" relative="1" as="geometry">
            <mxPoint x="380" y="669.98" as="sourcePoint" />
            <mxPoint x="400" y="669.86" as="targetPoint" />
          </mxGeometry>
        </mxCell>
        <mxCell id="tCLmfLOytremMCfvckN1-67" value="" style="endArrow=none;html=1;rounded=0;entryX=0.137;entryY=0.969;entryDx=0;entryDy=0;entryPerimeter=0;" edge="1" parent="1" target="tCLmfLOytremMCfvckN1-16">
          <mxGeometry width="50" height="50" relative="1" as="geometry">
            <mxPoint x="380" y="670.8695652173913" as="sourcePoint" />
            <mxPoint x="560" y="70" as="targetPoint" />
          </mxGeometry>
        </mxCell>
        <mxCell id="tCLmfLOytremMCfvckN1-69" value="GPT Actions" style="rounded=0;whiteSpace=wrap;html=1;" vertex="1" parent="1">
          <mxGeometry x="640" y="200" width="100" height="20" as="geometry" />
        </mxCell>
        <mxCell id="744MUO6gbjXucY98MRgu-1" value="HADES" style="rounded=0;whiteSpace=wrap;html=1;" vertex="1" parent="1">
          <mxGeometry x="640" y="180" width="100" height="20" as="geometry" />
        </mxCell>
        <mxCell id="744MUO6gbjXucY98MRgu-4" value="API Docs" style="rounded=0;whiteSpace=wrap;html=1;" vertex="1" parent="1">
          <mxGeometry x="560" y="240" width="115" height="20" as="geometry" />
        </mxCell>
        <mxCell id="744MUO6gbjXucY98MRgu-8" value="Quarto" style="rounded=0;whiteSpace=wrap;html=1;" vertex="1" parent="1">
          <mxGeometry x="560" y="660" width="115" height="60" as="geometry" />
        </mxCell>
      </root>
    </mxGraphModel>
  </diagram>
  <diagram id="4WFn2UnRshRJUaZaeLLt" name="Roadmap">
    <mxGraphModel dx="2954" dy="1196" grid="1" gridSize="10" guides="1" tooltips="1" connect="1" arrows="1" fold="1" page="1" pageScale="1" pageWidth="850" pageHeight="1100" math="0" shadow="0">
      <root>
        <mxCell id="0" />
        <mxCell id="1" parent="0" />
      </root>
    </mxGraphModel>
  </diagram>
</mxfile>
